%TF.GenerationSoftware,Altium Limited,Altium Designer,18.0.11 (651)*%
G04 Layer_Color=65535*
%FSLAX26Y26*%
%MOIN*%
%TF.FileFunction,Legend,Top*%
%TF.Part,Single*%
G01*
G75*
%TA.AperFunction,NonConductor*%
%ADD41C,0.007874*%
%ADD42C,0.010000*%
D41*
X8591929Y4211929D02*
X8611614Y4192244D01*
X8446260D02*
X8611614D01*
X4070000Y3855000D02*
Y4005000D01*
X3720000Y3855000D02*
X4070000D01*
X3720000D02*
Y4005000D01*
X4070000D01*
X8225433Y2690315D02*
X8252992D01*
X8225433Y2729685D02*
X8252992D01*
X8547992Y2788740D02*
X8567677Y2769055D01*
X8402323D02*
X8567677D01*
X8402323Y2666693D02*
Y2702126D01*
Y2666693D02*
X8567677D01*
Y2753307D01*
X8402323D02*
X8567677D01*
X8402323Y2702126D02*
Y2753307D01*
X7835433Y3084685D02*
X7862992D01*
X7835433Y3045315D02*
X7862992D01*
X7555315Y3000433D02*
Y3027992D01*
X7594685Y3000433D02*
Y3027992D01*
X7635433Y3865315D02*
X7662992D01*
X7635433Y3904685D02*
X7662992D01*
X7769685Y4042008D02*
Y4069567D01*
X7730315Y4042008D02*
Y4069567D01*
X3345315Y2909134D02*
Y2936693D01*
X3384685Y2909134D02*
Y2936693D01*
X3414055Y2637323D02*
X3433740Y2657008D01*
X3414055Y2637323D02*
Y2802677D01*
X3311693D02*
X3347126D01*
X3311693Y2637323D02*
Y2802677D01*
Y2637323D02*
X3398307D01*
Y2802677D01*
X3347126D02*
X3398307D01*
X3514685Y2909134D02*
Y2936693D01*
X3475315Y2909134D02*
Y2936693D01*
X3254685Y2909134D02*
Y2936693D01*
X3215315Y2909134D02*
Y2936693D01*
X4400000Y3865000D02*
Y4015000D01*
X4850000D01*
Y3865000D02*
Y4015000D01*
X4400000Y3865000D02*
X4850000D01*
X7575315Y4042008D02*
Y4069567D01*
X7614685Y4042008D02*
Y4069567D01*
X8140315Y4035433D02*
Y4062992D01*
X8179685Y4035433D02*
Y4062992D01*
X8635236Y4164679D02*
X8661474D01*
X8648355Y4177798D02*
Y4151560D01*
X8587362Y2749364D02*
X8613600D01*
X8600481Y2762483D02*
Y2736245D01*
X3394364Y2617638D02*
Y2591400D01*
X3407483Y2604519D02*
X3381245D01*
D42*
X3690748Y3653819D02*
X5659252D01*
X3690748Y2756181D02*
Y3653819D01*
Y2756181D02*
X5659252D01*
Y3653819D01*
X7498740Y2427181D02*
Y2584661D01*
X6414827Y2584646D02*
X6612913D01*
Y3290661D01*
X7285779Y2584661D02*
X7498740D01*
X7282205Y2027559D02*
Y2427165D01*
X7281299Y2427181D02*
X7498740D01*
X6612913Y2027559D02*
X7282205D01*
X6612913D02*
Y2427165D01*
X6414827D02*
X6612913D01*
X6414827D02*
Y2584646D01*
X6628779Y3290661D02*
X7282205D01*
Y2584661D02*
Y3290661D01*
X7574724Y4265000D02*
Y4579961D01*
X8362126Y4265000D02*
Y4579961D01*
X7578701Y4265000D02*
X8362126D01*
X7578701Y4579961D02*
X8362126D01*
X6631244Y3593000D02*
Y4299000D01*
Y3593000D02*
X7284669D01*
X7498622Y4299016D02*
Y4456496D01*
X7300535D02*
X7498622D01*
X7300535D02*
Y4856102D01*
X6631244D02*
X7300535D01*
X6414709Y4456480D02*
X6632150D01*
X6631244Y4456496D02*
Y4856102D01*
X6414709Y4299000D02*
X6627669D01*
X7300535Y3593000D02*
Y4299016D01*
X7498622D01*
X6414709Y4299000D02*
Y4456480D01*
X4875000Y2235000D02*
Y3030000D01*
X5155000Y3310000D01*
X5155000Y4660000D02*
X5155000Y3310000D01*
X8315000Y4037126D02*
X8629909D01*
X8315000Y2856024D02*
X8629961D01*
X8315000D02*
Y4037126D01*
X8629961Y2856024D02*
Y4037126D01*
X4840276Y4262520D02*
Y4577480D01*
X4446575Y4262520D02*
Y4577480D01*
X4840276D01*
X4446575Y4262520D02*
X4840276D01*
X3963425D02*
Y4577480D01*
X3569724Y4262520D02*
Y4577480D01*
X3963425D01*
X3569724Y4262520D02*
X3963425D01*
X7583701Y2609961D02*
X8367126D01*
X7583701Y2295000D02*
X8367126D01*
Y2609961D01*
X7579724Y2295000D02*
Y2609961D01*
X8412500Y4387481D02*
Y4327500D01*
X8442490D01*
X8452487Y4337497D01*
Y4377484D01*
X8442490Y4387481D01*
X8412500D01*
X8472481Y4377484D02*
X8482477Y4387481D01*
X8502471D01*
X8512468Y4377484D01*
Y4367487D01*
X8502471Y4357490D01*
X8492474D01*
X8502471D01*
X8512468Y4347493D01*
Y4337497D01*
X8502471Y4327500D01*
X8482477D01*
X8472481Y4337497D01*
X3765987Y4098981D02*
X3726000D01*
Y4068990D01*
X3745994D01*
X3726000D01*
Y4039000D01*
X3785981D02*
X3805974D01*
X3795977D01*
Y4098981D01*
X3785981Y4088984D01*
X5254000Y3533773D02*
X5293987D01*
X5273993Y3553767D02*
Y3513780D01*
X5343971Y3563764D02*
X5323977D01*
X5313981Y3553767D01*
Y3513780D01*
X5323977Y3503783D01*
X5343971D01*
X5353968Y3513780D01*
Y3553767D01*
X5343971Y3563764D01*
X5373961D02*
Y3513780D01*
X5383958Y3503783D01*
X5403952D01*
X5413948Y3513780D01*
Y3563764D01*
X5433942D02*
X5473929D01*
X5453935D01*
Y3503783D01*
X5254000Y3317238D02*
X5293987D01*
X5343971Y3347228D02*
X5323977D01*
X5313981Y3337231D01*
Y3297244D01*
X5323977Y3287248D01*
X5343971D01*
X5353968Y3297244D01*
Y3337231D01*
X5343971Y3347228D01*
X5373961D02*
Y3297244D01*
X5383958Y3287248D01*
X5403952D01*
X5413948Y3297244D01*
Y3347228D01*
X5433942D02*
X5473929D01*
X5453935D01*
Y3287248D01*
X5254000Y3100703D02*
X5293987D01*
X5273993Y3120696D02*
Y3080709D01*
X5343971Y3130693D02*
X5323977D01*
X5313981Y3120696D01*
Y3080709D01*
X5323977Y3070712D01*
X5343971D01*
X5353968Y3080709D01*
Y3120696D01*
X5343971Y3130693D01*
X5373961D02*
Y3080709D01*
X5383958Y3070712D01*
X5403952D01*
X5413948Y3080709D01*
Y3130693D01*
X5433942D02*
X5473929D01*
X5453935D01*
Y3070712D01*
X5254000Y2884167D02*
X5293987D01*
X5343971Y2914157D02*
X5323977D01*
X5313981Y2904161D01*
Y2864174D01*
X5323977Y2854177D01*
X5343971D01*
X5353968Y2864174D01*
Y2904161D01*
X5343971Y2914157D01*
X5373961D02*
Y2864174D01*
X5383958Y2854177D01*
X5403952D01*
X5413948Y2864174D01*
Y2914157D01*
X5433942D02*
X5473929D01*
X5453935D01*
Y2854177D01*
X3901000Y2894010D02*
X3940987D01*
X3960981Y2924000D02*
X3980974D01*
X3970977D01*
Y2864019D01*
X3960981D01*
X3980974D01*
X4010964D02*
Y2924000D01*
X4050952Y2864019D01*
Y2924000D01*
X3940987Y3066365D02*
X3930990Y3076362D01*
X3910997D01*
X3901000Y3066365D01*
Y3026378D01*
X3910997Y3016382D01*
X3930990D01*
X3940987Y3026378D01*
X3960981Y3076362D02*
Y3016382D01*
X4000968D01*
X3901000Y3184630D02*
Y3124649D01*
X3930990D01*
X3940987Y3134646D01*
Y3174633D01*
X3930990Y3184630D01*
X3901000D01*
X3960981Y3124649D02*
Y3164636D01*
X3980974Y3184630D01*
X4000968Y3164636D01*
Y3124649D01*
Y3154640D01*
X3960981D01*
X3901000Y3233311D02*
Y3273298D01*
X3920994Y3293291D01*
X3940987Y3273298D01*
Y3233311D01*
Y3263301D01*
X3901000D01*
X3960981Y3293291D02*
Y3233311D01*
X3990971D01*
X4000968Y3243307D01*
Y3283294D01*
X3990971Y3293291D01*
X3960981D01*
X3901000Y3523931D02*
X3940987D01*
X3920994Y3543924D02*
Y3503937D01*
X3960981Y3553921D02*
X3980974D01*
X3970977D01*
Y3493941D01*
X3960981D01*
X3980974D01*
X4010964D02*
Y3553921D01*
X4050952Y3493941D01*
Y3553921D01*
X6779987Y3500000D02*
X6740000D01*
X6779987Y3539987D01*
Y3549984D01*
X6769990Y3559981D01*
X6749997D01*
X6740000Y3549984D01*
X6799981Y3500000D02*
Y3539987D01*
X6819974Y3559981D01*
X6839968Y3539987D01*
Y3500000D01*
Y3529990D01*
X6799981D01*
X6959929Y3559981D02*
X6919942D01*
Y3529990D01*
X6939935D01*
X6919942D01*
Y3500000D01*
X6979922Y3539987D02*
Y3509997D01*
X6989919Y3500000D01*
X7019909D01*
Y3539987D01*
X7039903Y3500000D02*
X7069893D01*
X7079890Y3509997D01*
X7069893Y3519994D01*
X7049900D01*
X7039903Y3529990D01*
X7049900Y3539987D01*
X7079890D01*
X7129874Y3500000D02*
X7109880D01*
X7099884Y3509997D01*
Y3529990D01*
X7109880Y3539987D01*
X7129874D01*
X7139871Y3529990D01*
Y3519994D01*
X7099884D01*
X6779987Y3210000D02*
X6740000D01*
X6779987Y3249987D01*
Y3259984D01*
X6769990Y3269981D01*
X6749997D01*
X6740000Y3259984D01*
X6799981Y3210000D02*
Y3249987D01*
X6819974Y3269981D01*
X6839968Y3249987D01*
Y3210000D01*
Y3239990D01*
X6799981D01*
X6959929Y3269981D02*
X6919942D01*
Y3239990D01*
X6939935D01*
X6919942D01*
Y3210000D01*
X6979922Y3249987D02*
Y3219997D01*
X6989919Y3210000D01*
X7019909D01*
Y3249987D01*
X7039903Y3210000D02*
X7069893D01*
X7079890Y3219997D01*
X7069893Y3229994D01*
X7049900D01*
X7039903Y3239990D01*
X7049900Y3249987D01*
X7079890D01*
X7129874Y3210000D02*
X7109880D01*
X7099884Y3219997D01*
Y3239990D01*
X7109880Y3249987D01*
X7129874D01*
X7139871Y3239990D01*
Y3229994D01*
X7099884D01*
X5130000Y2340000D02*
Y2399981D01*
X5159990D01*
X5169987Y2389984D01*
Y2369990D01*
X5159990Y2359994D01*
X5130000D01*
X5189981Y2340000D02*
X5209974D01*
X5199977D01*
Y2399981D01*
X5189981D01*
X5249961Y2379987D02*
X5269955D01*
X5279952Y2369990D01*
Y2340000D01*
X5249961D01*
X5239964Y2349997D01*
X5249961Y2359994D01*
X5279952D01*
X5339932Y2379987D02*
X5309942D01*
X5299945Y2369990D01*
Y2349997D01*
X5309942Y2340000D01*
X5339932D01*
X5389916D02*
X5369922D01*
X5359926Y2349997D01*
Y2369990D01*
X5369922Y2379987D01*
X5389916D01*
X5399913Y2369990D01*
Y2359994D01*
X5359926D01*
X5479887Y2399981D02*
X5499880D01*
X5489884D01*
Y2340000D01*
X5479887D01*
X5499880D01*
X5529871D02*
Y2399981D01*
X5549864Y2379987D01*
X5569858Y2399981D01*
Y2340000D01*
X5589851Y2399981D02*
Y2340000D01*
X5619842D01*
X5629838Y2349997D01*
Y2389984D01*
X5619842Y2399981D01*
X5589851D01*
X5719809Y2340000D02*
X5739803D01*
X5749800Y2349997D01*
Y2369990D01*
X5739803Y2379987D01*
X5719809D01*
X5709812Y2369990D01*
Y2349997D01*
X5719809Y2340000D01*
X5769793D02*
Y2379987D01*
X5799783D01*
X5809780Y2369990D01*
Y2340000D01*
X5899751Y2389984D02*
Y2379987D01*
X5889754D01*
X5909748D01*
X5899751D01*
Y2349997D01*
X5909748Y2340000D01*
X5949735D02*
X5969728D01*
X5979725Y2349997D01*
Y2369990D01*
X5969728Y2379987D01*
X5949735D01*
X5939738Y2369990D01*
Y2349997D01*
X5949735Y2340000D01*
X5999719Y2320006D02*
Y2379987D01*
X6029709D01*
X6039706Y2369990D01*
Y2349997D01*
X6029709Y2340000D01*
X5999719D01*
X3550000Y2320000D02*
Y2379981D01*
X3579990D01*
X3589987Y2369984D01*
Y2349990D01*
X3579990Y2339994D01*
X3550000D01*
X3569994D02*
X3589987Y2320000D01*
X3649968Y2379981D02*
X3609981D01*
Y2320000D01*
X3649968D01*
X3609981Y2349990D02*
X3629974D01*
X3669961Y2379981D02*
Y2339994D01*
X3689955Y2320000D01*
X3709948Y2339994D01*
Y2379981D01*
X3789922Y2320000D02*
Y2359987D01*
X3809916Y2379981D01*
X3829910Y2359987D01*
Y2320000D01*
Y2349990D01*
X3789922D01*
X3550000Y2504977D02*
Y2444997D01*
Y2474987D01*
X3589987D01*
Y2504977D01*
Y2444997D01*
X3609981D02*
X3629974D01*
X3619977D01*
Y2484984D01*
X3609981D01*
X3679958Y2425003D02*
X3689955D01*
X3699952Y2435000D01*
Y2484984D01*
X3669961D01*
X3659964Y2474987D01*
Y2454994D01*
X3669961Y2444997D01*
X3699952D01*
X3719945Y2504977D02*
Y2444997D01*
Y2474987D01*
X3729942Y2484984D01*
X3749935D01*
X3759932Y2474987D01*
Y2444997D01*
X3839906Y2504977D02*
Y2464990D01*
X3859900Y2444997D01*
X3879893Y2464990D01*
Y2504977D01*
X3909884Y2444997D02*
X3929877D01*
X3939874Y2454994D01*
Y2474987D01*
X3929877Y2484984D01*
X3909884D01*
X3899887Y2474987D01*
Y2454994D01*
X3909884Y2444997D01*
X3959867D02*
X3979861D01*
X3969864D01*
Y2504977D01*
X3959867D01*
X4019848Y2494981D02*
Y2484984D01*
X4009851D01*
X4029845D01*
X4019848D01*
Y2454994D01*
X4029845Y2444997D01*
X4069832Y2484984D02*
X4089825D01*
X4099822Y2474987D01*
Y2444997D01*
X4069832D01*
X4059835Y2454994D01*
X4069832Y2464990D01*
X4099822D01*
X4139809Y2425003D02*
X4149806D01*
X4159803Y2435000D01*
Y2484984D01*
X4129812D01*
X4119816Y2474987D01*
Y2454994D01*
X4129812Y2444997D01*
X4159803D01*
X4209787D02*
X4189793D01*
X4179796Y2454994D01*
Y2474987D01*
X4189793Y2484984D01*
X4209787D01*
X4219783Y2474987D01*
Y2464990D01*
X4179796D01*
X4299757Y2504977D02*
X4319751D01*
X4309754D01*
Y2444997D01*
X4299757D01*
X4319751D01*
X4349741D02*
Y2484984D01*
X4379731D01*
X4389728Y2474987D01*
Y2444997D01*
X4449709Y2504977D02*
Y2444997D01*
X4419719D01*
X4409722Y2454994D01*
Y2474987D01*
X4419719Y2484984D01*
X4449709D01*
X4469702Y2444997D02*
X4489696D01*
X4479699D01*
Y2484984D01*
X4469702D01*
X4559673D02*
X4529683D01*
X4519686Y2474987D01*
Y2454994D01*
X4529683Y2444997D01*
X4559673D01*
X4589664Y2484984D02*
X4609657D01*
X4619654Y2474987D01*
Y2444997D01*
X4589664D01*
X4579667Y2454994D01*
X4589664Y2464990D01*
X4619654D01*
X4649644Y2494981D02*
Y2484984D01*
X4639647D01*
X4659641D01*
X4649644D01*
Y2454994D01*
X4659641Y2444997D01*
X4699628D02*
X4719622D01*
X4729618Y2454994D01*
Y2474987D01*
X4719622Y2484984D01*
X4699628D01*
X4689631Y2474987D01*
Y2454994D01*
X4699628Y2444997D01*
X4749612Y2484984D02*
Y2444997D01*
Y2464990D01*
X4759609Y2474987D01*
X4769605Y2484984D01*
X4779602D01*
X3550000Y2629974D02*
Y2550000D01*
X3589987D01*
X3603316Y2563329D01*
Y2576658D01*
X3589987Y2589987D01*
X3550000D01*
X3589987D01*
X3603316Y2603316D01*
Y2616645D01*
X3589987Y2629974D01*
X3550000D01*
X3629974Y2550000D02*
Y2603316D01*
X3656632Y2629974D01*
X3683290Y2603316D01*
Y2550000D01*
Y2589987D01*
X3629974D01*
X3709948Y2629974D02*
Y2550000D01*
X3749935D01*
X3763264Y2563329D01*
Y2616645D01*
X3749935Y2629974D01*
X3709948D01*
X3843238Y2616645D02*
X3829909Y2629974D01*
X3803251D01*
X3789922Y2616645D01*
Y2563329D01*
X3803251Y2550000D01*
X3829909D01*
X3843238Y2563329D01*
Y2589987D01*
X3816580D01*
X3923213Y2629974D02*
X3869896D01*
Y2550000D01*
X3923213D01*
X3869896Y2589987D02*
X3896554D01*
X3949870Y2550000D02*
Y2629974D01*
X3989858D01*
X4003187Y2616645D01*
Y2589987D01*
X3989858Y2576658D01*
X3949870D01*
X3976528D02*
X4003187Y2550000D01*
X4029845Y2629974D02*
Y2550000D01*
X4083161D01*
X4149806Y2629974D02*
X4123148D01*
X4109819Y2616645D01*
Y2563329D01*
X4123148Y2550000D01*
X4149806D01*
X4163135Y2563329D01*
Y2616645D01*
X4149806Y2629974D01*
X4229780D02*
X4203122D01*
X4189793Y2616645D01*
Y2563329D01*
X4203122Y2550000D01*
X4229780D01*
X4243109Y2563329D01*
Y2616645D01*
X4229780Y2629974D01*
X4269767Y2550000D02*
Y2629974D01*
X4309754D01*
X4323083Y2616645D01*
Y2589987D01*
X4309754Y2576658D01*
X4269767D01*
X4315000Y4514984D02*
X4381645D01*
X4025000D02*
X4091645D01*
X4058323Y4548306D02*
Y4481661D01*
X4125000Y4394968D02*
Y4295000D01*
Y4344984D01*
X4191645D01*
Y4394968D01*
Y4295000D01*
X4224968Y4394968D02*
Y4328323D01*
X4258290Y4295000D01*
X4291613Y4328323D01*
Y4394968D01*
X5274981Y4435000D02*
X5215000D01*
Y4395013D01*
Y4365023D02*
Y4345029D01*
X5224997Y4335032D01*
X5244990D01*
X5254987Y4345029D01*
Y4365023D01*
X5244990Y4375019D01*
X5224997D01*
X5215000Y4365023D01*
X5254987Y4315039D02*
X5224997D01*
X5215000Y4305042D01*
X5224997Y4295045D01*
X5215000Y4285048D01*
X5224997Y4275052D01*
X5254987D01*
X5274981Y4195078D02*
X5234993D01*
X5215000Y4175084D01*
X5234993Y4155091D01*
X5274981D01*
X5215000Y4125100D02*
Y4105107D01*
X5224997Y4095110D01*
X5244990D01*
X5254987Y4105107D01*
Y4125100D01*
X5244990Y4135097D01*
X5224997D01*
X5215000Y4125100D01*
Y4075116D02*
Y4055123D01*
Y4065120D01*
X5274981D01*
Y4075116D01*
X5264984Y4015136D02*
X5254987D01*
Y4025133D01*
Y4005139D01*
Y4015136D01*
X5224997D01*
X5215000Y4005139D01*
X5254987Y3965152D02*
Y3945159D01*
X5244990Y3935162D01*
X5215000D01*
Y3965152D01*
X5224997Y3975149D01*
X5234993Y3965152D01*
Y3935162D01*
X5195007Y3895175D02*
Y3885178D01*
X5205003Y3875181D01*
X5254987D01*
Y3905171D01*
X5244990Y3915168D01*
X5224997D01*
X5215000Y3905171D01*
Y3875181D01*
Y3825197D02*
Y3845191D01*
X5224997Y3855188D01*
X5244990D01*
X5254987Y3845191D01*
Y3825197D01*
X5244990Y3815200D01*
X5234993D01*
Y3855188D01*
X5195007Y3719990D02*
X5234994D01*
X5254987Y3690000D02*
X5284977Y3719990D01*
X5254987Y3749981D01*
X5195007Y4539990D02*
X5234994D01*
X5254987Y4510000D02*
X5284977Y4539990D01*
X5254987Y4569981D01*
X5094993Y3715010D02*
X5055006D01*
X5035013Y3745000D02*
X5005023Y3715010D01*
X5035013Y3685019D01*
X5094993Y4535010D02*
X5055006D01*
X5035013Y4565000D02*
X5005023Y4535010D01*
X5035013Y4505019D01*
X5015019Y3795000D02*
X5075000D01*
X5045010D01*
Y3834987D01*
X5015019D01*
X5075000D01*
Y3854981D02*
Y3874974D01*
Y3864977D01*
X5035013D01*
Y3854981D01*
X5094993Y3924958D02*
Y3934955D01*
X5084997Y3944952D01*
X5035013D01*
Y3914961D01*
X5045010Y3904964D01*
X5065003D01*
X5075000Y3914961D01*
Y3944952D01*
X5015019Y3964945D02*
X5075000D01*
X5045010D01*
X5035013Y3974942D01*
Y3994935D01*
X5045010Y4004932D01*
X5075000D01*
X5015019Y4084906D02*
X5055007D01*
X5075000Y4104900D01*
X5055007Y4124893D01*
X5015019D01*
X5075000Y4154884D02*
Y4174877D01*
X5065003Y4184874D01*
X5045010D01*
X5035013Y4174877D01*
Y4154884D01*
X5045010Y4144887D01*
X5065003D01*
X5075000Y4154884D01*
Y4204867D02*
Y4224861D01*
Y4214864D01*
X5015019D01*
Y4204867D01*
X5025016Y4264848D02*
X5035013D01*
Y4254851D01*
Y4274845D01*
Y4264848D01*
X5065003D01*
X5075000Y4274845D01*
X5035013Y4314832D02*
Y4334825D01*
X5045010Y4344822D01*
X5075000D01*
Y4314832D01*
X5065003Y4304835D01*
X5055007Y4314832D01*
Y4344822D01*
X5094993Y4384809D02*
Y4394806D01*
X5084997Y4404803D01*
X5035013D01*
Y4374812D01*
X5045010Y4364816D01*
X5065003D01*
X5075000Y4374812D01*
Y4404803D01*
Y4454787D02*
Y4434793D01*
X5065003Y4424796D01*
X5045010D01*
X5035013Y4434793D01*
Y4454787D01*
X5045010Y4464783D01*
X5055007D01*
Y4424796D01*
X8175000Y2765000D02*
Y2824981D01*
X8204990D01*
X8214987Y2814984D01*
Y2794990D01*
X8204990Y2784994D01*
X8175000D01*
X8194994D02*
X8214987Y2765000D01*
X8274968Y2824981D02*
X8254974Y2814984D01*
X8234981Y2794990D01*
Y2774997D01*
X8244977Y2765000D01*
X8264971D01*
X8274968Y2774997D01*
Y2784994D01*
X8264971Y2794990D01*
X8234981D01*
X8405000Y2839981D02*
Y2780000D01*
X8434990D01*
X8444987Y2789997D01*
Y2829984D01*
X8434990Y2839981D01*
X8405000D01*
X8504968Y2780000D02*
X8464981D01*
X8504968Y2819987D01*
Y2829984D01*
X8494971Y2839981D01*
X8474977D01*
X8464981Y2829984D01*
X3696000Y3748981D02*
Y3698997D01*
X3705997Y3689000D01*
X3725990D01*
X3735987Y3698997D01*
Y3748981D01*
X3755981Y3689000D02*
X3775974D01*
X3765977D01*
Y3748981D01*
X3755981Y3738984D01*
X4451500Y4624500D02*
Y4684481D01*
X4481490D01*
X4491487Y4674484D01*
Y4654490D01*
X4481490Y4644493D01*
X4451500D01*
X4551468Y4684481D02*
X4511481D01*
Y4654490D01*
X4531474Y4664487D01*
X4541471D01*
X4551468Y4654490D01*
Y4634497D01*
X4541471Y4624500D01*
X4521477D01*
X4511481Y4634497D01*
X6595099Y3245013D02*
Y3285000D01*
X6565108D01*
Y3265006D01*
Y3285000D01*
X6535118D01*
Y3185032D02*
Y3225019D01*
X6575105Y3185032D01*
X6585102D01*
X6595099Y3195029D01*
Y3215023D01*
X6585102Y3225019D01*
X6594981Y3685013D02*
Y3725000D01*
X6564990D01*
Y3705006D01*
Y3725000D01*
X6535000D01*
X6584984Y3665019D02*
X6594981Y3655023D01*
Y3635029D01*
X6584984Y3625032D01*
X6574987D01*
X6564990Y3635029D01*
Y3645026D01*
Y3635029D01*
X6554993Y3625032D01*
X6544997D01*
X6535000Y3635029D01*
Y3655023D01*
X6544997Y3665019D01*
X7725000Y4145000D02*
Y4204981D01*
X7754990D01*
X7764987Y4194984D01*
Y4174990D01*
X7754990Y4164993D01*
X7725000D01*
X7744993D02*
X7764987Y4145000D01*
X7824968Y4204981D02*
X7784981D01*
Y4174990D01*
X7804974Y4184987D01*
X7814971D01*
X7824968Y4174990D01*
Y4154997D01*
X7814971Y4145000D01*
X7794977D01*
X7784981Y4154997D01*
X8135000Y4156425D02*
Y4216406D01*
X8164990D01*
X8174987Y4206409D01*
Y4186416D01*
X8164990Y4176419D01*
X8135000D01*
X8154993D02*
X8174987Y4156425D01*
X8224971D02*
Y4216406D01*
X8194981Y4186416D01*
X8234968D01*
X3470000Y3012126D02*
Y3072107D01*
X3499990D01*
X3509987Y3062110D01*
Y3042116D01*
X3499990Y3032119D01*
X3470000D01*
X3489994D02*
X3509987Y3012126D01*
X3529981Y3062110D02*
X3539977Y3072107D01*
X3559971D01*
X3569968Y3062110D01*
Y3052113D01*
X3559971Y3042116D01*
X3549974D01*
X3559971D01*
X3569968Y3032119D01*
Y3022123D01*
X3559971Y3012126D01*
X3539977D01*
X3529981Y3022123D01*
X3205000Y3013701D02*
Y3073681D01*
X3234990D01*
X3244987Y3063685D01*
Y3043691D01*
X3234990Y3033694D01*
X3205000D01*
X3224994D02*
X3244987Y3013701D01*
X3304968D02*
X3264981D01*
X3304968Y3053688D01*
Y3063685D01*
X3294971Y3073681D01*
X3274977D01*
X3264981Y3063685D01*
X3335000Y3017126D02*
Y3077107D01*
X3364990D01*
X3374987Y3067110D01*
Y3047116D01*
X3364990Y3037119D01*
X3335000D01*
X3354994D02*
X3374987Y3017126D01*
X3394981D02*
X3414974D01*
X3404977D01*
Y3077107D01*
X3394981Y3067110D01*
X7904987Y4140666D02*
Y4180653D01*
X7894990Y4190650D01*
X7874997D01*
X7865000Y4180653D01*
Y4140666D01*
X7874997Y4130669D01*
X7894990D01*
X7884993Y4150663D02*
X7904987Y4130669D01*
X7894990D02*
X7904987Y4140666D01*
X7924981Y4130669D02*
X7944974D01*
X7934977D01*
Y4190650D01*
X7924981Y4180653D01*
X8305000Y4070000D02*
Y4129981D01*
X8334990D01*
X8344987Y4119984D01*
Y4099990D01*
X8334990Y4089994D01*
X8305000D01*
X8394971Y4070000D02*
Y4129981D01*
X8364981Y4099990D01*
X8404968D01*
X7420000Y4515000D02*
Y4574981D01*
X7449990D01*
X7459987Y4564984D01*
Y4544990D01*
X7449990Y4534993D01*
X7420000D01*
X7479981Y4564984D02*
X7489977Y4574981D01*
X7509971D01*
X7519968Y4564984D01*
Y4554987D01*
X7509971Y4544990D01*
X7499974D01*
X7509971D01*
X7519968Y4534993D01*
Y4524997D01*
X7509971Y4515000D01*
X7489977D01*
X7479981Y4524997D01*
X7567850Y2664000D02*
Y2723981D01*
X7597841D01*
X7607837Y2713984D01*
Y2693990D01*
X7597841Y2683994D01*
X7567850D01*
X7667818Y2664000D02*
X7627831D01*
X7667818Y2703987D01*
Y2713984D01*
X7657821Y2723981D01*
X7637828D01*
X7627831Y2713984D01*
X3574650Y4624500D02*
Y4684481D01*
X3604640D01*
X3614637Y4674484D01*
Y4654490D01*
X3604640Y4644493D01*
X3574650D01*
X3634630Y4624500D02*
X3654624D01*
X3644627D01*
Y4684481D01*
X3634630Y4674484D01*
X3479981Y2800000D02*
X3420000D01*
Y2770010D01*
X3429997Y2760013D01*
X3469984D01*
X3479981Y2770010D01*
Y2800000D01*
X3420000Y2740019D02*
Y2720026D01*
Y2730023D01*
X3479981D01*
X3469984Y2740019D01*
X7609987Y4194984D02*
X7599990Y4204981D01*
X7579997D01*
X7570000Y4194984D01*
Y4154997D01*
X7579997Y4145000D01*
X7599990D01*
X7609987Y4154997D01*
X7669968Y4204981D02*
X7629981D01*
Y4174990D01*
X7649974Y4184987D01*
X7659971D01*
X7669968Y4174990D01*
Y4154997D01*
X7659971Y4145000D01*
X7639977D01*
X7629981Y4154997D01*
X4445987Y4098984D02*
X4435990Y4108981D01*
X4415997D01*
X4406000Y4098984D01*
Y4058997D01*
X4415997Y4049000D01*
X4435990D01*
X4445987Y4058997D01*
X4495971Y4049000D02*
Y4108981D01*
X4465981Y4078990D01*
X4505968D01*
X7623412Y3824984D02*
X7613416Y3834981D01*
X7593422D01*
X7583425Y3824984D01*
Y3784997D01*
X7593422Y3775000D01*
X7613416D01*
X7623412Y3784997D01*
X7643406Y3824984D02*
X7653403Y3834981D01*
X7673396D01*
X7683393Y3824984D01*
Y3814987D01*
X7673396Y3804990D01*
X7663399D01*
X7673396D01*
X7683393Y3794994D01*
Y3784997D01*
X7673396Y3775000D01*
X7653403D01*
X7643406Y3784997D01*
X7475016Y3004987D02*
X7465019Y2994990D01*
Y2974997D01*
X7475016Y2965000D01*
X7515003D01*
X7525000Y2974997D01*
Y2994990D01*
X7515003Y3004987D01*
X7525000Y3064968D02*
Y3024981D01*
X7485013Y3064968D01*
X7475016D01*
X7465019Y3054971D01*
Y3034977D01*
X7475016Y3024981D01*
X7829987Y2999984D02*
X7819990Y3009981D01*
X7799997D01*
X7790000Y2999984D01*
Y2959997D01*
X7799997Y2950000D01*
X7819990D01*
X7829987Y2959997D01*
X7849981Y2950000D02*
X7869974D01*
X7859977D01*
Y3009981D01*
X7849981Y2999984D01*
%TF.MD5,ac0a1285d60494a00ac203dcd76cd9c4*%
M02*
