%TF.GenerationSoftware,Altium Limited,Altium Designer,18.0.11 (651)*%
G04 Layer_Color=16711935*
%FSLAX26Y26*%
%MOIN*%
%TF.FileFunction,Soldermask,Bot*%
%TF.Part,Single*%
G01*
G75*
%TA.AperFunction,ComponentPad*%
%ADD33C,0.055244*%
%ADD34C,0.107606*%
%ADD35C,0.087921*%
%ADD36C,0.088000*%
%ADD37C,0.126110*%
%ADD38R,0.126110X0.126110*%
%ADD39R,0.126110X0.126110*%
%TA.AperFunction,WasherPad*%
%ADD40C,0.068000*%
D33*
X3995000Y3930000D02*
D03*
X3795000D02*
D03*
X4475000Y3940000D02*
D03*
X4775000D02*
D03*
D34*
X5587992Y2880197D02*
D03*
Y3096732D02*
D03*
Y3529803D02*
D03*
Y3313268D02*
D03*
X3762008Y3519961D02*
D03*
Y2890039D02*
D03*
D35*
Y3042402D02*
D03*
Y3259331D02*
D03*
Y3150669D02*
D03*
D36*
X6475118Y2500000D02*
D03*
X7420000D02*
D03*
X7183779Y3208661D02*
D03*
X6711339D02*
D03*
X7202110Y3675000D02*
D03*
X6729669D02*
D03*
X6493449Y4383661D02*
D03*
X7438331D02*
D03*
D37*
X7870000Y4425000D02*
D03*
X8066850D02*
D03*
X7673150D02*
D03*
X8475000Y3348150D02*
D03*
Y3151299D02*
D03*
Y3545000D02*
D03*
Y3741850D02*
D03*
Y3938701D02*
D03*
X4741850Y4420000D02*
D03*
X3865000D02*
D03*
X7678150Y2455000D02*
D03*
X8071850D02*
D03*
X7875000D02*
D03*
D38*
X8263701Y4425000D02*
D03*
X4545000Y4420000D02*
D03*
X3668150D02*
D03*
X8268701Y2455000D02*
D03*
D39*
X8475000Y2954449D02*
D03*
D40*
X8484961Y2446850D02*
D03*
X6250709D02*
D03*
X3366850D02*
D03*
X8484961Y4368662D02*
D03*
X6250709Y4415354D02*
D03*
X3366850D02*
D03*
%TF.MD5,9cd61699686bf5aa73007c9e3ed4b6ed*%
M02*
