%TF.GenerationSoftware,Altium Limited,Altium Designer,18.0.9 (584)*%
G04 Layer_Color=255*
%FSLAX26Y26*%
%MOIN*%
%TF.FileFunction,Pads,Bot*%
%TF.Part,Single*%
G01*
G75*
%TA.AperFunction,WasherPad*%
%ADD37C,0.113000*%
%TA.AperFunction,ComponentPad*%
%ADD38C,0.078740*%
%ADD39R,0.078740X0.078740*%
%ADD40R,0.059055X0.059055*%
%ADD41C,0.059055*%
%ADD42C,0.118110*%
%ADD43R,0.118110X0.118110*%
%ADD44C,0.053150*%
%ADD45R,0.053150X0.053150*%
%ADD46R,0.059055X0.059055*%
%ADD47R,0.118110X0.118110*%
%ADD48R,0.068898X0.068898*%
%ADD49C,0.068898*%
D37*
X2225000Y1320000D02*
D03*
X1250000Y5030000D02*
D03*
X8130000Y5035000D02*
D03*
X8080000Y1335000D02*
D03*
D38*
X4527520Y3800000D02*
D03*
Y3700000D02*
D03*
X5236181Y3800000D02*
D03*
Y3700000D02*
D03*
D39*
X4527520Y3268504D02*
D03*
Y3368504D02*
D03*
X5236181D02*
D03*
Y3268504D02*
D03*
D40*
X6332520Y1725000D02*
D03*
X5452520Y3105000D02*
D03*
X6629370Y3945000D02*
D03*
D41*
X6332520Y1625000D02*
D03*
X6632520Y1725000D02*
D03*
Y1625000D02*
D03*
X5452520Y3005000D02*
D03*
Y2905000D02*
D03*
Y2805000D02*
D03*
Y2705000D02*
D03*
Y2605000D02*
D03*
Y2505000D02*
D03*
Y2405000D02*
D03*
Y2305000D02*
D03*
Y2205000D02*
D03*
Y2105000D02*
D03*
Y2005000D02*
D03*
Y1905000D02*
D03*
Y1805000D02*
D03*
Y1705000D02*
D03*
X6052520Y3105000D02*
D03*
Y3005000D02*
D03*
Y2905000D02*
D03*
Y2805000D02*
D03*
Y2705000D02*
D03*
Y2605000D02*
D03*
Y2505000D02*
D03*
Y2405000D02*
D03*
Y2305000D02*
D03*
Y2205000D02*
D03*
Y2105000D02*
D03*
Y2005000D02*
D03*
Y1905000D02*
D03*
Y1805000D02*
D03*
Y1705000D02*
D03*
X6729370Y2845000D02*
D03*
Y2945000D02*
D03*
Y3045000D02*
D03*
Y3145000D02*
D03*
Y3245000D02*
D03*
Y3345000D02*
D03*
Y3445000D02*
D03*
Y3545000D02*
D03*
Y3645000D02*
D03*
Y3745000D02*
D03*
Y3845000D02*
D03*
Y3945000D02*
D03*
X6629370Y2845000D02*
D03*
Y2945000D02*
D03*
Y3045000D02*
D03*
Y3145000D02*
D03*
Y3245000D02*
D03*
Y3345000D02*
D03*
Y3445000D02*
D03*
Y3545000D02*
D03*
Y3645000D02*
D03*
Y3745000D02*
D03*
Y3845000D02*
D03*
X6637520Y2320000D02*
D03*
D42*
X1295630Y2363150D02*
D03*
Y2810000D02*
D03*
Y3275000D02*
D03*
Y3718150D02*
D03*
X1300630Y4168150D02*
D03*
Y4610000D02*
D03*
X1295630Y1440000D02*
D03*
Y1893150D02*
D03*
X2695000Y1941299D02*
D03*
Y2138150D02*
D03*
Y2658150D02*
D03*
Y2855000D02*
D03*
Y3375000D02*
D03*
Y3571850D02*
D03*
X4037520Y3440000D02*
D03*
X4147520Y1968150D02*
D03*
X6867520Y1928150D02*
D03*
Y2125000D02*
D03*
X4907480Y4730000D02*
D03*
X4710630D02*
D03*
X3635630D02*
D03*
X3438780D02*
D03*
X4272480D02*
D03*
X4075630D02*
D03*
X6812480D02*
D03*
X6615630D02*
D03*
X6182480D02*
D03*
X5985630D02*
D03*
X5547480D02*
D03*
X5350630D02*
D03*
X8092480D02*
D03*
X7895630D02*
D03*
X7452480D02*
D03*
X7255630D02*
D03*
D43*
X1295630Y2560000D02*
D03*
Y3006850D02*
D03*
Y3471850D02*
D03*
Y3915000D02*
D03*
X1300630Y4365000D02*
D03*
Y4806850D02*
D03*
X1295630Y1636850D02*
D03*
Y2090000D02*
D03*
X2695000Y2335000D02*
D03*
Y3051850D02*
D03*
Y3768701D02*
D03*
X4037520Y3636850D02*
D03*
X4147520Y2165000D02*
D03*
X6867520Y2321850D02*
D03*
D44*
X4322520Y3441575D02*
D03*
X4427520Y2163425D02*
D03*
D45*
X4322520Y3638425D02*
D03*
X4427520Y1966575D02*
D03*
D46*
X6637520Y2220000D02*
D03*
D47*
X4513779Y4730000D02*
D03*
X3241929D02*
D03*
X3878780D02*
D03*
X6418779D02*
D03*
X5788779D02*
D03*
X5153779D02*
D03*
X7698779D02*
D03*
X7058779D02*
D03*
D48*
X4730000Y4414370D02*
D03*
X3450000Y4404370D02*
D03*
X4095000Y4414370D02*
D03*
X6630000Y4424370D02*
D03*
X6005000Y4419370D02*
D03*
X5375000Y4414370D02*
D03*
X7905000Y4419370D02*
D03*
X7265000D02*
D03*
D49*
X4830000Y4414370D02*
D03*
X4930000D02*
D03*
X3550000Y4404370D02*
D03*
X3650000D02*
D03*
X4195000Y4414370D02*
D03*
X4295000D02*
D03*
X6730000Y4424370D02*
D03*
X6830000D02*
D03*
X6105000Y4419370D02*
D03*
X6205000D02*
D03*
X5475000Y4414370D02*
D03*
X5575000D02*
D03*
X8005000Y4419370D02*
D03*
X8105000D02*
D03*
X7365000D02*
D03*
X7465000D02*
D03*
%TF.MD5,9752a4cc371dbeead5549f16f6d795bb*%
M02*
