%TF.GenerationSoftware,Altium Limited,Altium Designer,18.0.9 (584)*%
G04 Layer_Color=255*
%FSLAX26Y26*%
%MOIN*%
%TF.FileFunction,Pads,Top*%
%TF.Part,Single*%
G01*
G75*
%TA.AperFunction,SMDPad,CuDef*%
%ADD10R,0.059055X0.078740*%
%ADD11R,0.024803X0.059055*%
%ADD12R,0.055118X0.059055*%
%ADD13R,0.059055X0.059055*%
%ADD14R,0.059055X0.055118*%
%ADD15R,0.043307X0.066929*%
%ADD16R,0.066929X0.043307*%
%ADD17O,0.086614X0.023622*%
%ADD18R,0.078740X0.023622*%
%ADD19O,0.078740X0.023622*%
%ADD20R,0.045276X0.023622*%
%ADD21R,0.150000X0.110000*%
%ADD22R,0.118110X0.059055*%
%ADD23R,0.059055X0.059055*%
%ADD24O,0.074803X0.023622*%
%TA.AperFunction,WasherPad*%
%ADD37C,0.113000*%
%TA.AperFunction,ComponentPad*%
%ADD38C,0.078740*%
%ADD39R,0.078740X0.078740*%
%ADD40R,0.059055X0.059055*%
%ADD41C,0.059055*%
%ADD42C,0.118110*%
%ADD43R,0.118110X0.118110*%
%ADD44C,0.053150*%
%ADD45R,0.053150X0.053150*%
%ADD46R,0.059055X0.059055*%
%ADD47R,0.118110X0.118110*%
%ADD48R,0.068898X0.068898*%
%ADD49C,0.068898*%
D10*
X5189370Y1858228D02*
D03*
Y2185000D02*
D03*
X4648032D02*
D03*
Y1858228D02*
D03*
D11*
X5001575Y1960591D02*
D03*
X4871654D02*
D03*
X4828346D02*
D03*
X4741732D02*
D03*
X4785039D02*
D03*
X4914961D02*
D03*
X4958268D02*
D03*
X5044882D02*
D03*
D12*
X3524370Y2770000D02*
D03*
X3445630D02*
D03*
X4998740Y1660000D02*
D03*
X4920000D02*
D03*
X2195000Y1535000D02*
D03*
X2116260D02*
D03*
X2185000Y1990000D02*
D03*
X2106260D02*
D03*
X2195000Y2440000D02*
D03*
X2116260D02*
D03*
X2190000Y2915000D02*
D03*
X2111260D02*
D03*
X1800630Y1535000D02*
D03*
X1879370D02*
D03*
X1795630Y1995000D02*
D03*
X1874370D02*
D03*
X1785630Y2450000D02*
D03*
X1864370D02*
D03*
X1796260Y2920000D02*
D03*
X1875000D02*
D03*
X2974370Y4335000D02*
D03*
X2895630D02*
D03*
X2195000Y3370000D02*
D03*
X2116260D02*
D03*
X2195630Y3825000D02*
D03*
X2116890D02*
D03*
X2200630Y4270000D02*
D03*
X2121890D02*
D03*
X2205630Y4725000D02*
D03*
X2126890D02*
D03*
X1796890Y3380000D02*
D03*
X1875630D02*
D03*
X1801890Y3830000D02*
D03*
X1880630D02*
D03*
X1801890Y4275000D02*
D03*
X1880630D02*
D03*
X1811890Y4730000D02*
D03*
X1890630D02*
D03*
X3539370Y2045000D02*
D03*
X3460630D02*
D03*
X3524370Y2875000D02*
D03*
X3445630D02*
D03*
X3510000Y3470000D02*
D03*
X3431260D02*
D03*
X3460630Y2160000D02*
D03*
X3539370D02*
D03*
X3431260Y3585000D02*
D03*
X3510000D02*
D03*
X6296890Y2610000D02*
D03*
X6218150D02*
D03*
X6296890Y2505000D02*
D03*
X6218150D02*
D03*
X6455000Y3145000D02*
D03*
X6533740D02*
D03*
X6455000Y3040000D02*
D03*
X6533740D02*
D03*
X6455000Y2935000D02*
D03*
X6533740D02*
D03*
X6455000Y2830000D02*
D03*
X6533740D02*
D03*
X4794370Y3125000D02*
D03*
X4715630D02*
D03*
X4793740Y3020000D02*
D03*
X4715000D02*
D03*
X4793740Y2915000D02*
D03*
X4715000D02*
D03*
D13*
X2001260Y4131102D02*
D03*
Y4268898D02*
D03*
X1995630Y1396102D02*
D03*
Y1533898D02*
D03*
X1996260Y3368898D02*
D03*
Y3231102D02*
D03*
X2001260Y3823898D02*
D03*
Y3686102D02*
D03*
X2016260Y4723898D02*
D03*
Y4586102D02*
D03*
X1990630Y1993898D02*
D03*
Y1856102D02*
D03*
X1995630Y2443898D02*
D03*
Y2306102D02*
D03*
Y2913898D02*
D03*
Y2776102D02*
D03*
D14*
X6514370Y3884370D02*
D03*
Y3805630D02*
D03*
X6237520Y1725630D02*
D03*
Y1804370D02*
D03*
X7900000Y4190000D02*
D03*
Y4268740D02*
D03*
X8005000Y4268110D02*
D03*
Y4189370D02*
D03*
X7260000Y4185000D02*
D03*
Y4263740D02*
D03*
X7365000D02*
D03*
Y4185000D02*
D03*
X6625000Y4190000D02*
D03*
Y4268740D02*
D03*
X6730000D02*
D03*
Y4190000D02*
D03*
X6000000D02*
D03*
Y4268740D02*
D03*
X6105000D02*
D03*
Y4190000D02*
D03*
X5370000Y4180000D02*
D03*
Y4258740D02*
D03*
X5475000D02*
D03*
Y4180000D02*
D03*
X4830000Y4253740D02*
D03*
Y4175000D02*
D03*
X4725000D02*
D03*
Y4253740D02*
D03*
X4090000Y4175000D02*
D03*
Y4253740D02*
D03*
X4195000D02*
D03*
Y4175000D02*
D03*
X3555000Y4253740D02*
D03*
Y4175000D02*
D03*
X3450000D02*
D03*
Y4253740D02*
D03*
X7965000Y2455000D02*
D03*
Y2533740D02*
D03*
X7955000Y3485000D02*
D03*
Y3563740D02*
D03*
X2646260Y4849370D02*
D03*
Y4770630D02*
D03*
X2645000Y4669370D02*
D03*
Y4590630D02*
D03*
X2541260Y4669370D02*
D03*
Y4590630D02*
D03*
Y4850000D02*
D03*
Y4771260D02*
D03*
X2436260Y4849370D02*
D03*
Y4770630D02*
D03*
Y4669370D02*
D03*
Y4590630D02*
D03*
X2960000Y2970630D02*
D03*
Y3049370D02*
D03*
X2970000Y2255630D02*
D03*
Y2334370D02*
D03*
X2945000Y3690000D02*
D03*
Y3768740D02*
D03*
X5262520Y2949370D02*
D03*
Y2870630D02*
D03*
Y3050630D02*
D03*
Y3129370D02*
D03*
X6237520Y1624370D02*
D03*
Y1545630D02*
D03*
X6637520Y2113740D02*
D03*
Y2035000D02*
D03*
X4410630Y4415000D02*
D03*
Y4493740D02*
D03*
X3135630Y4415630D02*
D03*
Y4494370D02*
D03*
X3775630Y4414370D02*
D03*
Y4493110D02*
D03*
X4515630Y4415000D02*
D03*
Y4493740D02*
D03*
X3240630Y4416260D02*
D03*
Y4495000D02*
D03*
X3880630Y4415000D02*
D03*
Y4493740D02*
D03*
X4620630Y4414370D02*
D03*
Y4493110D02*
D03*
X3345630Y4415630D02*
D03*
Y4494370D02*
D03*
X3985630Y4415000D02*
D03*
Y4493740D02*
D03*
X6315630Y4415000D02*
D03*
Y4493740D02*
D03*
X5690630Y4415000D02*
D03*
Y4493740D02*
D03*
X5050630Y4415000D02*
D03*
Y4493740D02*
D03*
X6420630Y4415630D02*
D03*
Y4494370D02*
D03*
X5795630Y4415630D02*
D03*
Y4494370D02*
D03*
X5155630Y4415630D02*
D03*
Y4494370D02*
D03*
X6525630Y4415000D02*
D03*
Y4493740D02*
D03*
X5900630Y4415000D02*
D03*
Y4493740D02*
D03*
X5260630Y4415000D02*
D03*
Y4493740D02*
D03*
X7595630Y4415000D02*
D03*
Y4493740D02*
D03*
X6950630Y4415000D02*
D03*
Y4493740D02*
D03*
X7700630Y4415000D02*
D03*
Y4493740D02*
D03*
X7055630Y4415000D02*
D03*
Y4493740D02*
D03*
X7805630Y4415000D02*
D03*
Y4493740D02*
D03*
X7160630Y4415000D02*
D03*
Y4493740D02*
D03*
X7425000Y2670000D02*
D03*
Y2748740D02*
D03*
Y2850000D02*
D03*
Y2928740D02*
D03*
X7530000Y2670630D02*
D03*
Y2749370D02*
D03*
Y2850000D02*
D03*
Y2928740D02*
D03*
X7635000Y2670630D02*
D03*
Y2749370D02*
D03*
Y2850000D02*
D03*
Y2928740D02*
D03*
X7430000Y3690000D02*
D03*
Y3768740D02*
D03*
Y3870000D02*
D03*
Y3948740D02*
D03*
X7535000Y3690000D02*
D03*
Y3768740D02*
D03*
Y3870000D02*
D03*
Y3948740D02*
D03*
X7640000Y3690000D02*
D03*
Y3768740D02*
D03*
Y3870000D02*
D03*
Y3948740D02*
D03*
D15*
X4731221Y1665000D02*
D03*
X4837520D02*
D03*
D16*
X6209370Y3001850D02*
D03*
Y3108150D02*
D03*
X6214370Y2116850D02*
D03*
Y2223150D02*
D03*
X7870000Y2561850D02*
D03*
Y2668150D02*
D03*
X7860000Y3596220D02*
D03*
Y3702520D02*
D03*
D17*
X5112008Y2965000D02*
D03*
Y3015000D02*
D03*
Y3065000D02*
D03*
Y3115000D02*
D03*
X4923032Y2965000D02*
D03*
Y3015000D02*
D03*
Y3065000D02*
D03*
Y3115000D02*
D03*
D18*
X7400000Y3584370D02*
D03*
X7410000Y2554370D02*
D03*
X2361260Y4495630D02*
D03*
D19*
X7400000Y3534370D02*
D03*
Y3484370D02*
D03*
Y3434370D02*
D03*
Y3384370D02*
D03*
Y3334370D02*
D03*
Y3284370D02*
D03*
Y3234370D02*
D03*
X7766142Y3584370D02*
D03*
Y3534370D02*
D03*
Y3484370D02*
D03*
Y3434370D02*
D03*
Y3384370D02*
D03*
Y3334370D02*
D03*
Y3284370D02*
D03*
Y3234370D02*
D03*
X7410000Y2504370D02*
D03*
Y2454370D02*
D03*
Y2404370D02*
D03*
Y2354370D02*
D03*
Y2304370D02*
D03*
Y2254370D02*
D03*
Y2204370D02*
D03*
X7776142Y2554370D02*
D03*
Y2504370D02*
D03*
Y2454370D02*
D03*
Y2404370D02*
D03*
Y2354370D02*
D03*
Y2304370D02*
D03*
Y2254370D02*
D03*
Y2204370D02*
D03*
X2361260Y4445630D02*
D03*
Y4395630D02*
D03*
Y4345630D02*
D03*
Y4295630D02*
D03*
Y4245630D02*
D03*
Y4195630D02*
D03*
Y4145630D02*
D03*
X2727401Y4495630D02*
D03*
Y4445630D02*
D03*
Y4395630D02*
D03*
Y4345630D02*
D03*
Y4295630D02*
D03*
Y4245630D02*
D03*
Y4195630D02*
D03*
Y4145630D02*
D03*
D20*
X1879921Y1405000D02*
D03*
X1791339Y1367599D02*
D03*
Y1442402D02*
D03*
X1874921Y1860000D02*
D03*
X1786339Y1822599D02*
D03*
Y1897402D02*
D03*
X1869921Y2315000D02*
D03*
X1781339Y2277599D02*
D03*
Y2352402D02*
D03*
X1874921Y2785000D02*
D03*
X1786339Y2747599D02*
D03*
Y2822402D02*
D03*
X1879921Y3245000D02*
D03*
X1791339Y3207599D02*
D03*
Y3282402D02*
D03*
X1884921Y3695000D02*
D03*
X1796339Y3657599D02*
D03*
Y3732402D02*
D03*
X1889921Y4145000D02*
D03*
X1801339Y4107599D02*
D03*
Y4182402D02*
D03*
X1899921Y4595000D02*
D03*
X1811339Y4557599D02*
D03*
Y4632402D02*
D03*
D21*
X1615630Y1365000D02*
D03*
Y1665000D02*
D03*
Y1825000D02*
D03*
Y2125000D02*
D03*
Y2280000D02*
D03*
Y2580000D02*
D03*
Y2745000D02*
D03*
Y3045000D02*
D03*
Y3210000D02*
D03*
Y3510000D02*
D03*
Y3660000D02*
D03*
Y3960000D02*
D03*
Y4110000D02*
D03*
Y4410000D02*
D03*
Y4560000D02*
D03*
Y4860000D02*
D03*
D22*
X2960000Y2876575D02*
D03*
Y2778150D02*
D03*
X3314331Y2876575D02*
D03*
Y2778150D02*
D03*
X2970000Y2150000D02*
D03*
Y2051575D02*
D03*
X3324331Y2150000D02*
D03*
Y2051575D02*
D03*
X2945669Y3583425D02*
D03*
Y3485000D02*
D03*
X3300000Y3583425D02*
D03*
Y3485000D02*
D03*
D23*
X3810000Y2160000D02*
D03*
X3672205D02*
D03*
X3805000Y2875000D02*
D03*
X3667205D02*
D03*
X3780000Y3585000D02*
D03*
X3642205D02*
D03*
X6403622Y2615000D02*
D03*
X6541417D02*
D03*
X6403622Y2505000D02*
D03*
X6541417D02*
D03*
D24*
X6335000Y2240000D02*
D03*
Y2190000D02*
D03*
Y2140000D02*
D03*
Y2090000D02*
D03*
X6520039Y2240000D02*
D03*
Y2190000D02*
D03*
Y2140000D02*
D03*
Y2090000D02*
D03*
D37*
X2225000Y1320000D02*
D03*
X1250000Y5030000D02*
D03*
X8130000Y5035000D02*
D03*
X8080000Y1335000D02*
D03*
D38*
X4527520Y3800000D02*
D03*
Y3700000D02*
D03*
X5236181Y3800000D02*
D03*
Y3700000D02*
D03*
D39*
X4527520Y3268504D02*
D03*
Y3368504D02*
D03*
X5236181D02*
D03*
Y3268504D02*
D03*
D40*
X6332520Y1725000D02*
D03*
X5452520Y3105000D02*
D03*
X6629370Y3945000D02*
D03*
D41*
X6332520Y1625000D02*
D03*
X6632520Y1725000D02*
D03*
Y1625000D02*
D03*
X5452520Y3005000D02*
D03*
Y2905000D02*
D03*
Y2805000D02*
D03*
Y2705000D02*
D03*
Y2605000D02*
D03*
Y2505000D02*
D03*
Y2405000D02*
D03*
Y2305000D02*
D03*
Y2205000D02*
D03*
Y2105000D02*
D03*
Y2005000D02*
D03*
Y1905000D02*
D03*
Y1805000D02*
D03*
Y1705000D02*
D03*
X6052520Y3105000D02*
D03*
Y3005000D02*
D03*
Y2905000D02*
D03*
Y2805000D02*
D03*
Y2705000D02*
D03*
Y2605000D02*
D03*
Y2505000D02*
D03*
Y2405000D02*
D03*
Y2305000D02*
D03*
Y2205000D02*
D03*
Y2105000D02*
D03*
Y2005000D02*
D03*
Y1905000D02*
D03*
Y1805000D02*
D03*
Y1705000D02*
D03*
X6729370Y2845000D02*
D03*
Y2945000D02*
D03*
Y3045000D02*
D03*
Y3145000D02*
D03*
Y3245000D02*
D03*
Y3345000D02*
D03*
Y3445000D02*
D03*
Y3545000D02*
D03*
Y3645000D02*
D03*
Y3745000D02*
D03*
Y3845000D02*
D03*
Y3945000D02*
D03*
X6629370Y2845000D02*
D03*
Y2945000D02*
D03*
Y3045000D02*
D03*
Y3145000D02*
D03*
Y3245000D02*
D03*
Y3345000D02*
D03*
Y3445000D02*
D03*
Y3545000D02*
D03*
Y3645000D02*
D03*
Y3745000D02*
D03*
Y3845000D02*
D03*
X6637520Y2320000D02*
D03*
D42*
X1295630Y2363150D02*
D03*
Y2810000D02*
D03*
Y3275000D02*
D03*
Y3718150D02*
D03*
X1300630Y4168150D02*
D03*
Y4610000D02*
D03*
X1295630Y1440000D02*
D03*
Y1893150D02*
D03*
X2695000Y1941299D02*
D03*
Y2138150D02*
D03*
Y2658150D02*
D03*
Y2855000D02*
D03*
Y3375000D02*
D03*
Y3571850D02*
D03*
X4037520Y3440000D02*
D03*
X4147520Y1968150D02*
D03*
X6867520Y1928150D02*
D03*
Y2125000D02*
D03*
X4907480Y4730000D02*
D03*
X4710630D02*
D03*
X3635630D02*
D03*
X3438780D02*
D03*
X4272480D02*
D03*
X4075630D02*
D03*
X6812480D02*
D03*
X6615630D02*
D03*
X6182480D02*
D03*
X5985630D02*
D03*
X5547480D02*
D03*
X5350630D02*
D03*
X8092480D02*
D03*
X7895630D02*
D03*
X7452480D02*
D03*
X7255630D02*
D03*
D43*
X1295630Y2560000D02*
D03*
Y3006850D02*
D03*
Y3471850D02*
D03*
Y3915000D02*
D03*
X1300630Y4365000D02*
D03*
Y4806850D02*
D03*
X1295630Y1636850D02*
D03*
Y2090000D02*
D03*
X2695000Y2335000D02*
D03*
Y3051850D02*
D03*
Y3768701D02*
D03*
X4037520Y3636850D02*
D03*
X4147520Y2165000D02*
D03*
X6867520Y2321850D02*
D03*
D44*
X4322520Y3441575D02*
D03*
X4427520Y2163425D02*
D03*
D45*
X4322520Y3638425D02*
D03*
X4427520Y1966575D02*
D03*
D46*
X6637520Y2220000D02*
D03*
D47*
X4513779Y4730000D02*
D03*
X3241929D02*
D03*
X3878780D02*
D03*
X6418779D02*
D03*
X5788779D02*
D03*
X5153779D02*
D03*
X7698779D02*
D03*
X7058779D02*
D03*
D48*
X4730000Y4414370D02*
D03*
X3450000Y4404370D02*
D03*
X4095000Y4414370D02*
D03*
X6630000Y4424370D02*
D03*
X6005000Y4419370D02*
D03*
X5375000Y4414370D02*
D03*
X7905000Y4419370D02*
D03*
X7265000D02*
D03*
D49*
X4830000Y4414370D02*
D03*
X4930000D02*
D03*
X3550000Y4404370D02*
D03*
X3650000D02*
D03*
X4195000Y4414370D02*
D03*
X4295000D02*
D03*
X6730000Y4424370D02*
D03*
X6830000D02*
D03*
X6105000Y4419370D02*
D03*
X6205000D02*
D03*
X5475000Y4414370D02*
D03*
X5575000D02*
D03*
X8005000Y4419370D02*
D03*
X8105000D02*
D03*
X7365000D02*
D03*
X7465000D02*
D03*
%TF.MD5,72acdfeaa3784ccbed871de0afc653dd*%
M02*
