%TF.GenerationSoftware,Altium Limited,Altium Designer,18.0.9 (584)*%
G04 Layer_Color=65535*
%FSLAX26Y26*%
%MOIN*%
%TF.FileFunction,Legend,Top*%
%TF.Part,Single*%
G01*
G75*
%TA.AperFunction,NonConductor*%
%ADD66C,0.009842*%
%ADD67C,0.007874*%
%ADD68C,0.023622*%
%ADD69C,0.010000*%
%ADD70C,0.005000*%
%ADD71C,0.020000*%
%ADD72C,0.019685*%
D66*
X4927953Y3148465D02*
G03*
X4927953Y3148465I-4921J0D01*
G01*
X6337441Y1776181D02*
G03*
X6337441Y1776181I-4921J0D01*
G01*
X1796260Y1475866D02*
G03*
X1796260Y1475866I-4921J0D01*
G01*
X1791260Y1930866D02*
G03*
X1791260Y1930866I-4921J0D01*
G01*
X1786260Y2385866D02*
G03*
X1786260Y2385866I-4921J0D01*
G01*
X1791260Y2855866D02*
G03*
X1791260Y2855866I-4921J0D01*
G01*
X1796260Y3315866D02*
G03*
X1796260Y3315866I-4921J0D01*
G01*
X1801260Y3765866D02*
G03*
X1801260Y3765866I-4921J0D01*
G01*
X1806260Y4215866D02*
G03*
X1806260Y4215866I-4921J0D01*
G01*
X1816260Y4665866D02*
G03*
X1816260Y4665866I-4921J0D01*
G01*
X6339921Y2273465D02*
G03*
X6339921Y2273465I-4921J0D01*
G01*
D67*
X6457520Y1775394D02*
G03*
X6507520Y1775394I25000J0D01*
G01*
X7570571Y3609370D02*
G03*
X7595571Y3609370I12500J0D01*
G01*
X7580571Y2579370D02*
G03*
X7605571Y2579370I12500J0D01*
G01*
X2531831Y4520630D02*
G03*
X2556831Y4520630I12500J0D01*
G01*
X4355263Y3468390D02*
G03*
X4364843Y3606398I-32743J71609D01*
G01*
X4280196D02*
G03*
X4289777Y3468390I42323J-66398D01*
G01*
X4394777Y2136610D02*
G03*
X4385197Y1998602I32743J-71609D01*
G01*
X4469843D02*
G03*
X4460263Y2136610I-42323J66398D01*
G01*
X3485000Y2744409D02*
Y2795591D01*
X1955984Y4239370D02*
Y4314173D01*
X2046535Y4239370D02*
Y4314173D01*
X1955984D02*
X2046535D01*
X1971732Y4074016D02*
X2030787D01*
X1955984Y4093701D02*
Y4160630D01*
X2030787Y4074016D02*
X2046535Y4093701D01*
X1955984D02*
X1971732Y4074016D01*
X2046535Y4093701D02*
Y4160630D01*
X1950354Y1504370D02*
Y1579173D01*
X2040906Y1504370D02*
Y1579173D01*
X1950354D02*
X2040906D01*
X1966102Y1339016D02*
X2025158D01*
X1950354Y1358701D02*
Y1425630D01*
X2025158Y1339016D02*
X2040906Y1358701D01*
X1950354D02*
X1966102Y1339016D01*
X2040906Y1358701D02*
Y1425630D01*
X6488779Y3845000D02*
X6539961D01*
X4768622Y1694528D02*
X4800118D01*
X4768622Y1635473D02*
X4800118D01*
X4959370Y1634409D02*
Y1685591D01*
X6179842Y3039252D02*
Y3070748D01*
X6238898Y3039252D02*
Y3070748D01*
X4982087Y2941575D02*
X5052953D01*
X4982087Y3138425D02*
X5052953D01*
Y2941575D02*
Y3138425D01*
X4982087Y2941575D02*
Y3138425D01*
X6378189Y1574606D02*
Y1775394D01*
X6586850Y1574606D02*
Y1775394D01*
X6378189D02*
X6457520D01*
X6507520D02*
X6586850D01*
X6378189Y1574606D02*
X6586850D01*
X6211929Y1765000D02*
X6263110D01*
X7874409Y4229370D02*
X7925591D01*
X7979409Y4228740D02*
X8030591D01*
X7234409Y4224370D02*
X7285591D01*
X7339409D02*
X7390591D01*
X6599409Y4229370D02*
X6650591D01*
X6704409D02*
X6755591D01*
X5974409D02*
X6025591D01*
X6079409D02*
X6130591D01*
X5344409Y4219370D02*
X5395591D01*
X5449409D02*
X5500591D01*
X4804409Y4214370D02*
X4855591D01*
X4699409D02*
X4750591D01*
X4064409D02*
X4115591D01*
X4169409D02*
X4220591D01*
X3529409D02*
X3580591D01*
X3424409D02*
X3475591D01*
X7472244Y3609370D02*
X7570571D01*
X7595571D02*
X7693898D01*
Y3209370D02*
Y3609370D01*
X7472244Y3209370D02*
X7693898D01*
X7472244D02*
Y3609370D01*
X7482244Y2579370D02*
X7580571D01*
X7605571D02*
X7703898D01*
Y2179370D02*
Y2579370D01*
X7482244Y2179370D02*
X7703898D01*
X7482244D02*
Y2579370D01*
X7939409Y2494370D02*
X7990591D01*
X7929409Y3524370D02*
X7980591D01*
X2155630Y1509409D02*
Y1560591D01*
X2145630Y1964409D02*
Y2015591D01*
X2155630Y2414409D02*
Y2465591D01*
X2150630Y2889409D02*
Y2940591D01*
X1840000Y1509409D02*
Y1560591D01*
X1835000Y1969409D02*
Y2020591D01*
X1825000Y2424409D02*
Y2475591D01*
X1835630Y2894409D02*
Y2945591D01*
X1863189Y1345945D02*
Y1377441D01*
X1827756Y1345945D02*
X1863189D01*
Y1432559D02*
Y1464055D01*
X1827756D02*
X1863189D01*
X1858189Y1800945D02*
Y1832441D01*
X1822756Y1800945D02*
X1858189D01*
Y1887559D02*
Y1919055D01*
X1822756D02*
X1858189D01*
X1853189Y2255945D02*
Y2287441D01*
X1817756Y2255945D02*
X1853189D01*
Y2342559D02*
Y2374055D01*
X1817756D02*
X1853189D01*
X1858189Y2725945D02*
Y2757441D01*
X1822756Y2725945D02*
X1858189D01*
Y2812559D02*
Y2844055D01*
X1822756D02*
X1858189D01*
X2935000Y4309409D02*
Y4360591D01*
X2433504Y4520630D02*
X2531831D01*
X2556831D02*
X2655157D01*
Y4120630D02*
Y4520630D01*
X2433504Y4120630D02*
X2655157D01*
X2433504D02*
Y4520630D01*
X2620669Y4810000D02*
X2671850D01*
X2619409Y4630000D02*
X2670591D01*
X2515669D02*
X2566850D01*
X2515669Y4810630D02*
X2566850D01*
X2410669Y4810000D02*
X2461850D01*
X2410669Y4630000D02*
X2461850D01*
X2155630Y3344409D02*
Y3395591D01*
X2156260Y3799409D02*
Y3850591D01*
X2161260Y4244409D02*
Y4295591D01*
X2166260Y4699409D02*
Y4750591D01*
X1836260Y3354409D02*
Y3405591D01*
X1841260Y3804409D02*
Y3855591D01*
Y4249409D02*
Y4300591D01*
X1851260Y4704409D02*
Y4755591D01*
X1863189Y3185945D02*
Y3217441D01*
X1827756Y3185945D02*
X1863189D01*
Y3272559D02*
Y3304055D01*
X1827756D02*
X1863189D01*
X1868189Y3635945D02*
Y3667441D01*
X1832756Y3635945D02*
X1868189D01*
Y3722559D02*
Y3754055D01*
X1832756D02*
X1868189D01*
X1873189Y4085945D02*
Y4117441D01*
X1837756Y4085945D02*
X1873189D01*
Y4172559D02*
Y4204055D01*
X1837756D02*
X1873189D01*
X1883189Y4535945D02*
Y4567441D01*
X1847756Y4535945D02*
X1883189D01*
Y4622559D02*
Y4654055D01*
X1847756D02*
X1883189D01*
X2934409Y3010000D02*
X2985591D01*
X2944409Y2295000D02*
X2995591D01*
X3500000Y2019409D02*
Y2070591D01*
X3485000Y2849409D02*
Y2900591D01*
X3470630Y3444409D02*
Y3495591D01*
X2919409Y3729370D02*
X2970591D01*
X2041535Y3193701D02*
Y3260630D01*
X1950984Y3193701D02*
X1966732Y3174016D01*
X2025787D02*
X2041535Y3193701D01*
X1950984D02*
Y3260630D01*
X1966732Y3174016D02*
X2025787D01*
X1950984Y3414173D02*
X2041535D01*
Y3339370D02*
Y3414173D01*
X1950984Y3339370D02*
Y3414173D01*
X2046535Y3648701D02*
Y3715630D01*
X1955984Y3648701D02*
X1971732Y3629016D01*
X2030787D02*
X2046535Y3648701D01*
X1955984D02*
Y3715630D01*
X1971732Y3629016D02*
X2030787D01*
X1955984Y3869173D02*
X2046535D01*
Y3794370D02*
Y3869173D01*
X1955984Y3794370D02*
Y3869173D01*
X2061535Y4548701D02*
Y4615630D01*
X1970984Y4548701D02*
X1986732Y4529016D01*
X2045787D02*
X2061535Y4548701D01*
X1970984D02*
Y4615630D01*
X1986732Y4529016D02*
X2045787D01*
X1970984Y4769173D02*
X2061535D01*
Y4694370D02*
Y4769173D01*
X1970984Y4694370D02*
Y4769173D01*
X2035906Y1818701D02*
Y1885630D01*
X1945354Y1818701D02*
X1961102Y1799016D01*
X2020158D02*
X2035906Y1818701D01*
X1945354D02*
Y1885630D01*
X1961102Y1799016D02*
X2020158D01*
X1945354Y2039173D02*
X2035906D01*
Y1964370D02*
Y2039173D01*
X1945354Y1964370D02*
Y2039173D01*
X2040906Y2268701D02*
Y2335630D01*
X1950354Y2268701D02*
X1966102Y2249016D01*
X2025158D02*
X2040906Y2268701D01*
X1950354D02*
Y2335630D01*
X1966102Y2249016D02*
X2025158D01*
X1950354Y2489173D02*
X2040906D01*
Y2414370D02*
Y2489173D01*
X1950354Y2414370D02*
Y2489173D01*
X2040906Y2738701D02*
Y2805630D01*
X1950354Y2738701D02*
X1966102Y2719016D01*
X2025158D02*
X2040906Y2738701D01*
X1950354D02*
Y2805630D01*
X1966102Y2719016D02*
X2025158D01*
X1950354Y2959173D02*
X2040906D01*
Y2884370D02*
Y2959173D01*
X1950354Y2884370D02*
Y2959173D01*
X3634803Y2114724D02*
X3701732D01*
X3615118Y2189528D02*
X3634803Y2205276D01*
X3615118Y2130472D02*
X3634803Y2114724D01*
Y2205276D02*
X3701732D01*
X3615118Y2130472D02*
Y2189528D01*
X3855276Y2114724D02*
Y2205276D01*
X3780472Y2114724D02*
X3855276D01*
X3780472Y2205276D02*
X3855276D01*
X3500000Y2134409D02*
Y2185591D01*
X3629803Y2829724D02*
X3696732D01*
X3610118Y2904528D02*
X3629803Y2920276D01*
X3610118Y2845472D02*
X3629803Y2829724D01*
Y2920276D02*
X3696732D01*
X3610118Y2845472D02*
Y2904528D01*
X3850276Y2829724D02*
Y2920276D01*
X3775472Y2829724D02*
X3850276D01*
X3775472Y2920276D02*
X3850276D01*
X3604803Y3539724D02*
X3671732D01*
X3585118Y3614528D02*
X3604803Y3630276D01*
X3585118Y3555472D02*
X3604803Y3539724D01*
Y3630276D02*
X3671732D01*
X3585118Y3555472D02*
Y3614528D01*
X3825276Y3539724D02*
Y3630276D01*
X3750472Y3539724D02*
X3825276D01*
X3750472Y3630276D02*
X3825276D01*
X3470630Y3559409D02*
Y3610591D01*
X6511890Y2660276D02*
X6578819D01*
X6578819Y2569724D02*
X6598504Y2585472D01*
X6578819Y2660276D02*
X6598504Y2644528D01*
X6511890Y2569724D02*
X6578819D01*
X6598504Y2585472D02*
Y2644528D01*
X6358346Y2569724D02*
Y2660276D01*
X6433150D01*
X6358346Y2569724D02*
X6433150D01*
X6257520Y2584409D02*
Y2635591D01*
X5236929Y2910000D02*
X5288110D01*
X5236929Y3090000D02*
X5288110D01*
X6511890Y2550276D02*
X6578819D01*
X6578819Y2459724D02*
X6598504Y2475472D01*
X6578819Y2550276D02*
X6598504Y2534528D01*
X6511890Y2459724D02*
X6578819D01*
X6598504Y2475472D02*
Y2534528D01*
X6358346Y2459724D02*
Y2550276D01*
X6433150D01*
X6358346Y2459724D02*
X6433150D01*
X6257520Y2479409D02*
Y2530591D01*
X6211929Y1585000D02*
X6263110D01*
X6388150Y2066575D02*
Y2263425D01*
X6466890Y2066575D02*
Y2263425D01*
X6388150D02*
X6466890D01*
X6388150Y2066575D02*
X6466890D01*
X6611929Y2074370D02*
X6663110D01*
X6587520Y2370000D02*
X6687520D01*
Y2170000D02*
Y2370000D01*
X6587520Y2170000D02*
X6687520D01*
X6587520D02*
Y2370000D01*
X6184843Y2154252D02*
Y2185748D01*
X6243898Y2154252D02*
Y2185748D01*
X6494370Y3119409D02*
Y3170591D01*
Y3014409D02*
Y3065591D01*
Y2909409D02*
Y2960591D01*
Y2804409D02*
Y2855591D01*
X4755000Y3099409D02*
Y3150591D01*
X4754370Y2994409D02*
Y3045591D01*
Y2889409D02*
Y2940591D01*
X4385039Y4454370D02*
X4436221D01*
X3110039Y4455000D02*
X3161220D01*
X3750039Y4453740D02*
X3801220D01*
X4490039Y4454370D02*
X4541221D01*
X3215039Y4455630D02*
X3266220D01*
X3855039Y4454370D02*
X3906220D01*
X4595039Y4453740D02*
X4646221D01*
X3320039Y4455000D02*
X3371220D01*
X3960039Y4454370D02*
X4011220D01*
X6290039D02*
X6341221D01*
X5665039D02*
X5716221D01*
X5025039D02*
X5076221D01*
X6395039Y4455000D02*
X6446221D01*
X5770039D02*
X5821221D01*
X5130039D02*
X5181221D01*
X6500039Y4454370D02*
X6551221D01*
X5875039D02*
X5926221D01*
X5235039D02*
X5286221D01*
X7570039D02*
X7621221D01*
X6925039D02*
X6976221D01*
X7675039D02*
X7726221D01*
X7030039D02*
X7081221D01*
X7780039D02*
X7831221D01*
X7135039D02*
X7186221D01*
X7840472Y2599252D02*
Y2630748D01*
X7899528Y2599252D02*
Y2630748D01*
X7399409Y2709370D02*
X7450591D01*
X7399409Y2889370D02*
X7450591D01*
X7504409Y2710000D02*
X7555591D01*
X7504409Y2889370D02*
X7555591D01*
X7609409Y2710000D02*
X7660591D01*
X7609409Y2889370D02*
X7660591D01*
X7404409Y3729370D02*
X7455591D01*
X7404409Y3909370D02*
X7455591D01*
X7509409Y3729370D02*
X7560591D01*
X7509409Y3909370D02*
X7560591D01*
X7614409Y3729370D02*
X7665591D01*
X7614409Y3909370D02*
X7665591D01*
X7830472Y3633622D02*
Y3665118D01*
X7889528Y3633622D02*
Y3665118D01*
D68*
X6429370Y1736024D02*
G03*
X6429370Y1736024I-11811J0D01*
G01*
D69*
X4596063Y1720433D02*
X5249606D01*
Y2425157D01*
X4596063Y1720433D02*
Y2425157D01*
X5249606D01*
X4448779Y3189764D02*
Y3878740D01*
X5314921Y3189764D02*
Y3878740D01*
X4448779Y3189764D02*
X5314921D01*
X4448779Y3878740D02*
X5314921D01*
X1138150Y2264724D02*
X1453110D01*
X1138150Y2658425D02*
X1453110D01*
Y2264724D02*
Y2658425D01*
X1138150Y2264724D02*
Y2658425D01*
Y2711575D02*
X1453110D01*
X1138150Y3105276D02*
X1453110D01*
Y2711575D02*
Y3105276D01*
X1138150Y2711575D02*
Y3105276D01*
Y3176575D02*
X1453110D01*
X1138150Y3570276D02*
X1453110D01*
Y3176575D02*
Y3570276D01*
X1138150Y3176575D02*
Y3570276D01*
Y3619724D02*
X1453110D01*
X1138150Y4013425D02*
X1453110D01*
Y3619724D02*
Y4013425D01*
X1138150Y3619724D02*
Y4013425D01*
X1143150Y4069724D02*
X1458110D01*
X1143150Y4463425D02*
X1458110D01*
Y4069724D02*
Y4463425D01*
X1143150Y4069724D02*
Y4463425D01*
Y4511575D02*
X1458110D01*
X1143150Y4905276D02*
X1458110D01*
Y4511575D02*
Y4905276D01*
X1143150Y4511575D02*
Y4905276D01*
X3164724Y2813583D02*
X3215905Y2793898D01*
X3164724Y2841142D02*
X3219843Y2860827D01*
X3070236Y2841142D02*
X3097795Y2813583D01*
X3070236Y2841142D02*
X3125354D01*
X3097795Y2813583D02*
X3125354Y2841142D01*
X3038740Y2876575D02*
X3097795D01*
Y2778150D02*
Y2876575D01*
X3038740Y2778150D02*
X3097795D01*
X3070236Y2809646D02*
X3125354D01*
X3164724Y2778150D02*
Y2880512D01*
X3219843Y2860827D02*
Y2876575D01*
X3235591D01*
X3215905Y2778150D02*
Y2793898D01*
Y2778150D02*
X3235591D01*
X3204095Y2817520D02*
X3215905Y2793898D01*
X3192284Y2786024D02*
X3215905Y2793898D01*
X3192284Y2786024D02*
X3204095Y2817520D01*
X3174724Y2087008D02*
X3225905Y2067323D01*
X3174724Y2114567D02*
X3229843Y2134252D01*
X3080236Y2114567D02*
X3107795Y2087008D01*
X3080236Y2114567D02*
X3135354D01*
X3107795Y2087008D02*
X3135354Y2114567D01*
X3048740Y2150000D02*
X3107795D01*
Y2051575D02*
Y2150000D01*
X3048740Y2051575D02*
X3107795D01*
X3080236Y2083071D02*
X3135354D01*
X3174724Y2051575D02*
Y2153937D01*
X3229843Y2134252D02*
Y2150000D01*
X3245591D01*
X3225905Y2051575D02*
Y2067323D01*
Y2051575D02*
X3245591D01*
X3214095Y2090945D02*
X3225905Y2067323D01*
X3202284Y2059449D02*
X3225905Y2067323D01*
X3202284Y2059449D02*
X3214095Y2090945D01*
X3150394Y3520433D02*
X3201575Y3500748D01*
X3150394Y3547992D02*
X3205512Y3567677D01*
X3055905Y3547992D02*
X3083465Y3520433D01*
X3055905Y3547992D02*
X3111024D01*
X3083465Y3520433D02*
X3111024Y3547992D01*
X3024410Y3583425D02*
X3083465D01*
Y3485000D02*
Y3583425D01*
X3024410Y3485000D02*
X3083465D01*
X3055905Y3516496D02*
X3111024D01*
X3150394Y3485000D02*
Y3587362D01*
X3205512Y3567677D02*
Y3583425D01*
X3221260D01*
X3201575Y3485000D02*
Y3500748D01*
Y3485000D02*
X3221260D01*
X3189764Y3524370D02*
X3201575Y3500748D01*
X3177953Y3492874D02*
X3201575Y3500748D01*
X3177953Y3492874D02*
X3189764Y3524370D01*
X1138150Y1341575D02*
Y1735276D01*
X1453110Y1341575D02*
Y1735276D01*
X1138150D02*
X1453110D01*
X1138150Y1341575D02*
X1453110D01*
X1138150Y1794724D02*
Y2188425D01*
X1453110Y1794724D02*
Y2188425D01*
X1138150D02*
X1453110D01*
X1138150Y1794724D02*
X1453110D01*
X2537520Y1842874D02*
X2852480D01*
X2537520Y2433425D02*
X2852480D01*
Y1842874D02*
Y2433425D01*
X2537520Y1842874D02*
Y2433425D01*
Y2559724D02*
X2852480D01*
X2537520Y3150276D02*
X2852480D01*
Y2559724D02*
Y3150276D01*
X2537520Y2559724D02*
Y3150276D01*
Y3276575D02*
X2852480D01*
X2537520Y3867126D02*
X2852480D01*
Y3276575D02*
Y3867126D01*
X2537520Y3276575D02*
Y3867126D01*
X3880039Y3341575D02*
Y3735276D01*
X4195000Y3341575D02*
Y3735276D01*
X3880039D02*
X4195000D01*
X3880039Y3341575D02*
X4195000D01*
X5352520Y1405000D02*
Y3505000D01*
X6152520Y1405000D02*
Y3505000D01*
X5352520D02*
X6152520D01*
X5352520Y1405000D02*
X6152520D01*
X3990039Y1869724D02*
Y2263425D01*
X4305000Y1869724D02*
Y2263425D01*
X3990039D02*
X4305000D01*
X3990039Y1869724D02*
X4305000D01*
X6710039Y1829724D02*
X7025000D01*
X6710039Y2420276D02*
X7025000D01*
Y1829724D02*
Y2420276D01*
X6710039Y1829724D02*
Y2420276D01*
X5005905Y4572520D02*
Y4887480D01*
X4415354Y4572520D02*
Y4887480D01*
X5005905D01*
X4415354Y4572520D02*
X5005905D01*
X3734055D02*
Y4887480D01*
X3143504Y4572520D02*
Y4887480D01*
X3734055D01*
X3143504Y4572520D02*
X3734055D01*
X4370905D02*
Y4887480D01*
X3780354Y4572520D02*
Y4887480D01*
X4370905D01*
X3780354Y4572520D02*
X4370905D01*
X6910905D02*
Y4887480D01*
X6320354Y4572520D02*
Y4887480D01*
X6910905D01*
X6320354Y4572520D02*
X6910905D01*
X6280905D02*
Y4887480D01*
X5690354Y4572520D02*
Y4887480D01*
X6280905D01*
X5690354Y4572520D02*
X6280905D01*
X5645905D02*
Y4887480D01*
X5055354Y4572520D02*
Y4887480D01*
X5645905D01*
X5055354Y4572520D02*
X5645905D01*
X8190905D02*
Y4887480D01*
X7600354Y4572520D02*
Y4887480D01*
X8190905D01*
X7600354Y4572520D02*
X8190905D01*
X7550905D02*
Y4887480D01*
X6960354Y4572520D02*
Y4887480D01*
X7550905D01*
X6960354Y4572520D02*
X7550905D01*
X7225000Y1729981D02*
Y1689994D01*
X7244993Y1670000D01*
X7264987Y1689994D01*
Y1729981D01*
X7294977Y1709987D02*
X7314971D01*
X7324968Y1699990D01*
Y1670000D01*
X7294977D01*
X7284981Y1679997D01*
X7294977Y1689994D01*
X7324968D01*
X7344961Y1709987D02*
Y1679997D01*
X7354958Y1670000D01*
X7384948D01*
Y1709987D01*
X7424935Y1650006D02*
X7434932D01*
X7444929Y1660003D01*
Y1709987D01*
X7414939D01*
X7404942Y1699990D01*
Y1679997D01*
X7414939Y1670000D01*
X7444929D01*
X7464922Y1729981D02*
Y1670000D01*
Y1699990D01*
X7474919Y1709987D01*
X7494913D01*
X7504909Y1699990D01*
Y1670000D01*
X7524903D02*
Y1709987D01*
X7554893D01*
X7564890Y1699990D01*
Y1670000D01*
X7644864Y1729981D02*
Y1670000D01*
Y1689994D01*
X7684851Y1729981D01*
X7654861Y1699990D01*
X7684851Y1670000D01*
X7714842D02*
X7734835D01*
X7744832Y1679997D01*
Y1699990D01*
X7734835Y1709987D01*
X7714842D01*
X7704845Y1699990D01*
Y1679997D01*
X7714842Y1670000D01*
X7774822Y1719984D02*
Y1709987D01*
X7764825D01*
X7784819D01*
X7774822D01*
Y1679997D01*
X7784819Y1670000D01*
X7824806Y1719984D02*
Y1709987D01*
X7814809D01*
X7834803D01*
X7824806D01*
Y1679997D01*
X7834803Y1670000D01*
X7864793D02*
X7884787D01*
X7874790D01*
Y1729981D01*
X7864793D01*
X7944767Y1670000D02*
X7924774D01*
X7914777Y1679997D01*
Y1699990D01*
X7924774Y1709987D01*
X7944767D01*
X7954764Y1699990D01*
Y1689994D01*
X7914777D01*
X7974757Y1709987D02*
Y1670000D01*
Y1689994D01*
X7984754Y1699990D01*
X7994751Y1709987D01*
X8004748D01*
X4706299Y2031457D02*
Y2091437D01*
X4726293Y2071444D01*
X4746286Y2091437D01*
Y2031457D01*
X4766280D02*
X4786273D01*
X4776277D01*
Y2071444D01*
X4766280D01*
X4856251D02*
X4826260D01*
X4816264Y2061447D01*
Y2041454D01*
X4826260Y2031457D01*
X4856251D01*
X4876244Y2071444D02*
Y2031457D01*
Y2051450D01*
X4886241Y2061447D01*
X4896238Y2071444D01*
X4906234D01*
X4946222Y2031457D02*
X4966215D01*
X4976212Y2041454D01*
Y2061447D01*
X4966215Y2071444D01*
X4946222D01*
X4936225Y2061447D01*
Y2041454D01*
X4946222Y2031457D01*
X5096173Y2081441D02*
X5086176Y2091437D01*
X5066183D01*
X5056186Y2081441D01*
Y2071444D01*
X5066183Y2061447D01*
X5086176D01*
X5096173Y2051450D01*
Y2041454D01*
X5086176Y2031457D01*
X5066183D01*
X5056186Y2041454D01*
X5116167Y2091437D02*
Y2031457D01*
X5146157D01*
X5156154Y2041454D01*
Y2081441D01*
X5146157Y2091437D01*
X5116167D01*
X6685000Y1695000D02*
Y1734987D01*
X6704993Y1754981D01*
X6724987Y1734987D01*
Y1695000D01*
Y1724990D01*
X6685000D01*
Y1595000D02*
Y1654981D01*
X6724987Y1595000D01*
Y1654981D01*
X6784968Y1644984D02*
X6774971Y1654981D01*
X6754977D01*
X6744981Y1644984D01*
Y1604997D01*
X6754977Y1595000D01*
X6774971D01*
X6784968Y1604997D01*
X4625945Y3580453D02*
Y3520472D01*
X4655935D01*
X4665932Y3530469D01*
Y3540466D01*
X4655935Y3550463D01*
X4625945D01*
X4655935D01*
X4665932Y3560459D01*
Y3570456D01*
X4655935Y3580453D01*
X4625945D01*
X4685926Y3560459D02*
Y3530469D01*
X4695922Y3520472D01*
X4725913D01*
Y3560459D01*
X4785893D02*
X4755903D01*
X4745906Y3550463D01*
Y3530469D01*
X4755903Y3520472D01*
X4785893D01*
X4805887D02*
Y3580453D01*
Y3540466D02*
X4835877Y3560459D01*
X4805887Y3540466D02*
X4835877Y3520472D01*
X4965835Y3560459D02*
X4935845D01*
X4925848Y3550463D01*
Y3530469D01*
X4935845Y3520472D01*
X4965835D01*
X4995825D02*
X5015819D01*
X5025816Y3530469D01*
Y3550463D01*
X5015819Y3560459D01*
X4995825D01*
X4985828Y3550463D01*
Y3530469D01*
X4995825Y3520472D01*
X5045809D02*
Y3560459D01*
X5075799D01*
X5085796Y3550463D01*
Y3520472D01*
X5105790Y3560459D02*
X5125783Y3520472D01*
X5145777Y3560459D01*
X5165770Y3520472D02*
Y3530469D01*
X5175767D01*
Y3520472D01*
X5165770D01*
X4602323Y3781240D02*
X4622316D01*
X4612320D01*
Y3721260D01*
X4602323D01*
X4622316D01*
X4652307D02*
Y3781240D01*
X4692294Y3721260D01*
Y3781240D01*
X4712287Y3751250D02*
X4752274D01*
X4982707Y3781240D02*
X4962713D01*
X4952717Y3771244D01*
Y3731257D01*
X4962713Y3721260D01*
X4982707D01*
X4992704Y3731257D01*
Y3771244D01*
X4982707Y3781240D01*
X5012697D02*
Y3731257D01*
X5022694Y3721260D01*
X5042688D01*
X5052684Y3731257D01*
Y3781240D01*
X5072678D02*
X5112665D01*
X5092671D01*
Y3721260D01*
X5132658Y3751250D02*
X5172645D01*
X4602323Y3348169D02*
X4622316D01*
X4612320D01*
Y3288189D01*
X4602323D01*
X4622316D01*
X4652307D02*
Y3348169D01*
X4692294Y3288189D01*
Y3348169D01*
X4712287Y3318179D02*
X4752274D01*
X4732281Y3338173D02*
Y3298186D01*
X4974833Y3348170D02*
X4954839D01*
X4944842Y3338173D01*
Y3298186D01*
X4954839Y3288189D01*
X4974833D01*
X4984830Y3298186D01*
Y3338173D01*
X4974833Y3348170D01*
X5004823D02*
Y3298186D01*
X5014820Y3288189D01*
X5034813D01*
X5044810Y3298186D01*
Y3348170D01*
X5064804D02*
X5104791D01*
X5084797D01*
Y3288189D01*
X5124784Y3318179D02*
X5164771D01*
X5144778Y3338173D02*
Y3298186D01*
X6481028Y2753323D02*
X6474364Y2759987D01*
X6461035D01*
X6454370Y2753323D01*
Y2746658D01*
X6461035Y2739994D01*
X6474364D01*
X6481028Y2733329D01*
Y2726664D01*
X6474364Y2720000D01*
X6461035D01*
X6454370Y2726664D01*
X6494357Y2720000D02*
Y2759987D01*
X6514351D01*
X6521015Y2753323D01*
Y2739994D01*
X6514351Y2733329D01*
X6494357D01*
X6534344Y2759987D02*
X6547673D01*
X6541009D01*
Y2720000D01*
X6534344D01*
X6547673D01*
X6607654D02*
Y2759987D01*
X6627648D01*
X6634312Y2753323D01*
Y2739994D01*
X6627648Y2733329D01*
X6607654D01*
X6647641Y2759987D02*
Y2726664D01*
X6654306Y2720000D01*
X6667635D01*
X6674299Y2726664D01*
Y2759987D01*
X6687628Y2720000D02*
Y2759987D01*
X6707622D01*
X6714286Y2753323D01*
Y2739994D01*
X6707622Y2733329D01*
X6687628D01*
X6700957D02*
X6714286Y2720000D01*
X4524370Y2765000D02*
Y2804987D01*
X4544364D01*
X4551028Y2798323D01*
Y2784994D01*
X4544364Y2778329D01*
X4524370D01*
X4571022Y2765000D02*
X4584351D01*
X4591015Y2771664D01*
Y2784994D01*
X4584351Y2791658D01*
X4571022D01*
X4564357Y2784994D01*
Y2771664D01*
X4571022Y2765000D01*
X4604344Y2751671D02*
Y2791658D01*
X4624338D01*
X4631002Y2784994D01*
Y2771664D01*
X4624338Y2765000D01*
X4604344D01*
X4644331D02*
Y2771664D01*
X4650996D01*
Y2765000D01*
X4644331D01*
X4724306Y2798323D02*
Y2791658D01*
X4717641D01*
X4730970D01*
X4724306D01*
Y2771664D01*
X4730970Y2765000D01*
X4757628D02*
X4770957D01*
X4777622Y2771664D01*
Y2784994D01*
X4770957Y2791658D01*
X4757628D01*
X4750964Y2784994D01*
Y2771664D01*
X4757628Y2765000D01*
X4830938Y2751671D02*
Y2791658D01*
X4850931D01*
X4857596Y2784994D01*
Y2771664D01*
X4850931Y2765000D01*
X4830938D01*
X4870925Y2791658D02*
Y2771664D01*
X4877590Y2765000D01*
X4897583D01*
Y2791658D01*
X4910912Y2765000D02*
X4924241D01*
X4917577D01*
Y2804987D01*
X4910912D01*
X4944235Y2765000D02*
X4957564D01*
X4950899D01*
Y2804987D01*
X4944235D01*
X5017544D02*
Y2765000D01*
Y2784994D01*
X5024209Y2791658D01*
X5037538D01*
X5044202Y2784994D01*
Y2765000D01*
X5057532D02*
X5070860D01*
X5064196D01*
Y2791658D01*
X5057532D01*
X5104183Y2751671D02*
X5110848D01*
X5117512Y2758336D01*
Y2791658D01*
X5097519D01*
X5090854Y2784994D01*
Y2771664D01*
X5097519Y2765000D01*
X5117512D01*
X5130841Y2804987D02*
Y2765000D01*
Y2784994D01*
X5137506Y2791658D01*
X5150835D01*
X5157499Y2784994D01*
Y2765000D01*
X4574370Y2895000D02*
Y2921658D01*
X4587699Y2934987D01*
X4601028Y2921658D01*
Y2895000D01*
Y2914994D01*
X4574370D01*
X4641015Y2895000D02*
X4614357D01*
X4641015Y2921658D01*
Y2928323D01*
X4634351Y2934987D01*
X4621022D01*
X4614357Y2928323D01*
X4574370Y3000000D02*
Y3026658D01*
X4587699Y3039987D01*
X4601028Y3026658D01*
Y3000000D01*
Y3019994D01*
X4574370D01*
X4614357Y3000000D02*
X4627686D01*
X4621022D01*
Y3039987D01*
X4614357Y3033323D01*
X4574370Y3105000D02*
Y3131658D01*
X4587699Y3144987D01*
X4601028Y3131658D01*
Y3105000D01*
Y3124994D01*
X4574370D01*
X4614357Y3138323D02*
X4621022Y3144987D01*
X4634351D01*
X4641015Y3138323D01*
Y3111664D01*
X4634351Y3105000D01*
X4621022D01*
X4614357Y3111664D01*
Y3138323D01*
X7072520Y2349981D02*
Y2290000D01*
X7112507D01*
X7162491Y2349981D02*
X7142497D01*
X7132500Y2339984D01*
Y2299997D01*
X7142497Y2290000D01*
X7162491D01*
X7172487Y2299997D01*
Y2339984D01*
X7162491Y2349981D01*
X7087520Y2154981D02*
Y2095000D01*
Y2124990D01*
X7127507D01*
Y2154981D01*
Y2095000D01*
X7147500Y2154981D02*
X7167494D01*
X7157497D01*
Y2095000D01*
X7147500D01*
X7167494D01*
X7097507Y1944984D02*
X7087510Y1954981D01*
X7067516D01*
X7057520Y1944984D01*
Y1904997D01*
X7067516Y1895000D01*
X7087510D01*
X7097507Y1904997D01*
Y1924990D01*
X7077513D01*
X7117500Y1895000D02*
Y1954981D01*
X7157487Y1895000D01*
Y1954981D01*
X7177481D02*
Y1895000D01*
X7207471D01*
X7217468Y1904997D01*
Y1944984D01*
X7207471Y1954981D01*
X7177481D01*
X6409357Y1969984D02*
X6399360Y1979981D01*
X6379367D01*
X6369370Y1969984D01*
Y1929997D01*
X6379367Y1920000D01*
X6399360D01*
X6409357Y1929997D01*
X6429351Y1920000D02*
Y1959987D01*
X6449344Y1979981D01*
X6469338Y1959987D01*
Y1920000D01*
Y1949990D01*
X6429351D01*
X6489331Y1920000D02*
Y1979981D01*
X6529318Y1920000D01*
Y1979981D01*
X6627520Y2534981D02*
Y2475000D01*
X6657510D01*
X6667507Y2484997D01*
Y2494994D01*
X6657510Y2504990D01*
X6627520D01*
X6657510D01*
X6667507Y2514987D01*
Y2524984D01*
X6657510Y2534981D01*
X6627520D01*
Y2585000D02*
Y2624987D01*
X6647513Y2644981D01*
X6667507Y2624987D01*
Y2585000D01*
Y2614990D01*
X6627520D01*
X1055000Y1354984D02*
X1064997Y1364981D01*
X1084990D01*
X1094987Y1354984D01*
Y1344987D01*
X1084990Y1334990D01*
X1094987Y1324994D01*
Y1314997D01*
X1084990Y1305000D01*
X1064997D01*
X1055000Y1314997D01*
Y1324994D01*
X1064997Y1334990D01*
X1055000Y1344987D01*
Y1354984D01*
X1064997Y1334990D02*
X1084990D01*
X1070000Y4880000D02*
X1089994D01*
X1079997D01*
Y4939981D01*
X1070000Y4929984D01*
X1040000Y1624990D02*
X1079987D01*
X1059994Y1644984D02*
Y1604997D01*
X1040000Y1429990D02*
X1079987D01*
X1040000Y2079990D02*
X1079987D01*
X1059994Y2099984D02*
Y2059997D01*
X1040000Y1884990D02*
X1079987D01*
X1040000Y2549990D02*
X1079987D01*
X1059994Y2569984D02*
Y2529997D01*
X1040000Y2354990D02*
X1079987D01*
X1040000Y2999990D02*
X1079987D01*
X1059994Y3019984D02*
Y2979997D01*
X1040000Y2804990D02*
X1079987D01*
X1040000Y3464990D02*
X1079987D01*
X1059994Y3484984D02*
Y3444997D01*
X1040000Y3269990D02*
X1079987D01*
X1040000Y3904990D02*
X1079987D01*
X1059994Y3924984D02*
Y3884997D01*
X1040000Y3709990D02*
X1079987D01*
X1040000Y4359990D02*
X1079987D01*
X1059994Y4379984D02*
Y4339997D01*
X1040000Y4164990D02*
X1079987D01*
X1040000Y4604990D02*
X1079987D01*
X1040000Y4799990D02*
X1079987D01*
X1059994Y4819984D02*
Y4779997D01*
X2405000Y2364981D02*
Y2305000D01*
X2434990D01*
X2444987Y2314997D01*
Y2324994D01*
X2434990Y2334990D01*
X2405000D01*
X2434990D01*
X2444987Y2344987D01*
Y2354984D01*
X2434990Y2364981D01*
X2405000D01*
X2464981Y2305000D02*
Y2364981D01*
X2494971D01*
X2504968Y2354984D01*
Y2334990D01*
X2494971Y2324994D01*
X2464981D01*
X2484974D02*
X2504968Y2305000D01*
X2355000Y2159981D02*
Y2100000D01*
X2384990D01*
X2394987Y2109997D01*
Y2119994D01*
X2384990Y2129990D01*
X2355000D01*
X2384990D01*
X2394987Y2139987D01*
Y2149984D01*
X2384990Y2159981D01*
X2355000D01*
X2414981D02*
Y2100000D01*
X2454968D01*
X2474961Y2159981D02*
Y2100000D01*
Y2119994D01*
X2514948Y2159981D01*
X2484958Y2129990D01*
X2514948Y2100000D01*
X2355000Y1979981D02*
Y1920000D01*
X2384990D01*
X2394987Y1929997D01*
Y1939994D01*
X2384990Y1949990D01*
X2355000D01*
X2384990D01*
X2394987Y1959987D01*
Y1969984D01*
X2384990Y1979981D01*
X2355000D01*
X2414981D02*
Y1920000D01*
X2454968D01*
X2474961Y1979981D02*
Y1929997D01*
X2484958Y1920000D01*
X2504952D01*
X2514948Y1929997D01*
Y1979981D01*
X2405000Y3084981D02*
Y3025000D01*
X2434990D01*
X2444987Y3034997D01*
Y3044994D01*
X2434990Y3054990D01*
X2405000D01*
X2434990D01*
X2444987Y3064987D01*
Y3074984D01*
X2434990Y3084981D01*
X2405000D01*
X2464981Y3025000D02*
Y3084981D01*
X2494971D01*
X2504968Y3074984D01*
Y3054990D01*
X2494971Y3044994D01*
X2464981D01*
X2484974D02*
X2504968Y3025000D01*
X2355000Y2879981D02*
Y2820000D01*
X2384990D01*
X2394987Y2829997D01*
Y2839994D01*
X2384990Y2849990D01*
X2355000D01*
X2384990D01*
X2394987Y2859987D01*
Y2869984D01*
X2384990Y2879981D01*
X2355000D01*
X2414981D02*
Y2820000D01*
X2454968D01*
X2474961Y2879981D02*
Y2820000D01*
Y2839994D01*
X2514948Y2879981D01*
X2484958Y2849990D01*
X2514948Y2820000D01*
X2355000Y2699981D02*
Y2640000D01*
X2384990D01*
X2394987Y2649997D01*
Y2659994D01*
X2384990Y2669990D01*
X2355000D01*
X2384990D01*
X2394987Y2679987D01*
Y2689984D01*
X2384990Y2699981D01*
X2355000D01*
X2414981D02*
Y2640000D01*
X2454968D01*
X2474961Y2699981D02*
Y2649997D01*
X2484958Y2640000D01*
X2504952D01*
X2514948Y2649997D01*
Y2699981D01*
X2355000Y3409981D02*
Y3350000D01*
X2384990D01*
X2394987Y3359997D01*
Y3369994D01*
X2384990Y3379990D01*
X2355000D01*
X2384990D01*
X2394987Y3389987D01*
Y3399984D01*
X2384990Y3409981D01*
X2355000D01*
X2414981D02*
Y3350000D01*
X2454968D01*
X2474961Y3409981D02*
Y3359997D01*
X2484958Y3350000D01*
X2504952D01*
X2514948Y3359997D01*
Y3409981D01*
X2355000Y3589981D02*
Y3530000D01*
X2384990D01*
X2394987Y3539997D01*
Y3549994D01*
X2384990Y3559990D01*
X2355000D01*
X2384990D01*
X2394987Y3569987D01*
Y3579984D01*
X2384990Y3589981D01*
X2355000D01*
X2414981D02*
Y3530000D01*
X2454968D01*
X2474961Y3589981D02*
Y3530000D01*
Y3549994D01*
X2514948Y3589981D01*
X2484958Y3559990D01*
X2514948Y3530000D01*
X2405000Y3794981D02*
Y3735000D01*
X2434990D01*
X2444987Y3744997D01*
Y3754994D01*
X2434990Y3764990D01*
X2405000D01*
X2434990D01*
X2444987Y3774987D01*
Y3784984D01*
X2434990Y3794981D01*
X2405000D01*
X2464981Y3735000D02*
Y3794981D01*
X2494971D01*
X2504968Y3784984D01*
Y3764990D01*
X2494971Y3754994D01*
X2464981D01*
X2484974D02*
X2504968Y3735000D01*
X3050000Y4009351D02*
X3089987D01*
X3069994D01*
Y3949370D01*
X3119977D02*
X3139971D01*
X3149968Y3959367D01*
Y3979360D01*
X3139971Y3989357D01*
X3119977D01*
X3109981Y3979360D01*
Y3959367D01*
X3119977Y3949370D01*
X3189955Y3929377D02*
X3199952D01*
X3209948Y3939373D01*
Y3989357D01*
X3179958D01*
X3169961Y3979360D01*
Y3959367D01*
X3179958Y3949370D01*
X3209948D01*
X3249935Y3929377D02*
X3259932D01*
X3269929Y3939373D01*
Y3989357D01*
X3239939D01*
X3229942Y3979360D01*
Y3959367D01*
X3239939Y3949370D01*
X3269929D01*
X3289922D02*
X3309916D01*
X3299919D01*
Y4009351D01*
X3289922D01*
X3369896Y3949370D02*
X3349903D01*
X3339906Y3959367D01*
Y3979360D01*
X3349903Y3989357D01*
X3369896D01*
X3379893Y3979360D01*
Y3969364D01*
X3339906D01*
X3399887Y3989357D02*
X3409884D01*
Y3979360D01*
X3399887D01*
Y3989357D01*
Y3959367D02*
X3409884D01*
Y3949370D01*
X3399887D01*
Y3959367D01*
X3509851Y4009351D02*
Y3949370D01*
X3549838D01*
X3599822D02*
X3579829D01*
X3569832Y3959367D01*
Y3979360D01*
X3579829Y3989357D01*
X3599822D01*
X3609819Y3979360D01*
Y3969364D01*
X3569832D01*
X3639809Y3949370D02*
Y3999354D01*
Y3979360D01*
X3629812D01*
X3649806D01*
X3639809D01*
Y3999354D01*
X3649806Y4009351D01*
X3689793Y3999354D02*
Y3989357D01*
X3679796D01*
X3699790D01*
X3689793D01*
Y3959367D01*
X3699790Y3949370D01*
X3789761Y3969364D02*
X3829748D01*
X3789761Y3989357D02*
X3829748D01*
X3909722Y4009351D02*
Y3969364D01*
X3929715Y3949370D01*
X3949709Y3969364D01*
Y4009351D01*
X4039680Y3949370D02*
X4059673D01*
X4069670Y3959367D01*
Y3979360D01*
X4059673Y3989357D01*
X4039680D01*
X4029683Y3979360D01*
Y3959367D01*
X4039680Y3949370D01*
X4089664Y3989357D02*
Y3959367D01*
X4099660Y3949370D01*
X4129651D01*
Y3989357D01*
X4159641Y3999354D02*
Y3989357D01*
X4149644D01*
X4169638D01*
X4159641D01*
Y3959367D01*
X4169638Y3949370D01*
X4279602D02*
X4259609Y3969364D01*
Y3989357D01*
X4279602Y4009351D01*
X4309592Y3989357D02*
Y3959367D01*
X4319589Y3949370D01*
X4349579D01*
Y3989357D01*
X4369573Y3929377D02*
Y3989357D01*
X4399563D01*
X4409560Y3979360D01*
Y3959367D01*
X4399563Y3949370D01*
X4369573D01*
X4499531Y3999354D02*
Y3989357D01*
X4489534D01*
X4509528D01*
X4499531D01*
Y3959367D01*
X4509528Y3949370D01*
X4549515D02*
X4569508D01*
X4579505Y3959367D01*
Y3979360D01*
X4569508Y3989357D01*
X4549515D01*
X4539518Y3979360D01*
Y3959367D01*
X4549515Y3949370D01*
X4699466Y4009351D02*
X4659479D01*
Y3979360D01*
X4679473Y3989357D01*
X4689470D01*
X4699466Y3979360D01*
Y3959367D01*
X4689470Y3949370D01*
X4669476D01*
X4659479Y3959367D01*
X4719460Y4009351D02*
Y3969364D01*
X4739453Y3949370D01*
X4759447Y3969364D01*
Y4009351D01*
X4779440Y3949370D02*
X4799434Y3969364D01*
Y3989357D01*
X4779440Y4009351D01*
X4839421Y3939373D02*
X4849418Y3949370D01*
Y3959367D01*
X4839421D01*
Y3949370D01*
X4849418D01*
X4839421Y3939373D01*
X4829424Y3929377D01*
X4949385Y3949370D02*
Y4009351D01*
X4979376D01*
X4989373Y3999354D01*
Y3979360D01*
X4979376Y3969364D01*
X4949385D01*
X4969379D02*
X4989373Y3949370D01*
X5009366D02*
X5029359D01*
X5019363D01*
Y3989357D01*
X5009366D01*
X5079343Y3929377D02*
X5089340D01*
X5099337Y3939373D01*
Y3989357D01*
X5069347D01*
X5059350Y3979360D01*
Y3959367D01*
X5069347Y3949370D01*
X5099337D01*
X5119330Y4009351D02*
Y3949370D01*
Y3979360D01*
X5129327Y3989357D01*
X5149321D01*
X5159318Y3979360D01*
Y3949370D01*
X5189308Y3999354D02*
Y3989357D01*
X5179311D01*
X5199305D01*
X5189308D01*
Y3959367D01*
X5199305Y3949370D01*
X5289275Y3969364D02*
X5329262D01*
X5289275Y3989357D02*
X5329262D01*
X5409237Y4009351D02*
X5429230D01*
X5419233D01*
Y3949370D01*
X5409237D01*
X5429230D01*
X5529198D02*
X5549191D01*
X5559188Y3959367D01*
Y3979360D01*
X5549191Y3989357D01*
X5529198D01*
X5519201Y3979360D01*
Y3959367D01*
X5529198Y3949370D01*
X5579182Y3989357D02*
Y3959367D01*
X5589178Y3949370D01*
X5619169D01*
Y3989357D01*
X5649159Y3999354D02*
Y3989357D01*
X5639162D01*
X5659156D01*
X5649159D01*
Y3959367D01*
X5659156Y3949370D01*
X5769120D02*
X5749127Y3969364D01*
Y3989357D01*
X5769120Y4009351D01*
X5829101Y3949370D02*
Y4009351D01*
X5799110Y3979360D01*
X5839097D01*
X5859091D02*
X5899078D01*
X5959059Y3949370D02*
X5919072D01*
X5959059Y3989357D01*
Y3999354D01*
X5949062Y4009351D01*
X5929068D01*
X5919072Y3999354D01*
X5979052D02*
X5989049Y4009351D01*
X6009042D01*
X6019039Y3999354D01*
Y3959367D01*
X6009042Y3949370D01*
X5989049D01*
X5979052Y3959367D01*
Y3999354D01*
X6039033Y3949370D02*
Y3989357D01*
X6049030D01*
X6059026Y3979360D01*
Y3949370D01*
Y3979360D01*
X6069023Y3989357D01*
X6079020Y3979360D01*
Y3949370D01*
X6099013D02*
Y3989357D01*
X6119007Y4009351D01*
X6139001Y3989357D01*
Y3949370D01*
Y3979360D01*
X6099013D01*
X6158994Y3949370D02*
X6178988Y3969364D01*
Y3989357D01*
X6158994Y4009351D01*
X3060000Y4039370D02*
Y4099351D01*
X3089990D01*
X3099987Y4089354D01*
Y4069360D01*
X3089990Y4059364D01*
X3060000D01*
X3129977Y4039370D02*
X3149971D01*
X3159968Y4049367D01*
Y4069360D01*
X3149971Y4079357D01*
X3129977D01*
X3119981Y4069360D01*
Y4049367D01*
X3129977Y4039370D01*
X3179961Y4079357D02*
Y4049367D01*
X3189958Y4039370D01*
X3199955Y4049367D01*
X3209952Y4039370D01*
X3219948Y4049367D01*
Y4079357D01*
X3269932Y4039370D02*
X3249939D01*
X3239942Y4049367D01*
Y4069360D01*
X3249939Y4079357D01*
X3269932D01*
X3279929Y4069360D01*
Y4059364D01*
X3239942D01*
X3299922Y4079357D02*
Y4039370D01*
Y4059364D01*
X3309919Y4069360D01*
X3319916Y4079357D01*
X3329913D01*
X3459871Y4089354D02*
X3449874Y4099351D01*
X3429880D01*
X3419884Y4089354D01*
Y4079357D01*
X3429880Y4069360D01*
X3449874D01*
X3459871Y4059364D01*
Y4049367D01*
X3449874Y4039370D01*
X3429880D01*
X3419884Y4049367D01*
X3509854Y4039370D02*
X3489861D01*
X3479864Y4049367D01*
Y4069360D01*
X3489861Y4079357D01*
X3509854D01*
X3519851Y4069360D01*
Y4059364D01*
X3479864D01*
X3539845Y4039370D02*
X3559838D01*
X3549842D01*
Y4099351D01*
X3539845D01*
X3589829Y4039370D02*
Y4049367D01*
X3599825D01*
Y4039370D01*
X3589829D01*
X3639812Y4079357D02*
X3649809D01*
Y4069360D01*
X3639812D01*
Y4079357D01*
Y4049367D02*
X3649809D01*
Y4039370D01*
X3639812D01*
Y4049367D01*
X3789764Y4099351D02*
X3749777D01*
Y4069360D01*
X3769770Y4079357D01*
X3779767D01*
X3789764Y4069360D01*
Y4049367D01*
X3779767Y4039370D01*
X3759774D01*
X3749777Y4049367D01*
X3809757Y4099351D02*
Y4059364D01*
X3829751Y4039370D01*
X3849744Y4059364D01*
Y4099351D01*
X3929719D02*
Y4039370D01*
X4019689Y4099351D02*
Y4039370D01*
X4049680D01*
X4059677Y4049367D01*
Y4059364D01*
X4049680Y4069360D01*
X4019689D01*
X4049680D01*
X4059677Y4079357D01*
Y4089354D01*
X4049680Y4099351D01*
X4019689D01*
X4079670Y4039370D02*
Y4079357D01*
X4099664Y4099351D01*
X4119657Y4079357D01*
Y4039370D01*
Y4069360D01*
X4079670D01*
X4139651Y4099351D02*
X4179638D01*
X4159644D01*
Y4039370D01*
X4199631Y4099351D02*
X4239618D01*
X4219625D01*
Y4039370D01*
X4319592Y4099351D02*
Y4039370D01*
X4449551D02*
X4409563D01*
X4449551Y4079357D01*
Y4089354D01*
X4439554Y4099351D01*
X4419560D01*
X4409563Y4089354D01*
X4499534Y4039370D02*
Y4099351D01*
X4469544Y4069360D01*
X4509531D01*
X4529525Y4099351D02*
Y4059364D01*
X4549518Y4039370D01*
X4569512Y4059364D01*
Y4099351D01*
X8060000Y4934360D02*
X8099987D01*
X7864987Y4969354D02*
X7854990Y4979351D01*
X7834997D01*
X7825000Y4969354D01*
Y4959357D01*
X7834997Y4949360D01*
X7854990D01*
X7864987Y4939364D01*
Y4929367D01*
X7854990Y4919370D01*
X7834997D01*
X7825000Y4929367D01*
X7884981Y4979351D02*
X7904974D01*
X7894977D01*
Y4919370D01*
X7884981D01*
X7904974D01*
X7974952Y4969354D02*
X7964955Y4979351D01*
X7944961D01*
X7934964Y4969354D01*
Y4929367D01*
X7944961Y4919370D01*
X7964955D01*
X7974952Y4929367D01*
Y4949360D01*
X7954958D01*
X7410000Y4934360D02*
X7449987D01*
X7214987Y4969354D02*
X7204990Y4979351D01*
X7184997D01*
X7175000Y4969354D01*
Y4959357D01*
X7184997Y4949360D01*
X7204990D01*
X7214987Y4939364D01*
Y4929367D01*
X7204990Y4919370D01*
X7184997D01*
X7175000Y4929367D01*
X7234981Y4979351D02*
X7254974D01*
X7244977D01*
Y4919370D01*
X7234981D01*
X7254974D01*
X7324952Y4969354D02*
X7314955Y4979351D01*
X7294961D01*
X7284964Y4969354D01*
Y4929367D01*
X7294961Y4919370D01*
X7314955D01*
X7324952Y4929367D01*
Y4949360D01*
X7304958D01*
X6775000Y4934360D02*
X6814987D01*
X6579987Y4969354D02*
X6569990Y4979351D01*
X6549997D01*
X6540000Y4969354D01*
Y4959357D01*
X6549997Y4949360D01*
X6569990D01*
X6579987Y4939364D01*
Y4929367D01*
X6569990Y4919370D01*
X6549997D01*
X6540000Y4929367D01*
X6599981Y4979351D02*
X6619974D01*
X6609977D01*
Y4919370D01*
X6599981D01*
X6619974D01*
X6689952Y4969354D02*
X6679955Y4979351D01*
X6659961D01*
X6649964Y4969354D01*
Y4929367D01*
X6659961Y4919370D01*
X6679955D01*
X6689952Y4929367D01*
Y4949360D01*
X6669958D01*
X6145000Y4934360D02*
X6184987D01*
X5949987Y4969354D02*
X5939990Y4979351D01*
X5919997D01*
X5910000Y4969354D01*
Y4959357D01*
X5919997Y4949360D01*
X5939990D01*
X5949987Y4939364D01*
Y4929367D01*
X5939990Y4919370D01*
X5919997D01*
X5910000Y4929367D01*
X5969981Y4979351D02*
X5989974D01*
X5979977D01*
Y4919370D01*
X5969981D01*
X5989974D01*
X6059952Y4969354D02*
X6049955Y4979351D01*
X6029961D01*
X6019964Y4969354D01*
Y4929367D01*
X6029961Y4919370D01*
X6049955D01*
X6059952Y4929367D01*
Y4949360D01*
X6039958D01*
X5525000Y4934360D02*
X5564987D01*
X5329987Y4969354D02*
X5319990Y4979351D01*
X5299997D01*
X5290000Y4969354D01*
Y4959357D01*
X5299997Y4949360D01*
X5319990D01*
X5329987Y4939364D01*
Y4929367D01*
X5319990Y4919370D01*
X5299997D01*
X5290000Y4929367D01*
X5349981Y4979351D02*
X5369974D01*
X5359977D01*
Y4919370D01*
X5349981D01*
X5369974D01*
X5439952Y4969354D02*
X5429955Y4979351D01*
X5409961D01*
X5399964Y4969354D01*
Y4929367D01*
X5409961Y4919370D01*
X5429955D01*
X5439952Y4929367D01*
Y4949360D01*
X5419958D01*
X4885000Y4934360D02*
X4924987D01*
X4689987Y4969354D02*
X4679990Y4979351D01*
X4659997D01*
X4650000Y4969354D01*
Y4959357D01*
X4659997Y4949360D01*
X4679990D01*
X4689987Y4939364D01*
Y4929367D01*
X4679990Y4919370D01*
X4659997D01*
X4650000Y4929367D01*
X4709981Y4979351D02*
X4729974D01*
X4719977D01*
Y4919370D01*
X4709981D01*
X4729974D01*
X4799952Y4969354D02*
X4789955Y4979351D01*
X4769961D01*
X4759964Y4969354D01*
Y4929367D01*
X4769961Y4919370D01*
X4789955D01*
X4799952Y4929367D01*
Y4949360D01*
X4779958D01*
X4245000Y4934360D02*
X4284987D01*
X4049987Y4969354D02*
X4039990Y4979351D01*
X4019997D01*
X4010000Y4969354D01*
Y4959357D01*
X4019997Y4949360D01*
X4039990D01*
X4049987Y4939364D01*
Y4929367D01*
X4039990Y4919370D01*
X4019997D01*
X4010000Y4929367D01*
X4069981Y4979351D02*
X4089974D01*
X4079977D01*
Y4919370D01*
X4069981D01*
X4089974D01*
X4159952Y4969354D02*
X4149955Y4979351D01*
X4129961D01*
X4119964Y4969354D01*
Y4929367D01*
X4129961Y4919370D01*
X4149955D01*
X4159952Y4929367D01*
Y4949360D01*
X4139958D01*
X3414987Y4974354D02*
X3404990Y4984351D01*
X3384997D01*
X3375000Y4974354D01*
Y4964357D01*
X3384997Y4954360D01*
X3404990D01*
X3414987Y4944364D01*
Y4934367D01*
X3404990Y4924370D01*
X3384997D01*
X3375000Y4934367D01*
X3434981Y4984351D02*
X3454974D01*
X3444977D01*
Y4924370D01*
X3434981D01*
X3454974D01*
X3524952Y4974354D02*
X3514955Y4984351D01*
X3494961D01*
X3484964Y4974354D01*
Y4934367D01*
X3494961Y4924370D01*
X3514955D01*
X3524952Y4934367D01*
Y4954360D01*
X3504958D01*
X3610000Y4939360D02*
X3649987D01*
X7371260Y4020000D02*
Y4059987D01*
X7391253Y4079981D01*
X7411247Y4059987D01*
Y4020000D01*
Y4049990D01*
X7371260D01*
X7431240Y4069984D02*
X7441237Y4079981D01*
X7461231D01*
X7471227Y4069984D01*
Y4029997D01*
X7461231Y4020000D01*
X7441237D01*
X7431240Y4029997D01*
Y4069984D01*
X7491221Y4020000D02*
Y4059987D01*
X7511215Y4079981D01*
X7531208Y4059987D01*
Y4020000D01*
Y4049990D01*
X7491221D01*
X7551202Y4020000D02*
X7571195D01*
X7561198D01*
Y4079981D01*
X7551202Y4069984D01*
X7601185Y4020000D02*
Y4059987D01*
X7621179Y4079981D01*
X7641172Y4059987D01*
Y4020000D01*
Y4049990D01*
X7601185D01*
X7701153Y4020000D02*
X7661166D01*
X7701153Y4059987D01*
Y4069984D01*
X7691156Y4079981D01*
X7671163D01*
X7661166Y4069984D01*
X7331260Y3880000D02*
X7351253D01*
X7341257D01*
Y3939981D01*
X7331260Y3929984D01*
X7321260Y3759984D02*
X7331257Y3769981D01*
X7351250D01*
X7361247Y3759984D01*
Y3719997D01*
X7351250Y3710000D01*
X7331257D01*
X7321260Y3719997D01*
Y3759984D01*
X7361260Y3005000D02*
Y3044987D01*
X7381253Y3064981D01*
X7401247Y3044987D01*
Y3005000D01*
Y3034990D01*
X7361260D01*
X7421240Y3054984D02*
X7431237Y3064981D01*
X7451231D01*
X7461227Y3054984D01*
Y3014997D01*
X7451231Y3005000D01*
X7431237D01*
X7421240Y3014997D01*
Y3054984D01*
X7481221Y3005000D02*
Y3044987D01*
X7501215Y3064981D01*
X7521208Y3044987D01*
Y3005000D01*
Y3034990D01*
X7481221D01*
X7541202Y3005000D02*
X7561195D01*
X7551198D01*
Y3064981D01*
X7541202Y3054984D01*
X7591185Y3005000D02*
Y3044987D01*
X7611179Y3064981D01*
X7631172Y3044987D01*
Y3005000D01*
Y3034990D01*
X7591185D01*
X7691153Y3005000D02*
X7651166D01*
X7691153Y3044987D01*
Y3054984D01*
X7681156Y3064981D01*
X7661163D01*
X7651166Y3054984D01*
X7321260Y2865000D02*
X7341253D01*
X7331257D01*
Y2924981D01*
X7321260Y2914984D01*
X7311260Y2744984D02*
X7321257Y2754981D01*
X7341250D01*
X7351247Y2744984D01*
Y2704997D01*
X7341250Y2695000D01*
X7321257D01*
X7311260Y2704997D01*
Y2744984D01*
X2331260Y4655614D02*
X2341257Y4665610D01*
X2361250D01*
X2371247Y4655614D01*
Y4615627D01*
X2361250Y4605630D01*
X2341257D01*
X2331260Y4615627D01*
Y4655614D01*
X2341260Y4775630D02*
X2361253D01*
X2351257D01*
Y4835610D01*
X2341260Y4825614D01*
X2381260Y4915630D02*
Y4955617D01*
X2401253Y4975610D01*
X2421247Y4955617D01*
Y4915630D01*
Y4945620D01*
X2381260D01*
X2441240Y4965614D02*
X2451237Y4975610D01*
X2471231D01*
X2481227Y4965614D01*
Y4925627D01*
X2471231Y4915630D01*
X2451237D01*
X2441240Y4925627D01*
Y4965614D01*
X2501221Y4915630D02*
Y4955617D01*
X2521215Y4975610D01*
X2541208Y4955617D01*
Y4915630D01*
Y4945620D01*
X2501221D01*
X2561202Y4915630D02*
X2581195D01*
X2571198D01*
Y4975610D01*
X2561202Y4965614D01*
X2611185Y4915630D02*
Y4955617D01*
X2631179Y4975610D01*
X2651173Y4955617D01*
Y4915630D01*
Y4945620D01*
X2611185D01*
X2711153Y4915630D02*
X2671166D01*
X2711153Y4955617D01*
Y4965614D01*
X2701156Y4975610D01*
X2681163D01*
X2671166Y4965614D01*
X5688740Y3346083D02*
Y3296099D01*
X5698737Y3286102D01*
X5718730D01*
X5728727Y3296099D01*
Y3346083D01*
X5788708Y3336086D02*
X5778711Y3346083D01*
X5758718D01*
X5748721Y3336086D01*
Y3326090D01*
X5758718Y3316093D01*
X5778711D01*
X5788708Y3306096D01*
Y3296099D01*
X5778711Y3286102D01*
X5758718D01*
X5748721Y3296099D01*
X5808701Y3346083D02*
Y3286102D01*
X5838692D01*
X5848689Y3296099D01*
Y3306096D01*
X5838692Y3316093D01*
X5808701D01*
X5838692D01*
X5848689Y3326090D01*
Y3336086D01*
X5838692Y3346083D01*
X5808701D01*
X5672992Y1490827D02*
Y1550807D01*
X5702982D01*
X5712979Y1540811D01*
Y1520817D01*
X5702982Y1510820D01*
X5672992D01*
X5692986D02*
X5712979Y1490827D01*
X5772960Y1540811D02*
X5762963Y1550807D01*
X5742970D01*
X5732973Y1540811D01*
Y1530814D01*
X5742970Y1520817D01*
X5762963D01*
X5772960Y1510820D01*
Y1500824D01*
X5762963Y1490827D01*
X5742970D01*
X5732973Y1500824D01*
X5792953Y1550807D02*
X5832940D01*
X5812947D01*
Y1490827D01*
X6782913Y3909552D02*
X6814399D01*
X6798656D01*
Y3862323D01*
X6853757Y3909552D02*
X6838014D01*
X6830142Y3901680D01*
Y3870194D01*
X6838014Y3862323D01*
X6853757D01*
X6861628Y3870194D01*
Y3901680D01*
X6853757Y3909552D01*
X6877371Y3862323D02*
Y3909552D01*
X6900985D01*
X6908857Y3901680D01*
Y3885937D01*
X6900985Y3878066D01*
X6877371D01*
X6987572Y3862323D02*
X6971829Y3878066D01*
Y3893809D01*
X6987572Y3909552D01*
X7011186D02*
Y3870194D01*
X7019057Y3862323D01*
X7034800D01*
X7042672Y3870194D01*
Y3909552D01*
X7089901Y3901680D02*
X7082029Y3909552D01*
X7066286D01*
X7058415Y3901680D01*
Y3893809D01*
X7066286Y3885937D01*
X7082029D01*
X7089901Y3878066D01*
Y3870194D01*
X7082029Y3862323D01*
X7066286D01*
X7058415Y3870194D01*
X7105644Y3909552D02*
Y3862323D01*
X7129258D01*
X7137130Y3870194D01*
Y3878066D01*
X7129258Y3885937D01*
X7105644D01*
X7129258D01*
X7137130Y3893809D01*
Y3901680D01*
X7129258Y3909552D01*
X7105644D01*
X7152872Y3862323D02*
X7168615Y3878066D01*
Y3893809D01*
X7152872Y3909552D01*
X6802598Y2913489D02*
Y2866260D01*
X6826213D01*
X6834084Y2874131D01*
Y2882003D01*
X6826213Y2889874D01*
X6802598D01*
X6826213D01*
X6834084Y2897746D01*
Y2905617D01*
X6826213Y2913489D01*
X6802598D01*
X6873442D02*
X6857699D01*
X6849827Y2905617D01*
Y2874131D01*
X6857699Y2866260D01*
X6873442D01*
X6881313Y2874131D01*
Y2905617D01*
X6873442Y2913489D01*
X6897056D02*
X6928542D01*
X6912799D01*
Y2866260D01*
X6944285Y2913489D02*
X6975771D01*
X6960028D01*
Y2866260D01*
X7015128Y2913489D02*
X6999385D01*
X6991514Y2905617D01*
Y2874131D01*
X6999385Y2866260D01*
X7015128D01*
X7022999Y2874131D01*
Y2905617D01*
X7015128Y2913489D01*
X7038742Y2866260D02*
Y2913489D01*
X7054485Y2897746D01*
X7070228Y2913489D01*
Y2866260D01*
X6798661Y3563110D02*
Y3610339D01*
X6822276D01*
X6830147Y3602468D01*
Y3586725D01*
X6822276Y3578853D01*
X6798661D01*
X6845890Y3563110D02*
X6861633D01*
X6853762D01*
Y3610339D01*
X6845890D01*
X6893119Y3594596D02*
X6908862D01*
X6916734Y3586725D01*
Y3563110D01*
X6893119D01*
X6885248Y3570982D01*
X6893119Y3578853D01*
X6916734D01*
X6963962Y3594596D02*
X6940348D01*
X6932476Y3586725D01*
Y3570982D01*
X6940348Y3563110D01*
X6963962D01*
X7003320D02*
X6987577D01*
X6979705Y3570982D01*
Y3586725D01*
X6987577Y3594596D01*
X7003320D01*
X7011191Y3586725D01*
Y3578853D01*
X6979705D01*
X7074163Y3610339D02*
X7105649Y3563110D01*
Y3610339D02*
X7074163Y3563110D01*
X7121392D02*
X7145006D01*
X7152877Y3570982D01*
X7145006Y3578853D01*
X7129263D01*
X7121392Y3586725D01*
X7129263Y3594596D01*
X7152877D01*
X7192235Y3563110D02*
X7176492D01*
X7168620Y3570982D01*
Y3586725D01*
X7176492Y3594596D01*
X7192235D01*
X7200106Y3586725D01*
Y3578853D01*
X7168620D01*
X7215849Y3563110D02*
Y3594596D01*
X7239464D01*
X7247335Y3586725D01*
Y3563110D01*
X7263078D02*
X7286692D01*
X7294564Y3570982D01*
X7286692Y3578853D01*
X7270949D01*
X7263078Y3586725D01*
X7270949Y3594596D01*
X7294564D01*
X6794724Y3511914D02*
Y3464685D01*
X6818339D01*
X6826210Y3472557D01*
Y3504042D01*
X6818339Y3511914D01*
X6794724D01*
X6865568Y3464685D02*
X6849825D01*
X6841953Y3472557D01*
Y3488299D01*
X6849825Y3496171D01*
X6865568D01*
X6873439Y3488299D01*
Y3480428D01*
X6841953D01*
X6889182Y3496171D02*
X6904925Y3464685D01*
X6920668Y3496171D01*
X6983640Y3511914D02*
Y3464685D01*
X7007254D01*
X7015126Y3472557D01*
Y3480428D01*
X7007254Y3488299D01*
X6983640D01*
X7007254D01*
X7015126Y3496171D01*
Y3504042D01*
X7007254Y3511914D01*
X6983640D01*
X7038740Y3464685D02*
X7054483D01*
X7062354Y3472557D01*
Y3488299D01*
X7054483Y3496171D01*
X7038740D01*
X7030868Y3488299D01*
Y3472557D01*
X7038740Y3464685D01*
X7085969Y3496171D02*
X7101712D01*
X7109583Y3488299D01*
Y3464685D01*
X7085969D01*
X7078097Y3472557D01*
X7085969Y3480428D01*
X7109583D01*
X7125326Y3496171D02*
Y3464685D01*
Y3480428D01*
X7133198Y3488299D01*
X7141069Y3496171D01*
X7148940D01*
X7204041Y3511914D02*
Y3464685D01*
X7180426D01*
X7172555Y3472557D01*
Y3488299D01*
X7180426Y3496171D01*
X7204041D01*
X6794724Y3405615D02*
Y3366257D01*
X6802596Y3358386D01*
X6818339D01*
X6826210Y3366257D01*
Y3405615D01*
X6841953Y3358386D02*
Y3389872D01*
X6865568D01*
X6873439Y3382000D01*
Y3358386D01*
X6920668Y3405615D02*
Y3358386D01*
X6897053D01*
X6889182Y3366257D01*
Y3382000D01*
X6897053Y3389872D01*
X6920668D01*
X6960025Y3358386D02*
X6944282D01*
X6936411Y3366257D01*
Y3382000D01*
X6944282Y3389872D01*
X6960025D01*
X6967897Y3382000D01*
Y3374129D01*
X6936411D01*
X6983640Y3389872D02*
Y3358386D01*
Y3374129D01*
X6991511Y3382000D01*
X6999382Y3389872D01*
X7007254D01*
X7030868Y3358386D02*
Y3389872D01*
X7054483D01*
X7062354Y3382000D01*
Y3358386D01*
X7101712D02*
X7085969D01*
X7078097Y3366257D01*
Y3382000D01*
X7085969Y3389872D01*
X7101712D01*
X7109583Y3382000D01*
Y3374129D01*
X7078097D01*
X7133198Y3389872D02*
X7148940D01*
X7156812Y3382000D01*
Y3358386D01*
X7133198D01*
X7125326Y3366257D01*
X7133198Y3374129D01*
X7156812D01*
X7180426Y3397743D02*
Y3389872D01*
X7172555D01*
X7188298D01*
X7180426D01*
Y3366257D01*
X7188298Y3358386D01*
X7211912Y3405615D02*
Y3358386D01*
Y3382000D01*
X7219784Y3389872D01*
X7235527D01*
X7243398Y3382000D01*
Y3358386D01*
X4910000Y4364357D02*
Y4324370D01*
X4870013Y4364357D01*
X4860016D01*
X4850019Y4354360D01*
Y4334367D01*
X4860016Y4324370D01*
X4815000Y4334370D02*
Y4354364D01*
Y4344367D01*
X4755019D01*
X4765016Y4334370D01*
X3630000Y4354357D02*
Y4314370D01*
X3590013Y4354357D01*
X3580016D01*
X3570019Y4344360D01*
Y4324367D01*
X3580016Y4314370D01*
X3535000Y4324370D02*
Y4344364D01*
Y4334367D01*
X3475019D01*
X3485016Y4324370D01*
X4275000Y4364357D02*
Y4324370D01*
X4235013Y4364357D01*
X4225016D01*
X4215019Y4354360D01*
Y4334367D01*
X4225016Y4324370D01*
X4180000Y4334370D02*
Y4354364D01*
Y4344367D01*
X4120019D01*
X4130016Y4334370D01*
X6810000Y4374357D02*
Y4334370D01*
X6770013Y4374357D01*
X6760016D01*
X6750019Y4364360D01*
Y4344367D01*
X6760016Y4334370D01*
X6715000Y4344370D02*
Y4364364D01*
Y4354367D01*
X6655019D01*
X6665016Y4344370D01*
X6185000Y4369357D02*
Y4329370D01*
X6145013Y4369357D01*
X6135016D01*
X6125019Y4359360D01*
Y4339367D01*
X6135016Y4329370D01*
X6090000Y4339370D02*
Y4359364D01*
Y4349367D01*
X6030019D01*
X6040016Y4339370D01*
X5555000Y4364357D02*
Y4324370D01*
X5515013Y4364357D01*
X5505016D01*
X5495019Y4354360D01*
Y4334367D01*
X5505016Y4324370D01*
X5460000Y4334370D02*
Y4354364D01*
Y4344367D01*
X5400019D01*
X5410016Y4334370D01*
X8085000Y4369357D02*
Y4329370D01*
X8045013Y4369357D01*
X8035016D01*
X8025019Y4359360D01*
Y4339367D01*
X8035016Y4329370D01*
X7990000Y4339370D02*
Y4359364D01*
Y4349367D01*
X7930019D01*
X7940016Y4339370D01*
X7445000Y4369357D02*
Y4329370D01*
X7405013Y4369357D01*
X7395016D01*
X7385019Y4359360D01*
Y4339367D01*
X7395016Y4329370D01*
X7350000Y4339370D02*
Y4359364D01*
Y4349367D01*
X7290019D01*
X7300016Y4339370D01*
X4972520Y2909981D02*
Y2859997D01*
X4982516Y2850000D01*
X5002510D01*
X5012507Y2859997D01*
Y2909981D01*
X5032500Y2859997D02*
X5042497Y2850000D01*
X5062491D01*
X5072487Y2859997D01*
Y2899984D01*
X5062491Y2909981D01*
X5042497D01*
X5032500Y2899984D01*
Y2889987D01*
X5042497Y2879990D01*
X5072487D01*
X7535000Y3174351D02*
Y3124367D01*
X7544997Y3114370D01*
X7564990D01*
X7574987Y3124367D01*
Y3174351D01*
X7594981Y3164354D02*
X7604977Y3174351D01*
X7624971D01*
X7634968Y3164354D01*
Y3154357D01*
X7624971Y3144360D01*
X7634968Y3134364D01*
Y3124367D01*
X7624971Y3114370D01*
X7604977D01*
X7594981Y3124367D01*
Y3134364D01*
X7604977Y3144360D01*
X7594981Y3154357D01*
Y3164354D01*
X7604977Y3144360D02*
X7624971D01*
X7540000Y2144351D02*
Y2094367D01*
X7549997Y2084370D01*
X7569990D01*
X7579987Y2094367D01*
Y2144351D01*
X7599981D02*
X7639968D01*
Y2134354D01*
X7599981Y2094367D01*
Y2084370D01*
X6302020Y2373481D02*
Y2323497D01*
X6312016Y2313500D01*
X6332010D01*
X6342007Y2323497D01*
Y2373481D01*
X6401987D02*
X6381994Y2363484D01*
X6362000Y2343490D01*
Y2323497D01*
X6371997Y2313500D01*
X6391991D01*
X6401987Y2323497D01*
Y2333494D01*
X6391991Y2343490D01*
X6362000D01*
X2900000Y3419984D02*
Y3378331D01*
X2908331Y3370000D01*
X2924992D01*
X2933323Y3378331D01*
Y3419984D01*
X2983306D02*
X2949984D01*
Y3394992D01*
X2966645Y3403323D01*
X2974976D01*
X2983306Y3394992D01*
Y3378331D01*
X2974976Y3370000D01*
X2958314D01*
X2949984Y3378331D01*
X2915000Y2706559D02*
Y2664905D01*
X2923331Y2656575D01*
X2939992D01*
X2948323Y2664905D01*
Y2706559D01*
X2989976Y2656575D02*
Y2706559D01*
X2964984Y2681567D01*
X2998306D01*
X4315000Y3259981D02*
Y3209997D01*
X4324997Y3200000D01*
X4344990D01*
X4354987Y3209997D01*
Y3259981D01*
X4374981Y3249984D02*
X4384977Y3259981D01*
X4404971D01*
X4414968Y3249984D01*
Y3239987D01*
X4404971Y3229990D01*
X4394974D01*
X4404971D01*
X4414968Y3219994D01*
Y3209997D01*
X4404971Y3200000D01*
X4384977D01*
X4374981Y3209997D01*
X2930000Y1979984D02*
Y1938331D01*
X2938331Y1930000D01*
X2954992D01*
X2963323Y1938331D01*
Y1979984D01*
X3013306Y1930000D02*
X2979984D01*
X3013306Y1963323D01*
Y1971653D01*
X3004976Y1979984D01*
X2988314D01*
X2979984Y1971653D01*
X2446260Y4090610D02*
Y4040627D01*
X2456257Y4030630D01*
X2476250D01*
X2486247Y4040627D01*
Y4090610D01*
X2506240Y4030630D02*
X2526234D01*
X2516237D01*
Y4090610D01*
X2506240Y4080614D01*
X6482507Y1544984D02*
X6472510Y1554981D01*
X6452516D01*
X6442520Y1544984D01*
Y1534987D01*
X6452516Y1524990D01*
X6472510D01*
X6482507Y1514994D01*
Y1504997D01*
X6472510Y1495000D01*
X6452516D01*
X6442520Y1504997D01*
X6502500Y1495000D02*
X6522494D01*
X6512497D01*
Y1554981D01*
X6502500Y1544984D01*
X4879370Y1535000D02*
Y1594981D01*
X4909360D01*
X4919357Y1584984D01*
Y1564990D01*
X4909360Y1554994D01*
X4879370D01*
X4899364D02*
X4919357Y1535000D01*
X4979338Y1594981D02*
X4959344Y1584984D01*
X4939351Y1564990D01*
Y1544997D01*
X4949347Y1535000D01*
X4969341D01*
X4979338Y1544997D01*
Y1554994D01*
X4969341Y1564990D01*
X4939351D01*
X4999331Y1544997D02*
X5009328Y1535000D01*
X5029322D01*
X5039318Y1544997D01*
Y1584984D01*
X5029322Y1594981D01*
X5009328D01*
X4999331Y1584984D01*
Y1574987D01*
X5009328Y1564990D01*
X5039318D01*
X3410000Y3341575D02*
Y3391559D01*
X3434992D01*
X3443323Y3383228D01*
Y3366567D01*
X3434992Y3358236D01*
X3410000D01*
X3426661D02*
X3443323Y3341575D01*
X3493306Y3391559D02*
X3476645Y3383228D01*
X3459984Y3366567D01*
Y3349905D01*
X3468314Y3341575D01*
X3484976D01*
X3493306Y3349905D01*
Y3358236D01*
X3484976Y3366567D01*
X3459984D01*
X3509968Y3341575D02*
X3526629D01*
X3518298D01*
Y3391559D01*
X3509968Y3383228D01*
X3020000Y3745000D02*
Y3794984D01*
X3044992D01*
X3053323Y3786653D01*
Y3769992D01*
X3044992Y3761661D01*
X3020000D01*
X3036661D02*
X3053323Y3745000D01*
X3103306Y3794984D02*
X3086645Y3786653D01*
X3069984Y3769992D01*
Y3753331D01*
X3078314Y3745000D01*
X3094976D01*
X3103306Y3753331D01*
Y3761661D01*
X3094976Y3769992D01*
X3069984D01*
X3119968Y3786653D02*
X3128298Y3794984D01*
X3144959D01*
X3153290Y3786653D01*
Y3753331D01*
X3144959Y3745000D01*
X3128298D01*
X3119968Y3753331D01*
Y3786653D01*
X3391630Y3666000D02*
Y3715984D01*
X3416622D01*
X3424952Y3707653D01*
Y3690992D01*
X3416622Y3682661D01*
X3391630D01*
X3408291D02*
X3424952Y3666000D01*
X3474936Y3715984D02*
X3441614D01*
Y3690992D01*
X3458275Y3699323D01*
X3466606D01*
X3474936Y3690992D01*
Y3674331D01*
X3466606Y3666000D01*
X3449944D01*
X3441614Y3674331D01*
X3491597D02*
X3499928Y3666000D01*
X3516589D01*
X3524920Y3674331D01*
Y3707653D01*
X3516589Y3715984D01*
X3499928D01*
X3491597Y3707653D01*
Y3699323D01*
X3499928Y3690992D01*
X3524920D01*
X3410000Y2925000D02*
Y2974984D01*
X3434992D01*
X3443323Y2966653D01*
Y2949992D01*
X3434992Y2941661D01*
X3410000D01*
X3426661D02*
X3443323Y2925000D01*
X3493306Y2974984D02*
X3459984D01*
Y2949992D01*
X3476645Y2958323D01*
X3484976D01*
X3493306Y2949992D01*
Y2933331D01*
X3484976Y2925000D01*
X3468314D01*
X3459984Y2933331D01*
X3509968Y2966653D02*
X3518298Y2974984D01*
X3534959D01*
X3543290Y2966653D01*
Y2958323D01*
X3534959Y2949992D01*
X3543290Y2941661D01*
Y2933331D01*
X3534959Y2925000D01*
X3518298D01*
X3509968Y2933331D01*
Y2941661D01*
X3518298Y2949992D01*
X3509968Y2958323D01*
Y2966653D01*
X3518298Y2949992D02*
X3534959D01*
X3050000Y3031575D02*
Y3081559D01*
X3074992D01*
X3083323Y3073228D01*
Y3056567D01*
X3074992Y3048236D01*
X3050000D01*
X3066661D02*
X3083323Y3031575D01*
X3133306Y3081559D02*
X3099984D01*
Y3056567D01*
X3116645Y3064897D01*
X3124976D01*
X3133306Y3056567D01*
Y3039905D01*
X3124976Y3031575D01*
X3108314D01*
X3099984Y3039905D01*
X3149968Y3081559D02*
X3183290D01*
Y3073228D01*
X3149968Y3039905D01*
Y3031575D01*
X3420000Y2670000D02*
Y2719984D01*
X3444992D01*
X3453323Y2711653D01*
Y2694992D01*
X3444992Y2686661D01*
X3420000D01*
X3436661D02*
X3453323Y2670000D01*
X3503306Y2719984D02*
X3469984D01*
Y2694992D01*
X3486645Y2703323D01*
X3494976D01*
X3503306Y2694992D01*
Y2678331D01*
X3494976Y2670000D01*
X3478314D01*
X3469984Y2678331D01*
X3553290Y2719984D02*
X3536629Y2711653D01*
X3519968Y2694992D01*
Y2678331D01*
X3528298Y2670000D01*
X3544959D01*
X3553290Y2678331D01*
Y2686661D01*
X3544959Y2694992D01*
X3519968D01*
X3435000Y1921575D02*
Y1971559D01*
X3459992D01*
X3468323Y1963228D01*
Y1946567D01*
X3459992Y1938236D01*
X3435000D01*
X3451661D02*
X3468323Y1921575D01*
X3518306Y1971559D02*
X3484984D01*
Y1946567D01*
X3501645Y1954897D01*
X3509976D01*
X3518306Y1946567D01*
Y1929905D01*
X3509976Y1921575D01*
X3493314D01*
X3484984Y1929905D01*
X3568290Y1971559D02*
X3534968D01*
Y1946567D01*
X3551629Y1954897D01*
X3559959D01*
X3568290Y1946567D01*
Y1929905D01*
X3559959Y1921575D01*
X3543298D01*
X3534968Y1929905D01*
X3050000Y2306575D02*
Y2356559D01*
X3074992D01*
X3083323Y2348228D01*
Y2331567D01*
X3074992Y2323236D01*
X3050000D01*
X3066661D02*
X3083323Y2306575D01*
X3133306Y2356559D02*
X3099984D01*
Y2331567D01*
X3116645Y2339897D01*
X3124976D01*
X3133306Y2331567D01*
Y2314905D01*
X3124976Y2306575D01*
X3108314D01*
X3099984Y2314905D01*
X3174959Y2306575D02*
Y2356559D01*
X3149968Y2331567D01*
X3183290D01*
X3421630Y2241000D02*
Y2290984D01*
X3446622D01*
X3454952Y2282653D01*
Y2265992D01*
X3446622Y2257661D01*
X3421630D01*
X3438291D02*
X3454952Y2241000D01*
X3504936Y2290984D02*
X3471614D01*
Y2265992D01*
X3488275Y2274323D01*
X3496606D01*
X3504936Y2265992D01*
Y2249331D01*
X3496606Y2241000D01*
X3479944D01*
X3471614Y2249331D01*
X3521597Y2282653D02*
X3529928Y2290984D01*
X3546589D01*
X3554920Y2282653D01*
Y2274323D01*
X3546589Y2265992D01*
X3538259D01*
X3546589D01*
X3554920Y2257661D01*
Y2249331D01*
X3546589Y2241000D01*
X3529928D01*
X3521597Y2249331D01*
X7830000Y3355000D02*
Y3414981D01*
X7859990D01*
X7869987Y3404984D01*
Y3384990D01*
X7859990Y3374994D01*
X7830000D01*
X7849993D02*
X7869987Y3355000D01*
X7929968Y3414981D02*
X7889981D01*
Y3384990D01*
X7909974Y3394987D01*
X7919971D01*
X7929968Y3384990D01*
Y3364997D01*
X7919971Y3355000D01*
X7899977D01*
X7889981Y3364997D01*
X7989948Y3355000D02*
X7949961D01*
X7989948Y3394987D01*
Y3404984D01*
X7979952Y3414981D01*
X7959958D01*
X7949961Y3404984D01*
X8070000Y4208740D02*
Y4248727D01*
X8089993D01*
X8096658Y4242063D01*
Y4228734D01*
X8089993Y4222069D01*
X8070000D01*
X8083329D02*
X8096658Y4208740D01*
X8129981D02*
Y4248727D01*
X8109987Y4228734D01*
X8136645D01*
X8176632Y4208740D02*
X8149974D01*
X8176632Y4235398D01*
Y4242063D01*
X8169968Y4248727D01*
X8156639D01*
X8149974Y4242063D01*
X7430000Y4204370D02*
Y4244357D01*
X7449993D01*
X7456658Y4237693D01*
Y4224364D01*
X7449993Y4217699D01*
X7430000D01*
X7443329D02*
X7456658Y4204370D01*
X7489981D02*
Y4244357D01*
X7469987Y4224364D01*
X7496645D01*
X7509974Y4204370D02*
X7523303D01*
X7516639D01*
Y4244357D01*
X7509974Y4237693D01*
X7735000Y4209370D02*
Y4249357D01*
X7754993D01*
X7761658Y4242693D01*
Y4229364D01*
X7754993Y4222699D01*
X7735000D01*
X7748329D02*
X7761658Y4209370D01*
X7794981D02*
Y4249357D01*
X7774987Y4229364D01*
X7801645D01*
X7814974Y4242693D02*
X7821639Y4249357D01*
X7834968D01*
X7841632Y4242693D01*
Y4216035D01*
X7834968Y4209370D01*
X7821639D01*
X7814974Y4216035D01*
Y4242693D01*
X7090000Y4204370D02*
Y4244357D01*
X7109993D01*
X7116658Y4237693D01*
Y4224364D01*
X7109993Y4217699D01*
X7090000D01*
X7103329D02*
X7116658Y4204370D01*
X7129987Y4237693D02*
X7136652Y4244357D01*
X7149981D01*
X7156645Y4237693D01*
Y4231028D01*
X7149981Y4224364D01*
X7143316D01*
X7149981D01*
X7156645Y4217699D01*
Y4211035D01*
X7149981Y4204370D01*
X7136652D01*
X7129987Y4211035D01*
X7169974D02*
X7176639Y4204370D01*
X7189968D01*
X7196632Y4211035D01*
Y4237693D01*
X7189968Y4244357D01*
X7176639D01*
X7169974Y4237693D01*
Y4231028D01*
X7176639Y4224364D01*
X7196632D01*
X6795000Y4209370D02*
Y4249357D01*
X6814993D01*
X6821658Y4242693D01*
Y4229364D01*
X6814993Y4222699D01*
X6795000D01*
X6808329D02*
X6821658Y4209370D01*
X6834987Y4242693D02*
X6841652Y4249357D01*
X6854981D01*
X6861645Y4242693D01*
Y4236028D01*
X6854981Y4229364D01*
X6848316D01*
X6854981D01*
X6861645Y4222699D01*
Y4216035D01*
X6854981Y4209370D01*
X6841652D01*
X6834987Y4216035D01*
X6874974Y4242693D02*
X6881639Y4249357D01*
X6894968D01*
X6901632Y4242693D01*
Y4236028D01*
X6894968Y4229364D01*
X6901632Y4222699D01*
Y4216035D01*
X6894968Y4209370D01*
X6881639D01*
X6874974Y4216035D01*
Y4222699D01*
X6881639Y4229364D01*
X6874974Y4236028D01*
Y4242693D01*
X6881639Y4229364D02*
X6894968D01*
X6170000Y4209370D02*
Y4249357D01*
X6189993D01*
X6196658Y4242693D01*
Y4229364D01*
X6189993Y4222699D01*
X6170000D01*
X6183329D02*
X6196658Y4209370D01*
X6209987Y4242693D02*
X6216652Y4249357D01*
X6229981D01*
X6236645Y4242693D01*
Y4236028D01*
X6229981Y4229364D01*
X6223316D01*
X6229981D01*
X6236645Y4222699D01*
Y4216035D01*
X6229981Y4209370D01*
X6216652D01*
X6209987Y4216035D01*
X6249974Y4249357D02*
X6276632D01*
Y4242693D01*
X6249974Y4216035D01*
Y4209370D01*
X5540000Y4204370D02*
Y4244357D01*
X5559993D01*
X5566658Y4237693D01*
Y4224364D01*
X5559993Y4217699D01*
X5540000D01*
X5553329D02*
X5566658Y4204370D01*
X5579987Y4237693D02*
X5586652Y4244357D01*
X5599981D01*
X5606645Y4237693D01*
Y4231028D01*
X5599981Y4224364D01*
X5593316D01*
X5599981D01*
X5606645Y4217699D01*
Y4211035D01*
X5599981Y4204370D01*
X5586652D01*
X5579987Y4211035D01*
X5646632Y4244357D02*
X5633303Y4237693D01*
X5619974Y4224364D01*
Y4211035D01*
X5626639Y4204370D01*
X5639968D01*
X5646632Y4211035D01*
Y4217699D01*
X5639968Y4224364D01*
X5619974D01*
X6455000Y4209370D02*
Y4249357D01*
X6474993D01*
X6481658Y4242693D01*
Y4229364D01*
X6474993Y4222699D01*
X6455000D01*
X6468329D02*
X6481658Y4209370D01*
X6494987Y4242693D02*
X6501652Y4249357D01*
X6514981D01*
X6521645Y4242693D01*
Y4236028D01*
X6514981Y4229364D01*
X6508316D01*
X6514981D01*
X6521645Y4222699D01*
Y4216035D01*
X6514981Y4209370D01*
X6501652D01*
X6494987Y4216035D01*
X6561632Y4249357D02*
X6534974D01*
Y4229364D01*
X6548303Y4236028D01*
X6554968D01*
X6561632Y4229364D01*
Y4216035D01*
X6554968Y4209370D01*
X6541639D01*
X6534974Y4216035D01*
X5830000Y4214370D02*
Y4254357D01*
X5849993D01*
X5856658Y4247693D01*
Y4234364D01*
X5849993Y4227699D01*
X5830000D01*
X5843329D02*
X5856658Y4214370D01*
X5869987Y4247693D02*
X5876652Y4254357D01*
X5889981D01*
X5896645Y4247693D01*
Y4241028D01*
X5889981Y4234364D01*
X5883316D01*
X5889981D01*
X5896645Y4227699D01*
Y4221035D01*
X5889981Y4214370D01*
X5876652D01*
X5869987Y4221035D01*
X5929968Y4214370D02*
Y4254357D01*
X5909974Y4234364D01*
X5936632D01*
X4265000Y4194370D02*
Y4234357D01*
X4284993D01*
X4291658Y4227693D01*
Y4214364D01*
X4284993Y4207699D01*
X4265000D01*
X4278329D02*
X4291658Y4194370D01*
X4304987Y4227693D02*
X4311652Y4234357D01*
X4324981D01*
X4331645Y4227693D01*
Y4221028D01*
X4324981Y4214364D01*
X4318316D01*
X4324981D01*
X4331645Y4207699D01*
Y4201035D01*
X4324981Y4194370D01*
X4311652D01*
X4304987Y4201035D01*
X4344974Y4227693D02*
X4351639Y4234357D01*
X4364968D01*
X4371632Y4227693D01*
Y4221028D01*
X4364968Y4214364D01*
X4358303D01*
X4364968D01*
X4371632Y4207699D01*
Y4201035D01*
X4364968Y4194370D01*
X4351639D01*
X4344974Y4201035D01*
X3910000Y4199370D02*
Y4239357D01*
X3929994D01*
X3936658Y4232693D01*
Y4219364D01*
X3929994Y4212699D01*
X3910000D01*
X3923329D02*
X3936658Y4199370D01*
X3949987Y4232693D02*
X3956652Y4239357D01*
X3969981D01*
X3976645Y4232693D01*
Y4226028D01*
X3969981Y4219364D01*
X3963316D01*
X3969981D01*
X3976645Y4212699D01*
Y4206035D01*
X3969981Y4199370D01*
X3956652D01*
X3949987Y4206035D01*
X4016632Y4199370D02*
X3989974D01*
X4016632Y4226028D01*
Y4232693D01*
X4009968Y4239357D01*
X3996639D01*
X3989974Y4232693D01*
X5200000Y4204370D02*
Y4244357D01*
X5219993D01*
X5226658Y4237693D01*
Y4224364D01*
X5219993Y4217699D01*
X5200000D01*
X5213329D02*
X5226658Y4204370D01*
X5266645D02*
X5239987D01*
X5266645Y4231028D01*
Y4237693D01*
X5259981Y4244357D01*
X5246652D01*
X5239987Y4237693D01*
X5279974Y4211035D02*
X5286639Y4204370D01*
X5299968D01*
X5306632Y4211035D01*
Y4237693D01*
X5299968Y4244357D01*
X5286639D01*
X5279974Y4237693D01*
Y4231028D01*
X5286639Y4224364D01*
X5306632D01*
X4895000Y4189370D02*
Y4229357D01*
X4914993D01*
X4921658Y4222693D01*
Y4209364D01*
X4914993Y4202699D01*
X4895000D01*
X4908329D02*
X4921658Y4189370D01*
X4961645D02*
X4934987D01*
X4961645Y4216028D01*
Y4222693D01*
X4954981Y4229357D01*
X4941652D01*
X4934987Y4222693D01*
X4974974D02*
X4981639Y4229357D01*
X4994968D01*
X5001632Y4222693D01*
Y4216028D01*
X4994968Y4209364D01*
X5001632Y4202699D01*
Y4196035D01*
X4994968Y4189370D01*
X4981639D01*
X4974974Y4196035D01*
Y4202699D01*
X4981639Y4209364D01*
X4974974Y4216028D01*
Y4222693D01*
X4981639Y4209364D02*
X4994968D01*
X7840000Y2330000D02*
Y2389981D01*
X7869990D01*
X7879987Y2379984D01*
Y2359990D01*
X7869990Y2349994D01*
X7840000D01*
X7859993D02*
X7879987Y2330000D01*
X7939968D02*
X7899981D01*
X7939968Y2369987D01*
Y2379984D01*
X7929971Y2389981D01*
X7909977D01*
X7899981Y2379984D01*
X7959961Y2389981D02*
X7999948D01*
Y2379984D01*
X7959961Y2339997D01*
Y2330000D01*
X6279370Y3820000D02*
Y3879981D01*
X6309360D01*
X6319357Y3869984D01*
Y3849990D01*
X6309360Y3839994D01*
X6279370D01*
X6299364D02*
X6319357Y3820000D01*
X6379338D02*
X6339351D01*
X6379338Y3859987D01*
Y3869984D01*
X6369341Y3879981D01*
X6349347D01*
X6339351Y3869984D01*
X6439318Y3879981D02*
X6419325Y3869984D01*
X6399331Y3849990D01*
Y3829997D01*
X6409328Y3820000D01*
X6429322D01*
X6439318Y3829997D01*
Y3839994D01*
X6429322Y3849990D01*
X6399331D01*
X3625000Y4194370D02*
Y4234357D01*
X3644994D01*
X3651658Y4227693D01*
Y4214364D01*
X3644994Y4207699D01*
X3625000D01*
X3638329D02*
X3651658Y4194370D01*
X3664987D02*
X3678316D01*
X3671652D01*
Y4234357D01*
X3664987Y4227693D01*
X3724968Y4234357D02*
X3711639Y4227693D01*
X3698310Y4214364D01*
Y4201035D01*
X3704974Y4194370D01*
X3718303D01*
X3724968Y4201035D01*
Y4207699D01*
X3718303Y4214364D01*
X3698310D01*
X4545000Y4194370D02*
Y4234357D01*
X4564993D01*
X4571658Y4227693D01*
Y4214364D01*
X4564993Y4207699D01*
X4545000D01*
X4558329D02*
X4571658Y4194370D01*
X4584987D02*
X4598316D01*
X4591652D01*
Y4234357D01*
X4584987Y4227693D01*
X4644968Y4234357D02*
X4618310D01*
Y4214364D01*
X4631639Y4221028D01*
X4638303D01*
X4644968Y4214364D01*
Y4201035D01*
X4638303Y4194370D01*
X4624974D01*
X4618310Y4201035D01*
X3285000Y4250000D02*
Y4289987D01*
X3304994D01*
X3311658Y4283323D01*
Y4269993D01*
X3304994Y4263329D01*
X3285000D01*
X3298329D02*
X3311658Y4250000D01*
X3324987D02*
X3338316D01*
X3331652D01*
Y4289987D01*
X3324987Y4283323D01*
X3378303Y4250000D02*
Y4289987D01*
X3358310Y4269993D01*
X3384968D01*
X2260000Y1505000D02*
Y1564981D01*
X2289990D01*
X2299987Y1554984D01*
Y1534990D01*
X2289990Y1524994D01*
X2260000D01*
X2279994D02*
X2299987Y1505000D01*
X2319981D02*
X2339974D01*
X2329977D01*
Y1564981D01*
X2319981Y1554984D01*
X2369964D02*
X2379961Y1564981D01*
X2399955D01*
X2409952Y1554984D01*
Y1544987D01*
X2399955Y1534990D01*
X2389958D01*
X2399955D01*
X2409952Y1524994D01*
Y1514997D01*
X2399955Y1505000D01*
X2379961D01*
X2369964Y1514997D01*
X2070630Y1865000D02*
Y1924981D01*
X2100620D01*
X2110617Y1914984D01*
Y1894990D01*
X2100620Y1884994D01*
X2070630D01*
X2090623D02*
X2110617Y1865000D01*
X2130610D02*
X2150604D01*
X2140607D01*
Y1924981D01*
X2130610Y1914984D01*
X2220581Y1865000D02*
X2180594D01*
X2220581Y1904987D01*
Y1914984D01*
X2210585Y1924981D01*
X2190591D01*
X2180594Y1914984D01*
X2085630Y2310000D02*
Y2369981D01*
X2115620D01*
X2125617Y2359984D01*
Y2339990D01*
X2115620Y2329994D01*
X2085630D01*
X2105623D02*
X2125617Y2310000D01*
X2145610D02*
X2165604D01*
X2155607D01*
Y2369981D01*
X2145610Y2359984D01*
X2195594Y2310000D02*
X2215588D01*
X2205591D01*
Y2369981D01*
X2195594Y2359984D01*
X2080630Y2790000D02*
Y2849981D01*
X2110620D01*
X2120617Y2839984D01*
Y2819990D01*
X2110620Y2809994D01*
X2080630D01*
X2100623D02*
X2120617Y2790000D01*
X2140610D02*
X2160604D01*
X2150607D01*
Y2849981D01*
X2140610Y2839984D01*
X2190594D02*
X2200591Y2849981D01*
X2220585D01*
X2230581Y2839984D01*
Y2799997D01*
X2220585Y2790000D01*
X2200591D01*
X2190594Y2799997D01*
Y2839984D01*
X2935000Y4400000D02*
Y4459981D01*
X2964990D01*
X2974987Y4449984D01*
Y4429990D01*
X2964990Y4419993D01*
X2935000D01*
X2954994D02*
X2974987Y4400000D01*
X2994981Y4409997D02*
X3004977Y4400000D01*
X3024971D01*
X3034968Y4409997D01*
Y4449984D01*
X3024971Y4459981D01*
X3004977D01*
X2994981Y4449984D01*
Y4439987D01*
X3004977Y4429990D01*
X3034968D01*
X1791260Y4345000D02*
Y4404981D01*
X1821250D01*
X1831247Y4394984D01*
Y4374990D01*
X1821250Y4364993D01*
X1791260D01*
X1811253D02*
X1831247Y4345000D01*
X1891227Y4404981D02*
X1871234Y4394984D01*
X1851240Y4374990D01*
Y4354997D01*
X1861237Y4345000D01*
X1881231D01*
X1891227Y4354997D01*
Y4364993D01*
X1881231Y4374990D01*
X1851240D01*
X1786260Y4800000D02*
Y4859981D01*
X1816250D01*
X1826247Y4849984D01*
Y4829990D01*
X1816250Y4819993D01*
X1786260D01*
X1806253D02*
X1826247Y4800000D01*
X1886227Y4859981D02*
X1846240D01*
Y4829990D01*
X1866234Y4839987D01*
X1876231D01*
X1886227Y4829990D01*
Y4809997D01*
X1876231Y4800000D01*
X1856237D01*
X1846240Y4809997D01*
X2100630Y3240000D02*
Y3299981D01*
X2130620D01*
X2140617Y3289984D01*
Y3269990D01*
X2130620Y3259994D01*
X2100630D01*
X2120623D02*
X2140617Y3240000D01*
X2190601D02*
Y3299981D01*
X2160610Y3269990D01*
X2200598D01*
X2106260Y3690000D02*
Y3749981D01*
X2136250D01*
X2146247Y3739984D01*
Y3719990D01*
X2136250Y3709994D01*
X2106260D01*
X2126253D02*
X2146247Y3690000D01*
X2166240Y3739984D02*
X2176237Y3749981D01*
X2196231D01*
X2206227Y3739984D01*
Y3729987D01*
X2196231Y3719990D01*
X2186234D01*
X2196231D01*
X2206227Y3709994D01*
Y3699997D01*
X2196231Y3690000D01*
X2176237D01*
X2166240Y3699997D01*
X2111260Y4140000D02*
Y4199981D01*
X2141250D01*
X2151247Y4189984D01*
Y4169990D01*
X2141250Y4159993D01*
X2111260D01*
X2131253D02*
X2151247Y4140000D01*
X2211227D02*
X2171240D01*
X2211227Y4179987D01*
Y4189984D01*
X2201231Y4199981D01*
X2181237D01*
X2171240Y4189984D01*
X2131260Y4595000D02*
Y4654981D01*
X2161250D01*
X2171247Y4644984D01*
Y4624990D01*
X2161250Y4614993D01*
X2131260D01*
X2151253D02*
X2171247Y4595000D01*
X2191240D02*
X2211234D01*
X2201237D01*
Y4654981D01*
X2191240Y4644984D01*
X1825617Y1264997D02*
Y1304984D01*
X1815620Y1314981D01*
X1795627D01*
X1785630Y1304984D01*
Y1264997D01*
X1795627Y1255000D01*
X1815620D01*
X1805623Y1274994D02*
X1825617Y1255000D01*
X1815620D02*
X1825617Y1264997D01*
X1845611Y1304984D02*
X1855607Y1314981D01*
X1875601D01*
X1885598Y1304984D01*
Y1294987D01*
X1875601Y1284990D01*
X1885598Y1274994D01*
Y1264997D01*
X1875601Y1255000D01*
X1855607D01*
X1845611Y1264997D01*
Y1274994D01*
X1855607Y1284990D01*
X1845611Y1294987D01*
Y1304984D01*
X1855607Y1284990D02*
X1875601D01*
X1820617Y1724997D02*
Y1764984D01*
X1810620Y1774981D01*
X1790627D01*
X1780630Y1764984D01*
Y1724997D01*
X1790627Y1715000D01*
X1810620D01*
X1800623Y1734994D02*
X1820617Y1715000D01*
X1810620D02*
X1820617Y1724997D01*
X1840611Y1774981D02*
X1880598D01*
Y1764984D01*
X1840611Y1724997D01*
Y1715000D01*
X1815617Y2179997D02*
Y2219984D01*
X1805620Y2229981D01*
X1785627D01*
X1775630Y2219984D01*
Y2179997D01*
X1785627Y2170000D01*
X1805620D01*
X1795623Y2189994D02*
X1815617Y2170000D01*
X1805620D02*
X1815617Y2179997D01*
X1875598Y2229981D02*
X1855604Y2219984D01*
X1835611Y2199990D01*
Y2179997D01*
X1845607Y2170000D01*
X1865601D01*
X1875598Y2179997D01*
Y2189994D01*
X1865601Y2199990D01*
X1835611D01*
X1805617Y2649997D02*
Y2689984D01*
X1795620Y2699981D01*
X1775627D01*
X1765630Y2689984D01*
Y2649997D01*
X1775627Y2640000D01*
X1795620D01*
X1785623Y2659994D02*
X1805617Y2640000D01*
X1795620D02*
X1805617Y2649997D01*
X1865598Y2699981D02*
X1825611D01*
Y2669990D01*
X1845604Y2679987D01*
X1855601D01*
X1865598Y2669990D01*
Y2649997D01*
X1855601Y2640000D01*
X1835607D01*
X1825611Y2649997D01*
X1821247Y3104997D02*
Y3144984D01*
X1811250Y3154981D01*
X1791257D01*
X1781260Y3144984D01*
Y3104997D01*
X1791257Y3095000D01*
X1811250D01*
X1801253Y3114994D02*
X1821247Y3095000D01*
X1811250D02*
X1821247Y3104997D01*
X1871231Y3095000D02*
Y3154981D01*
X1841240Y3124990D01*
X1881227D01*
X1831247Y3559997D02*
Y3599984D01*
X1821250Y3609981D01*
X1801257D01*
X1791260Y3599984D01*
Y3559997D01*
X1801257Y3550000D01*
X1821250D01*
X1811253Y3569994D02*
X1831247Y3550000D01*
X1821250D02*
X1831247Y3559997D01*
X1851240Y3599984D02*
X1861237Y3609981D01*
X1881231D01*
X1891227Y3599984D01*
Y3589987D01*
X1881231Y3579990D01*
X1871234D01*
X1881231D01*
X1891227Y3569994D01*
Y3559997D01*
X1881231Y3550000D01*
X1861237D01*
X1851240Y3559997D01*
X1831247Y4004997D02*
Y4044984D01*
X1821250Y4054981D01*
X1801257D01*
X1791260Y4044984D01*
Y4004997D01*
X1801257Y3995000D01*
X1821250D01*
X1811253Y4014994D02*
X1831247Y3995000D01*
X1821250D02*
X1831247Y4004997D01*
X1891227Y3995000D02*
X1851240D01*
X1891227Y4034987D01*
Y4044984D01*
X1881231Y4054981D01*
X1861237D01*
X1851240Y4044984D01*
X1851247Y4459997D02*
Y4499984D01*
X1841250Y4509981D01*
X1821257D01*
X1811260Y4499984D01*
Y4459997D01*
X1821257Y4450000D01*
X1841250D01*
X1831253Y4469993D02*
X1851247Y4450000D01*
X1841250D02*
X1851247Y4459997D01*
X1871240Y4450000D02*
X1891234D01*
X1881237D01*
Y4509981D01*
X1871240Y4499984D01*
X7605630Y4922000D02*
Y4981981D01*
X7635620D01*
X7645617Y4971984D01*
Y4951990D01*
X7635620Y4941993D01*
X7605630D01*
X7705598Y4922000D02*
X7665610D01*
X7705598Y4961987D01*
Y4971984D01*
X7695601Y4981981D01*
X7675607D01*
X7665610Y4971984D01*
X7755581Y4922000D02*
Y4981981D01*
X7725591Y4951990D01*
X7765578D01*
X6965630Y4922000D02*
Y4981981D01*
X6995620D01*
X7005617Y4971984D01*
Y4951990D01*
X6995620Y4941993D01*
X6965630D01*
X7065598Y4922000D02*
X7025610D01*
X7065598Y4961987D01*
Y4971984D01*
X7055601Y4981981D01*
X7035607D01*
X7025610Y4971984D01*
X7085591D02*
X7095588Y4981981D01*
X7115581D01*
X7125578Y4971984D01*
Y4961987D01*
X7115581Y4951990D01*
X7105585D01*
X7115581D01*
X7125578Y4941993D01*
Y4931997D01*
X7115581Y4922000D01*
X7095588D01*
X7085591Y4931997D01*
X6325630Y4922000D02*
Y4981981D01*
X6355620D01*
X6365617Y4971984D01*
Y4951990D01*
X6355620Y4941993D01*
X6325630D01*
X6425598Y4922000D02*
X6385610D01*
X6425598Y4961987D01*
Y4971984D01*
X6415601Y4981981D01*
X6395607D01*
X6385610Y4971984D01*
X6485578Y4922000D02*
X6445591D01*
X6485578Y4961987D01*
Y4971984D01*
X6475581Y4981981D01*
X6455588D01*
X6445591Y4971984D01*
X5695630Y4922000D02*
Y4981981D01*
X5725620D01*
X5735617Y4971984D01*
Y4951990D01*
X5725620Y4941993D01*
X5695630D01*
X5795598Y4922000D02*
X5755610D01*
X5795598Y4961987D01*
Y4971984D01*
X5785601Y4981981D01*
X5765607D01*
X5755610Y4971984D01*
X5815591Y4922000D02*
X5835585D01*
X5825588D01*
Y4981981D01*
X5815591Y4971984D01*
X5060630Y4922000D02*
Y4981981D01*
X5090620D01*
X5100617Y4971984D01*
Y4951990D01*
X5090620Y4941993D01*
X5060630D01*
X5160598Y4922000D02*
X5120610D01*
X5160598Y4961987D01*
Y4971984D01*
X5150601Y4981981D01*
X5130607D01*
X5120610Y4971984D01*
X5180591D02*
X5190588Y4981981D01*
X5210581D01*
X5220578Y4971984D01*
Y4931997D01*
X5210581Y4922000D01*
X5190588D01*
X5180591Y4931997D01*
Y4971984D01*
X4420630Y4922000D02*
Y4981981D01*
X4450620D01*
X4460617Y4971984D01*
Y4951990D01*
X4450620Y4941993D01*
X4420630D01*
X4480610Y4922000D02*
X4500604D01*
X4490607D01*
Y4981981D01*
X4480610Y4971984D01*
X4530594Y4931997D02*
X4540591Y4922000D01*
X4560585D01*
X4570581Y4931997D01*
Y4971984D01*
X4560585Y4981981D01*
X4540591D01*
X4530594Y4971984D01*
Y4961987D01*
X4540591Y4951990D01*
X4570581D01*
X3785630Y4922000D02*
Y4981981D01*
X3815620D01*
X3825617Y4971984D01*
Y4951990D01*
X3815620Y4941993D01*
X3785630D01*
X3845610Y4922000D02*
X3865604D01*
X3855607D01*
Y4981981D01*
X3845610Y4971984D01*
X3895594D02*
X3905591Y4981981D01*
X3925585D01*
X3935581Y4971984D01*
Y4961987D01*
X3925585Y4951990D01*
X3935581Y4941993D01*
Y4931997D01*
X3925585Y4922000D01*
X3905591D01*
X3895594Y4931997D01*
Y4941993D01*
X3905591Y4951990D01*
X3895594Y4961987D01*
Y4971984D01*
X3905591Y4951990D02*
X3925585D01*
X3148780Y4922000D02*
Y4981981D01*
X3178770D01*
X3188767Y4971984D01*
Y4951990D01*
X3178770Y4941993D01*
X3148780D01*
X3208760Y4922000D02*
X3228754D01*
X3218757D01*
Y4981981D01*
X3208760Y4971984D01*
X3258744Y4981981D02*
X3298731D01*
Y4971984D01*
X3258744Y4931997D01*
Y4922000D01*
X6605370Y4009000D02*
Y4068981D01*
X6635360D01*
X6645357Y4058984D01*
Y4038990D01*
X6635360Y4028994D01*
X6605370D01*
X6665351Y4009000D02*
X6685344D01*
X6675347D01*
Y4068981D01*
X6665351Y4058984D01*
X6755322Y4068981D02*
X6715334D01*
Y4038990D01*
X6735328Y4048987D01*
X6745325D01*
X6755322Y4038990D01*
Y4018997D01*
X6745325Y4009000D01*
X6725331D01*
X6715334Y4018997D01*
X2543000Y3902000D02*
Y3951984D01*
X2567992D01*
X2576323Y3943653D01*
Y3926992D01*
X2567992Y3918661D01*
X2543000D01*
X2592984Y3902000D02*
X2609645D01*
X2601314D01*
Y3951984D01*
X2592984Y3943653D01*
X2659629Y3902000D02*
Y3951984D01*
X2634637Y3926992D01*
X2667960D01*
X2543000Y3185000D02*
Y3234984D01*
X2567992D01*
X2576323Y3226653D01*
Y3209992D01*
X2567992Y3201661D01*
X2543000D01*
X2592984Y3185000D02*
X2609645D01*
X2601314D01*
Y3234984D01*
X2592984Y3226653D01*
X2634637D02*
X2642968Y3234984D01*
X2659629D01*
X2667960Y3226653D01*
Y3218323D01*
X2659629Y3209992D01*
X2651298D01*
X2659629D01*
X2667960Y3201661D01*
Y3193331D01*
X2659629Y3185000D01*
X2642968D01*
X2634637Y3193331D01*
X5357020Y3539500D02*
Y3599481D01*
X5387010D01*
X5397007Y3589484D01*
Y3569490D01*
X5387010Y3559494D01*
X5357020D01*
X5417000Y3539500D02*
X5436994D01*
X5426997D01*
Y3599481D01*
X5417000Y3589484D01*
X5506971Y3539500D02*
X5466984D01*
X5506971Y3579487D01*
Y3589484D01*
X5496974Y3599481D01*
X5476981D01*
X5466984Y3589484D01*
X3867520Y3770000D02*
Y3829981D01*
X3897510D01*
X3907507Y3819984D01*
Y3799990D01*
X3897510Y3789994D01*
X3867520D01*
X3927500Y3770000D02*
X3947494D01*
X3937497D01*
Y3829981D01*
X3927500Y3819984D01*
X3977484Y3770000D02*
X3997478D01*
X3987481D01*
Y3829981D01*
X3977484Y3819984D01*
X3977520Y2298000D02*
Y2357981D01*
X4007510D01*
X4017507Y2347984D01*
Y2327990D01*
X4007510Y2317994D01*
X3977520D01*
X4037500Y2298000D02*
X4057494D01*
X4047497D01*
Y2357981D01*
X4037500Y2347984D01*
X4087484D02*
X4097481Y2357981D01*
X4117474D01*
X4127471Y2347984D01*
Y2307997D01*
X4117474Y2298000D01*
X4097481D01*
X4087484Y2307997D01*
Y2347984D01*
X2543000Y2468000D02*
Y2517984D01*
X2567992D01*
X2576323Y2509653D01*
Y2492992D01*
X2567992Y2484661D01*
X2543000D01*
X2592984Y2476331D02*
X2601314Y2468000D01*
X2617976D01*
X2626306Y2476331D01*
Y2509653D01*
X2617976Y2517984D01*
X2601314D01*
X2592984Y2509653D01*
Y2501323D01*
X2601314Y2492992D01*
X2626306D01*
X4641219Y2520071D02*
X4621226D01*
X4631223D01*
Y2470087D01*
X4621226Y2460091D01*
X4611229D01*
X4601232Y2470087D01*
X4661213Y2460091D02*
X4681206D01*
X4671210D01*
Y2520071D01*
X4661213Y2510074D01*
X4711197D02*
X4721194Y2520071D01*
X4741187D01*
X4751184Y2510074D01*
Y2500078D01*
X4741187Y2490081D01*
X4731190D01*
X4741187D01*
X4751184Y2480084D01*
Y2470087D01*
X4741187Y2460091D01*
X4721194D01*
X4711197Y2470087D01*
X7916987Y4547351D02*
X7896993D01*
X7906990D01*
Y4497367D01*
X7896993Y4487370D01*
X7886997D01*
X7877000Y4497367D01*
X7936981Y4537354D02*
X7946977Y4547351D01*
X7966971D01*
X7976968Y4537354D01*
Y4527357D01*
X7966971Y4517360D01*
X7976968Y4507364D01*
Y4497367D01*
X7966971Y4487370D01*
X7946977D01*
X7936981Y4497367D01*
Y4507364D01*
X7946977Y4517360D01*
X7936981Y4527357D01*
Y4537354D01*
X7946977Y4517360D02*
X7966971D01*
X7276987Y4547351D02*
X7256993D01*
X7266990D01*
Y4497367D01*
X7256993Y4487370D01*
X7246997D01*
X7237000Y4497367D01*
X7296981Y4547351D02*
X7336968D01*
Y4537354D01*
X7296981Y4497367D01*
Y4487370D01*
X6641987Y4552351D02*
X6621993D01*
X6631990D01*
Y4502367D01*
X6621993Y4492370D01*
X6611997D01*
X6602000Y4502367D01*
X6701968Y4552351D02*
X6681974Y4542354D01*
X6661981Y4522360D01*
Y4502367D01*
X6671977Y4492370D01*
X6691971D01*
X6701968Y4502367D01*
Y4512364D01*
X6691971Y4522360D01*
X6661981D01*
X6016987Y4547351D02*
X5996993D01*
X6006990D01*
Y4497367D01*
X5996993Y4487370D01*
X5986997D01*
X5977000Y4497367D01*
X6076968Y4547351D02*
X6036981D01*
Y4517360D01*
X6056974Y4527357D01*
X6066971D01*
X6076968Y4517360D01*
Y4497367D01*
X6066971Y4487370D01*
X6046977D01*
X6036981Y4497367D01*
X5386987Y4542351D02*
X5366993D01*
X5376990D01*
Y4492367D01*
X5366993Y4482370D01*
X5356997D01*
X5347000Y4492367D01*
X5436971Y4482370D02*
Y4542351D01*
X5406981Y4512360D01*
X5446968D01*
X4741987Y4542351D02*
X4721993D01*
X4731990D01*
Y4492367D01*
X4721993Y4482370D01*
X4711997D01*
X4702000Y4492367D01*
X4761981Y4532354D02*
X4771977Y4542351D01*
X4791971D01*
X4801968Y4532354D01*
Y4522357D01*
X4791971Y4512360D01*
X4781974D01*
X4791971D01*
X4801968Y4502364D01*
Y4492367D01*
X4791971Y4482370D01*
X4771977D01*
X4761981Y4492367D01*
X4106987Y4542351D02*
X4086994D01*
X4096990D01*
Y4492367D01*
X4086994Y4482370D01*
X4076997D01*
X4067000Y4492367D01*
X4166968Y4482370D02*
X4126981D01*
X4166968Y4522357D01*
Y4532354D01*
X4156971Y4542351D01*
X4136977D01*
X4126981Y4532354D01*
X3461987Y4532351D02*
X3441994D01*
X3451990D01*
Y4482367D01*
X3441994Y4472370D01*
X3431997D01*
X3422000Y4482367D01*
X3481981Y4472370D02*
X3501974D01*
X3491977D01*
Y4532351D01*
X3481981Y4522354D01*
X3591000Y3713984D02*
Y3664000D01*
X3615992D01*
X3624323Y3672331D01*
Y3705653D01*
X3615992Y3713984D01*
X3591000D01*
X3674306Y3664000D02*
X3640984D01*
X3674306Y3697323D01*
Y3705653D01*
X3665976Y3713984D01*
X3649314D01*
X3640984Y3705653D01*
X3724290Y3664000D02*
X3690968D01*
X3724290Y3697323D01*
Y3705653D01*
X3715959Y3713984D01*
X3699298D01*
X3690968Y3705653D01*
X3616102Y3003984D02*
Y2954000D01*
X3641094D01*
X3649425Y2962331D01*
Y2995653D01*
X3641094Y3003984D01*
X3616102D01*
X3699409Y2954000D02*
X3666086D01*
X3699409Y2987323D01*
Y2995653D01*
X3691078Y3003984D01*
X3674417D01*
X3666086Y2995653D01*
X3716070Y2954000D02*
X3732731D01*
X3724401D01*
Y3003984D01*
X3716070Y2995653D01*
X3621102Y2288984D02*
Y2239000D01*
X3646094D01*
X3654425Y2247331D01*
Y2280653D01*
X3646094Y2288984D01*
X3621102D01*
X3704409Y2239000D02*
X3671086D01*
X3704409Y2272323D01*
Y2280653D01*
X3696078Y2288984D01*
X3679417D01*
X3671086Y2280653D01*
X3721070D02*
X3729401Y2288984D01*
X3746062D01*
X3754393Y2280653D01*
Y2247331D01*
X3746062Y2239000D01*
X3729401D01*
X3721070Y2247331D01*
Y2280653D01*
X2005000Y1664981D02*
Y1605000D01*
X2034990D01*
X2044987Y1614997D01*
Y1654984D01*
X2034990Y1664981D01*
X2005000D01*
X2064981Y1605000D02*
X2084974D01*
X2074977D01*
Y1664981D01*
X2064981Y1654984D01*
X2154952Y1664981D02*
X2134958Y1654984D01*
X2114964Y1634990D01*
Y1614997D01*
X2124961Y1605000D01*
X2144955D01*
X2154952Y1614997D01*
Y1624994D01*
X2144955Y1634990D01*
X2114964D01*
X1951630Y2132981D02*
Y2073000D01*
X1981620D01*
X1991617Y2082997D01*
Y2122984D01*
X1981620Y2132981D01*
X1951630D01*
X2011611Y2073000D02*
X2031604D01*
X2021607D01*
Y2132981D01*
X2011611Y2122984D01*
X2101581Y2132981D02*
X2061594D01*
Y2102990D01*
X2081588Y2112987D01*
X2091585D01*
X2101581Y2102990D01*
Y2082997D01*
X2091585Y2073000D01*
X2071591D01*
X2061594Y2082997D01*
X1956630Y2582981D02*
Y2523000D01*
X1986620D01*
X1996617Y2532997D01*
Y2572984D01*
X1986620Y2582981D01*
X1956630D01*
X2016611Y2523000D02*
X2036604D01*
X2026607D01*
Y2582981D01*
X2016611Y2572984D01*
X2096585Y2523000D02*
Y2582981D01*
X2066594Y2552990D01*
X2106581D01*
X1956630Y3052981D02*
Y2993000D01*
X1986620D01*
X1996617Y3002997D01*
Y3042984D01*
X1986620Y3052981D01*
X1956630D01*
X2016611Y2993000D02*
X2036604D01*
X2026607D01*
Y3052981D01*
X2016611Y3042984D01*
X2066594D02*
X2076591Y3052981D01*
X2096585D01*
X2106581Y3042984D01*
Y3032987D01*
X2096585Y3022990D01*
X2086588D01*
X2096585D01*
X2106581Y3012994D01*
Y3002997D01*
X2096585Y2993000D01*
X2076591D01*
X2066594Y3002997D01*
X1957260Y3507981D02*
Y3448000D01*
X1987250D01*
X1997247Y3457997D01*
Y3497984D01*
X1987250Y3507981D01*
X1957260D01*
X2017240Y3497984D02*
X2027237Y3507981D01*
X2047231D01*
X2057227Y3497984D01*
Y3487987D01*
X2047231Y3477990D01*
X2057227Y3467994D01*
Y3457997D01*
X2047231Y3448000D01*
X2027237D01*
X2017240Y3457997D01*
Y3467994D01*
X2027237Y3477990D01*
X2017240Y3487987D01*
Y3497984D01*
X2027237Y3477990D02*
X2047231D01*
X1962260Y3962981D02*
Y3903000D01*
X1992250D01*
X2002247Y3912997D01*
Y3952984D01*
X1992250Y3962981D01*
X1962260D01*
X2022240D02*
X2062227D01*
Y3952984D01*
X2022240Y3912997D01*
Y3903000D01*
X1980000Y4404981D02*
Y4345000D01*
X2009990D01*
X2019987Y4354997D01*
Y4394984D01*
X2009990Y4404981D01*
X1980000D01*
X2079968D02*
X2059974Y4394984D01*
X2039981Y4374990D01*
Y4354997D01*
X2049977Y4345000D01*
X2069971D01*
X2079968Y4354997D01*
Y4364993D01*
X2069971Y4374990D01*
X2039981D01*
X1977260Y4862981D02*
Y4803000D01*
X2007250D01*
X2017247Y4812997D01*
Y4852984D01*
X2007250Y4862981D01*
X1977260D01*
X2077227D02*
X2037240D01*
Y4832990D01*
X2057234Y4842987D01*
X2067231D01*
X2077227Y4832990D01*
Y4812997D01*
X2067231Y4803000D01*
X2047237D01*
X2037240Y4812997D01*
X4774357Y1599984D02*
X4764360Y1609981D01*
X4744367D01*
X4734370Y1599984D01*
Y1559997D01*
X4744367Y1550000D01*
X4764360D01*
X4774357Y1559997D01*
X4794351Y1609981D02*
X4834338D01*
Y1599984D01*
X4794351Y1559997D01*
Y1550000D01*
X7870987Y3810354D02*
X7860990Y3820351D01*
X7840997D01*
X7831000Y3810354D01*
Y3770367D01*
X7840997Y3760370D01*
X7860990D01*
X7870987Y3770367D01*
X7930968Y3820351D02*
X7910974Y3810354D01*
X7890981Y3790360D01*
Y3770367D01*
X7900977Y3760370D01*
X7920971D01*
X7930968Y3770367D01*
Y3780364D01*
X7920971Y3790360D01*
X7890981D01*
X7880987Y2775984D02*
X7870990Y2785981D01*
X7850997D01*
X7841000Y2775984D01*
Y2735997D01*
X7850997Y2726000D01*
X7870990D01*
X7880987Y2735997D01*
X7940968Y2785981D02*
X7900981D01*
Y2755990D01*
X7920974Y2765987D01*
X7930971D01*
X7940968Y2755990D01*
Y2735997D01*
X7930971Y2726000D01*
X7910977D01*
X7900981Y2735997D01*
X4394507Y2273984D02*
X4384510Y2283981D01*
X4364516D01*
X4354520Y2273984D01*
Y2233997D01*
X4364516Y2224000D01*
X4384510D01*
X4394507Y2233997D01*
X4444491Y2224000D02*
Y2283981D01*
X4414500Y2253990D01*
X4454487D01*
X6304357Y3074984D02*
X6294360Y3084981D01*
X6274367D01*
X6264370Y3074984D01*
Y3034997D01*
X6274367Y3025000D01*
X6294360D01*
X6304357Y3034997D01*
X6324351Y3074984D02*
X6334347Y3084981D01*
X6354341D01*
X6364338Y3074984D01*
Y3064987D01*
X6354341Y3054990D01*
X6344344D01*
X6354341D01*
X6364338Y3044994D01*
Y3034997D01*
X6354341Y3025000D01*
X6334347D01*
X6324351Y3034997D01*
X4289507Y3748984D02*
X4279510Y3758981D01*
X4259516D01*
X4249520Y3748984D01*
Y3708997D01*
X4259516Y3699000D01*
X4279510D01*
X4289507Y3708997D01*
X4349487Y3699000D02*
X4309500D01*
X4349487Y3738987D01*
Y3748984D01*
X4339491Y3758981D01*
X4319497D01*
X4309500Y3748984D01*
X6225357Y2330984D02*
X6215360Y2340981D01*
X6195367D01*
X6185370Y2330984D01*
Y2290997D01*
X6195367Y2281000D01*
X6215360D01*
X6225357Y2290997D01*
X6245351Y2281000D02*
X6265344D01*
X6255347D01*
Y2340981D01*
X6245351Y2330984D01*
D70*
X1495630Y1385000D02*
X1520630D01*
X1495630D02*
Y1665000D01*
X1520630D01*
X1710630D02*
X1735630D01*
Y1385000D02*
Y1665000D01*
X1710630Y1385000D02*
X1735630D01*
X1495630Y1460000D02*
X1735630D01*
X1495630Y1845000D02*
X1520630D01*
X1495630D02*
Y2125000D01*
X1520630D01*
X1710630D02*
X1735630D01*
Y1845000D02*
Y2125000D01*
X1710630Y1845000D02*
X1735630D01*
X1495630Y1920000D02*
X1735630D01*
X1495630Y2300000D02*
X1520630D01*
X1495630D02*
Y2580000D01*
X1520630D01*
X1710630D02*
X1735630D01*
Y2300000D02*
Y2580000D01*
X1710630Y2300000D02*
X1735630D01*
X1495630Y2375000D02*
X1735630D01*
X1495630Y2765000D02*
X1520630D01*
X1495630D02*
Y3045000D01*
X1520630D01*
X1710630D02*
X1735630D01*
Y2765000D02*
Y3045000D01*
X1710630Y2765000D02*
X1735630D01*
X1495630Y2840000D02*
X1735630D01*
X1495630Y3230000D02*
X1520630D01*
X1495630D02*
Y3510000D01*
X1520630D01*
X1710630D02*
X1735630D01*
Y3230000D02*
Y3510000D01*
X1710630Y3230000D02*
X1735630D01*
X1495630Y3305000D02*
X1735630D01*
X1495630Y3680000D02*
X1520630D01*
X1495630D02*
Y3960000D01*
X1520630D01*
X1710630D02*
X1735630D01*
Y3680000D02*
Y3960000D01*
X1710630Y3680000D02*
X1735630D01*
X1495630Y3755000D02*
X1735630D01*
X1495630Y4130000D02*
X1520630D01*
X1495630D02*
Y4410000D01*
X1520630D01*
X1710630D02*
X1735630D01*
Y4130000D02*
Y4410000D01*
X1710630Y4130000D02*
X1735630D01*
X1495630Y4205000D02*
X1735630D01*
X1495630Y4580000D02*
X1520630D01*
X1495630D02*
Y4860000D01*
X1520630D01*
X1710630D02*
X1735630D01*
Y4580000D02*
Y4860000D01*
X1710630Y4580000D02*
X1735630D01*
X1495630Y4655000D02*
X1735630D01*
D71*
X7025000Y1375000D02*
Y1494961D01*
X7084981D01*
X7104974Y1474968D01*
Y1434981D01*
X7084981Y1414987D01*
X7025000D01*
X7064987D02*
X7104974Y1375000D01*
X7224935Y1494961D02*
X7144961D01*
Y1375000D01*
X7224935D01*
X7144961Y1434981D02*
X7184948D01*
X7264922Y1494961D02*
Y1414987D01*
X7304909Y1375000D01*
X7344896Y1414987D01*
Y1494961D01*
X7504845Y1375000D02*
Y1454974D01*
X7544832Y1494961D01*
X7584819Y1454974D01*
Y1375000D01*
Y1434981D01*
X7504845D01*
X2565000Y1439961D02*
Y1320000D01*
X2624981D01*
X2644974Y1339994D01*
Y1359987D01*
X2624981Y1379981D01*
X2565000D01*
X2624981D01*
X2644974Y1399974D01*
Y1419968D01*
X2624981Y1439961D01*
X2565000D01*
X2704955Y1399974D02*
X2744942D01*
X2764935Y1379981D01*
Y1320000D01*
X2704955D01*
X2684961Y1339994D01*
X2704955Y1359987D01*
X2764935D01*
X2884896Y1439961D02*
Y1320000D01*
X2824916D01*
X2804922Y1339994D01*
Y1379981D01*
X2824916Y1399974D01*
X2884896D01*
X2964871Y1280013D02*
X2984864D01*
X3004858Y1300006D01*
Y1399974D01*
X2944877D01*
X2924884Y1379981D01*
Y1339994D01*
X2944877Y1320000D01*
X3004858D01*
X3104825D02*
X3064838D01*
X3044845Y1339994D01*
Y1379981D01*
X3064838Y1399974D01*
X3104825D01*
X3124819Y1379981D01*
Y1359987D01*
X3044845D01*
X3164806Y1399974D02*
Y1320000D01*
Y1359987D01*
X3184800Y1379981D01*
X3204793Y1399974D01*
X3224787D01*
X3284767Y1320000D02*
X3324754D01*
X3304761D01*
Y1439961D01*
X3284767D01*
X3404728Y1320000D02*
X3444715D01*
X3464709Y1339994D01*
Y1379981D01*
X3444715Y1399974D01*
X3404728D01*
X3384735Y1379981D01*
Y1339994D01*
X3404728Y1320000D01*
X3524690D02*
X3564677D01*
X3584670Y1339994D01*
Y1379981D01*
X3564677Y1399974D01*
X3524690D01*
X3504696Y1379981D01*
Y1339994D01*
X3524690Y1320000D01*
X3624657Y1280013D02*
Y1399974D01*
X3684638D01*
X3704631Y1379981D01*
Y1339994D01*
X3684638Y1320000D01*
X3624657D01*
X3744619Y1399974D02*
X3764612D01*
Y1379981D01*
X3744619D01*
Y1399974D01*
Y1339994D02*
X3764612D01*
Y1320000D01*
X3744619D01*
Y1339994D01*
X3964547Y1320000D02*
Y1439961D01*
X4044521Y1320000D01*
Y1439961D01*
X4104502Y1399974D02*
X4144489D01*
X4164483Y1379981D01*
Y1320000D01*
X4104502D01*
X4084509Y1339994D01*
X4104502Y1359987D01*
X4164483D01*
X4204470Y1399974D02*
X4244457Y1320000D01*
X4284444Y1399974D01*
X4324431Y1320000D02*
X4364418D01*
X4344425D01*
Y1399974D01*
X4324431D01*
X4464386Y1280013D02*
X4484379D01*
X4504373Y1300006D01*
Y1399974D01*
X4444392D01*
X4424399Y1379981D01*
Y1339994D01*
X4444392Y1320000D01*
X4504373D01*
X4564353Y1399974D02*
X4604341D01*
X4624334Y1379981D01*
Y1320000D01*
X4564353D01*
X4544360Y1339994D01*
X4564353Y1359987D01*
X4624334D01*
X4684315Y1419968D02*
Y1399974D01*
X4664321D01*
X4704308D01*
X4684315D01*
Y1339994D01*
X4704308Y1320000D01*
X4764289D02*
X4804276D01*
X4784282D01*
Y1399974D01*
X4764289D01*
X4884250Y1320000D02*
X4924237D01*
X4944231Y1339994D01*
Y1379981D01*
X4924237Y1399974D01*
X4884250D01*
X4864257Y1379981D01*
Y1339994D01*
X4884250Y1320000D01*
X4984218D02*
Y1399974D01*
X5044198D01*
X5064192Y1379981D01*
Y1320000D01*
D72*
X5810787Y2034134D02*
X5710820D01*
X5810787Y2100779D01*
X5710820D01*
X5744142Y2134102D02*
X5794126D01*
X5810787Y2150763D01*
Y2200747D01*
X5744142D01*
Y2300714D02*
Y2250731D01*
X5760804Y2234069D01*
X5794126D01*
X5810787Y2250731D01*
Y2300714D01*
Y2334037D02*
Y2367360D01*
Y2350698D01*
X5710820D01*
Y2334037D01*
X5810787Y2467327D02*
Y2434005D01*
X5794126Y2417343D01*
X5760804D01*
X5744142Y2434005D01*
Y2467327D01*
X5760804Y2483988D01*
X5777465D01*
Y2417343D01*
X5810787Y2533972D02*
Y2567295D01*
X5794126Y2583956D01*
X5760804D01*
X5744142Y2567295D01*
Y2533972D01*
X5760804Y2517311D01*
X5794126D01*
X5810787Y2533972D01*
X5760804Y2617279D02*
Y2683924D01*
X5727481Y2717247D02*
X5710820Y2733908D01*
Y2767230D01*
X5727481Y2783892D01*
X5744142D01*
X5760804Y2767230D01*
Y2750569D01*
Y2767230D01*
X5777465Y2783892D01*
X5794126D01*
X5810787Y2767230D01*
Y2733908D01*
X5794126Y2717247D01*
X5810787Y2883859D02*
Y2817214D01*
X5744142Y2883859D01*
X5727481D01*
X5710820Y2867198D01*
Y2833876D01*
X5727481Y2817214D01*
%TF.MD5,107fa0b4c685b82474987d2392f4f365*%
M02*
