%TF.GenerationSoftware,Altium Limited,Altium Designer,18.0.9 (584)*%
G04 Layer_Physical_Order=2*
G04 Layer_Color=16711680*
%FSLAX26Y26*%
%MOIN*%
%TF.FileFunction,Copper,L2,Bot,Signal*%
%TF.Part,Single*%
G01*
G75*
%TA.AperFunction,Conductor*%
%ADD25C,0.030000*%
%ADD26C,0.010000*%
%ADD27C,0.040000*%
%ADD29C,0.050000*%
%ADD30C,0.060000*%
%ADD33C,0.100000*%
%ADD34C,0.075000*%
%TA.AperFunction,WasherPad*%
%ADD37C,0.113000*%
%TA.AperFunction,ComponentPad*%
%ADD38C,0.078740*%
%ADD39R,0.078740X0.078740*%
%ADD40R,0.059055X0.059055*%
%ADD41C,0.059055*%
%ADD42C,0.118110*%
%ADD43R,0.118110X0.118110*%
%ADD44C,0.053150*%
%ADD45R,0.053150X0.053150*%
%ADD46R,0.059055X0.059055*%
%ADD47R,0.118110X0.118110*%
%ADD48R,0.068898X0.068898*%
%ADD49C,0.068898*%
%TA.AperFunction,ViaPad*%
%ADD50C,0.050000*%
%TA.AperFunction,Conductor*%
%ADD51C,0.055000*%
D25*
X6380000Y2945000D02*
X6629370D01*
D26*
X2880000Y4355000D02*
X3695000Y3540000D01*
X2880000Y4355000D02*
Y4415000D01*
X2812815Y4392185D02*
Y4397815D01*
Y4392185D02*
X3685000Y3520000D01*
X6265000Y2285000D02*
X6270000D01*
X6095000Y2455000D02*
X6265000Y2285000D01*
X6885000Y4200630D02*
Y4205000D01*
X5625000Y3340000D02*
X5715000Y3250000D01*
Y3165000D02*
Y3250000D01*
X5975000Y3185000D02*
X6040000Y3250000D01*
X6125000D01*
X5805000Y2950000D02*
X5810000Y2955000D01*
X6095000D01*
X6130000Y2990000D01*
Y3170000D01*
X4470335Y1645335D02*
X4485000Y1660000D01*
X5085000D01*
X4565000Y2460000D02*
X5365000Y1660000D01*
X4225000Y2460000D02*
X4565000D01*
X4545000Y2435000D02*
X5350000Y1630000D01*
X3735000Y2435000D02*
X4545000D01*
X5125000Y2095000D02*
X5175000Y2045000D01*
Y1982520D02*
Y2045000D01*
Y1982520D02*
X5452520Y1705000D01*
Y1805000D02*
Y1832520D01*
X5955000Y2335000D02*
Y2345000D01*
X5452520Y1832520D02*
X5955000Y2335000D01*
X6765000Y3200000D02*
X6830000Y3135000D01*
Y2680000D02*
Y3135000D01*
X6370000Y2220000D02*
X6830000Y2680000D01*
X6785000Y3095000D02*
X6805000Y3075000D01*
Y2690000D02*
Y3075000D01*
X6355000Y2240000D02*
X6805000Y2690000D01*
X6573759Y2715000D02*
X6685000Y2826241D01*
X6175000Y2715000D02*
X6573759D01*
X6775000Y2815000D02*
Y2899370D01*
X6645000Y2685000D02*
X6775000Y2815000D01*
X6165000Y2685000D02*
X6645000D01*
X5350000Y1630000D02*
X5677520D01*
X5365000Y1660000D02*
X5607520D01*
X5905000Y2157480D02*
Y2230000D01*
X5452520Y1705000D02*
X5905000Y2157480D01*
X6444370Y3060000D02*
X6629370Y3245000D01*
X6285000Y3060000D02*
X6444370D01*
X5130000Y3655000D02*
Y3660000D01*
Y3655000D02*
X5452520Y3332480D01*
X5080000Y3730000D02*
X5085000Y3735000D01*
X5080000Y3300000D02*
Y3730000D01*
X5452520Y3105000D02*
Y3332480D01*
X4455000Y3210000D02*
X5170000D01*
X5080000Y3300000D02*
X5170000Y3210000D01*
X5247520D01*
X5935000Y2650000D02*
X5940000Y2655000D01*
X5935000Y2740000D02*
X5950000Y2755000D01*
X6135000D01*
X6175000Y2715000D01*
X5940000Y2655000D02*
X6135000D01*
X6165000Y2685000D01*
X6370000Y2935000D02*
X6380000Y2945000D01*
X6684842Y2826399D02*
X6685000Y2826241D01*
X6684842Y2826399D02*
Y3000472D01*
X6729370Y3045000D01*
X6629370D02*
X6679370Y3095000D01*
X6785000D01*
X6235000Y2240000D02*
X6355000D01*
X6684370Y3200000D02*
X6765000D01*
X6629370Y3145000D02*
X6684370Y3200000D01*
X5670000Y2405000D02*
X6052520D01*
X5520000Y2555000D02*
X5670000Y2405000D01*
X5905000Y2230000D02*
X6030000Y2355000D01*
X6980000Y3870000D02*
X7050000Y3800000D01*
X6895000Y3865000D02*
Y3870000D01*
Y3865000D02*
X6960000Y3800000D01*
Y3440000D02*
Y3800000D01*
Y3440000D02*
X7285000Y3115000D01*
X7050000Y3450000D02*
Y3800000D01*
Y3450000D02*
X7280000Y3220000D01*
X6120000Y1890000D02*
Y2120000D01*
X6080000Y2160000D02*
X6120000Y2120000D01*
X6015000Y2160000D02*
X6080000D01*
X6085000Y1855000D02*
X6120000Y1890000D01*
X6020000Y1855000D02*
X6085000D01*
X5677520Y1630000D02*
X6052520Y2005000D01*
X5607520Y1660000D02*
X6052520Y2105000D01*
X5995000Y2180000D02*
Y2225000D01*
Y2180000D02*
X6015000Y2160000D01*
X5995000Y1830000D02*
X6020000Y1855000D01*
X5995000Y1762520D02*
Y1830000D01*
X6332520Y1725000D02*
Y2032480D01*
X6160000Y2205000D02*
X6332520Y2032480D01*
X6052520Y2205000D02*
X6160000D01*
X6729370Y2945000D02*
X6775000Y2899370D01*
X5190000Y3190000D02*
X5420000Y2960000D01*
X4430000Y3190000D02*
X5190000D01*
X5247520Y3210000D02*
X5452520Y3005000D01*
X5420000Y2960000D02*
X5490000D01*
X5505000Y2975000D02*
Y3052520D01*
X5490000Y2960000D02*
X5505000Y2975000D01*
X5452520Y3105000D02*
X5505000Y3052520D01*
X4125000Y3540000D02*
X4455000Y3210000D01*
X4100000Y3520000D02*
X4430000Y3190000D01*
X3695000Y3540000D02*
X4125000D01*
X3685000Y3520000D02*
X4100000D01*
X1890000Y3480000D02*
X1895000Y3485000D01*
X1890000Y3020000D02*
X1895000Y3015000D01*
X2676850Y2658150D02*
X2695000D01*
X3735000Y2950000D02*
X4225000Y2460000D01*
X5075000Y2227480D02*
X5452520Y2605000D01*
X5075000Y2030000D02*
Y2227480D01*
Y2030000D02*
X5120000Y1985000D01*
X6120000Y2355000D02*
X6235000Y2240000D01*
X5702520Y2455000D02*
X6095000D01*
X6030000Y2355000D02*
X6120000D01*
X6190000Y2220000D02*
X6370000D01*
X6155000Y2255000D02*
X6190000Y2220000D01*
X6025000Y2255000D02*
X6155000D01*
X5995000Y2225000D02*
X6025000Y2255000D01*
X5995000Y1762520D02*
X6052520Y1705000D01*
X7635000Y2585000D02*
X7640000Y2580000D01*
X6052520Y1802480D02*
Y1805000D01*
X5452520Y2705000D02*
X5702520Y2455000D01*
D27*
X7945000Y3645000D02*
X7965000Y3625000D01*
Y2615000D02*
Y3625000D01*
X7485000Y1510000D02*
X7965000Y1990000D01*
Y2615000D01*
X7705000Y2900000D02*
Y3540000D01*
Y2655000D02*
Y2900000D01*
X7315000Y3290000D02*
X7705000Y2900000D01*
X6345000Y1510000D02*
X7485000D01*
X6052520Y1802480D02*
X6345000Y1510000D01*
X7640000Y3605000D02*
X7705000Y3540000D01*
X7635000Y2585000D02*
X7705000Y2655000D01*
X7525000Y2585000D02*
X7635000D01*
X7535000Y3605000D02*
X7640000D01*
X2195000Y2525000D02*
Y3015000D01*
Y3460000D01*
Y3915000D01*
X2140000Y3970000D02*
Y4175000D01*
Y3970000D02*
X2195000Y3915000D01*
D29*
X7945000Y3645000D02*
Y3855000D01*
X3330000Y4205000D02*
X3780000D01*
X3160000Y4245000D02*
X3180000Y4265000D01*
X3160000Y4190000D02*
Y4245000D01*
Y4190000D02*
X3713150Y3636850D01*
X3180000Y4265000D02*
X3240000D01*
X3713150Y3636850D02*
X4037520D01*
X2695000Y3768701D02*
Y4430000D01*
X2770000Y4505000D01*
X3175000D01*
X3350000Y4330000D01*
X6885000Y4205000D02*
X6945000D01*
X6310000D02*
X6885000D01*
X3240000Y4265000D02*
X3875000D01*
X3780000Y4205000D02*
X4410000D01*
X3875000Y4265000D02*
X4515000D01*
X4410000Y4205000D02*
X5050000D01*
X4515000Y4265000D02*
X5155000D01*
X5050000Y4205000D02*
X5685000D01*
X5155000Y4265000D02*
X5790000D01*
X5685000Y4205000D02*
X6310000D01*
X5790000Y4265000D02*
X6420000D01*
X7055000D01*
X7705000D01*
X6945000Y4205000D02*
X7600000D01*
X3350000Y4330000D02*
Y4450000D01*
X3430000Y4530000D01*
X3785000D01*
X3985000Y4330000D01*
Y4455000D01*
X4060000Y4530000D01*
X4415000D01*
X4615000Y4330000D01*
Y4450000D01*
X4700000Y4535000D01*
X5060000D01*
X5265000Y4330000D01*
Y4440000D01*
X5360000Y4535000D01*
X5695000D01*
X5900000Y4330000D01*
Y4470000D01*
X5975000Y4545000D01*
X6305000D01*
X6525000Y4325000D01*
Y4460000D01*
X6610000Y4545000D01*
X6940000D01*
X7160000Y4325000D01*
Y4445000D01*
X7265000Y4550000D01*
X7575000D01*
X7805000Y4320000D01*
X4715000Y2840000D02*
X5120000D01*
X5185000Y2905000D01*
X6215000Y3530630D02*
X6629370Y3945000D01*
X6215000Y2967480D02*
Y3530630D01*
X6052520Y2805000D02*
X6215000Y2967480D01*
X5560000Y2912480D02*
Y3497520D01*
X5452520Y2805000D02*
X5560000Y2912480D01*
X2695000Y3375000D02*
X3035000D01*
X3195000Y3535000D01*
X2695000Y2658150D02*
X3088150D01*
X3210000Y2780000D01*
X3106299Y1941299D02*
X3215000Y2050000D01*
X7640000Y2180000D02*
Y2580000D01*
X6729370Y3945000D02*
X7855000D01*
X7945000Y3855000D01*
X2195000Y3015000D02*
X2231850Y3051850D01*
X2695000D01*
X4322520Y3638425D02*
X4527520Y3433425D01*
Y3368504D02*
Y3433425D01*
D30*
X5560000Y3497520D02*
X6052520Y3005000D01*
X5357520Y3700000D02*
X5560000Y3497520D01*
X5236181Y3700000D02*
X5357520D01*
D33*
X2676850Y2658150D02*
X2825000Y2806299D01*
X8200000Y1995000D02*
Y4622480D01*
X7595000Y1390000D02*
X8200000Y1995000D01*
X8092480Y4730000D02*
X8200000Y4622480D01*
X4470335Y1645335D02*
X4725669Y1390000D01*
X4147520Y1968150D02*
X4470335Y1645335D01*
X4137480Y4865000D02*
X4272480Y4730000D01*
X3770630Y4865000D02*
X4137480D01*
X3635630Y4730000D02*
X3770630Y4865000D01*
X4772480D02*
X4907480Y4730000D01*
X4407480Y4865000D02*
X4772480D01*
X4272480Y4730000D02*
X4407480Y4865000D01*
X5417480Y4860000D02*
X5547480Y4730000D01*
X5037480Y4860000D02*
X5417480D01*
X4907480Y4730000D02*
X5037480Y4860000D01*
X6042480Y4870000D02*
X6182480Y4730000D01*
X5687480Y4870000D02*
X6042480D01*
X5547480Y4730000D02*
X5687480Y4870000D01*
X6672480D02*
X6812480Y4730000D01*
X6322480Y4870000D02*
X6672480D01*
X6182480Y4730000D02*
X6322480Y4870000D01*
X7297480Y4885000D02*
X7452480Y4730000D01*
X6967480Y4885000D02*
X7297480D01*
X6812480Y4730000D02*
X6967480Y4885000D01*
X7947480Y4875000D02*
X8092480Y4730000D01*
X7597480Y4875000D02*
X7947480D01*
X7452480Y4730000D02*
X7597480Y4875000D01*
X4725669Y1390000D02*
X7595000D01*
X3106299Y1941299D02*
X4120669D01*
X2695000D02*
X3106299D01*
X4120669D02*
X4147520Y1968150D01*
X2825000Y3245000D02*
X3842520D01*
X4037520Y3440000D01*
X2535000Y4200000D02*
Y4505000D01*
Y3535000D02*
Y4200000D01*
Y3535000D02*
X2695000Y3375000D01*
X2396850Y2360000D02*
X2525000Y2488150D01*
X2695000Y2658150D01*
Y3375000D02*
X2825000Y3245000D01*
Y2806299D02*
Y3245000D01*
X2525000Y2111299D02*
Y2488150D01*
Y2111299D02*
X2695000Y1941299D01*
Y2335000D02*
X3977520D01*
X4147520Y2165000D01*
D34*
X2530000Y4500000D02*
X2535000Y4505000D01*
X2445000Y4500000D02*
X2530000D01*
X1735000Y4635000D02*
X1870000Y4500000D01*
X2445000D01*
X2420000Y4085000D02*
X2535000Y4200000D01*
X2360000Y4085000D02*
X2420000D01*
X1935000Y3965000D02*
Y4370000D01*
X1895000Y3925000D02*
X1935000Y3965000D01*
X1895000Y3485000D02*
Y3925000D01*
X1890000Y3020000D02*
Y3480000D01*
X1895000Y2545000D02*
Y3015000D01*
X2131850Y2095000D02*
X2396850Y2360000D01*
X2080000D02*
X2396850D01*
X1895000Y2545000D02*
X2080000Y2360000D01*
X1900000Y2095000D02*
X2131850D01*
X2368701Y1615000D02*
X2695000Y1941299D01*
X1955000Y1615000D02*
X2368701D01*
D37*
X2225000Y1320000D02*
D03*
X1250000Y5030000D02*
D03*
X8130000Y5035000D02*
D03*
X8080000Y1335000D02*
D03*
D38*
X4527520Y3800000D02*
D03*
Y3700000D02*
D03*
X5236181Y3800000D02*
D03*
Y3700000D02*
D03*
D39*
X4527520Y3268504D02*
D03*
Y3368504D02*
D03*
X5236181D02*
D03*
Y3268504D02*
D03*
D40*
X6332520Y1725000D02*
D03*
X5452520Y3105000D02*
D03*
X6629370Y3945000D02*
D03*
D41*
X6332520Y1625000D02*
D03*
X6632520Y1725000D02*
D03*
Y1625000D02*
D03*
X5452520Y3005000D02*
D03*
Y2905000D02*
D03*
Y2805000D02*
D03*
Y2705000D02*
D03*
Y2605000D02*
D03*
Y2505000D02*
D03*
Y2405000D02*
D03*
Y2305000D02*
D03*
Y2205000D02*
D03*
Y2105000D02*
D03*
Y2005000D02*
D03*
Y1905000D02*
D03*
Y1805000D02*
D03*
Y1705000D02*
D03*
X6052520Y3105000D02*
D03*
Y3005000D02*
D03*
Y2905000D02*
D03*
Y2805000D02*
D03*
Y2705000D02*
D03*
Y2605000D02*
D03*
Y2505000D02*
D03*
Y2405000D02*
D03*
Y2305000D02*
D03*
Y2205000D02*
D03*
Y2105000D02*
D03*
Y2005000D02*
D03*
Y1905000D02*
D03*
Y1805000D02*
D03*
Y1705000D02*
D03*
X6729370Y2845000D02*
D03*
Y2945000D02*
D03*
Y3045000D02*
D03*
Y3145000D02*
D03*
Y3245000D02*
D03*
Y3345000D02*
D03*
Y3445000D02*
D03*
Y3545000D02*
D03*
Y3645000D02*
D03*
Y3745000D02*
D03*
Y3845000D02*
D03*
Y3945000D02*
D03*
X6629370Y2845000D02*
D03*
Y2945000D02*
D03*
Y3045000D02*
D03*
Y3145000D02*
D03*
Y3245000D02*
D03*
Y3345000D02*
D03*
Y3445000D02*
D03*
Y3545000D02*
D03*
Y3645000D02*
D03*
Y3745000D02*
D03*
Y3845000D02*
D03*
X6637520Y2320000D02*
D03*
D42*
X1295630Y2363150D02*
D03*
Y2810000D02*
D03*
Y3275000D02*
D03*
Y3718150D02*
D03*
X1300630Y4168150D02*
D03*
Y4610000D02*
D03*
X1295630Y1440000D02*
D03*
Y1893150D02*
D03*
X2695000Y1941299D02*
D03*
Y2138150D02*
D03*
Y2658150D02*
D03*
Y2855000D02*
D03*
Y3375000D02*
D03*
Y3571850D02*
D03*
X4037520Y3440000D02*
D03*
X4147520Y1968150D02*
D03*
X6867520Y1928150D02*
D03*
Y2125000D02*
D03*
X4907480Y4730000D02*
D03*
X4710630D02*
D03*
X3635630D02*
D03*
X3438780D02*
D03*
X4272480D02*
D03*
X4075630D02*
D03*
X6812480D02*
D03*
X6615630D02*
D03*
X6182480D02*
D03*
X5985630D02*
D03*
X5547480D02*
D03*
X5350630D02*
D03*
X8092480D02*
D03*
X7895630D02*
D03*
X7452480D02*
D03*
X7255630D02*
D03*
D43*
X1295630Y2560000D02*
D03*
Y3006850D02*
D03*
Y3471850D02*
D03*
Y3915000D02*
D03*
X1300630Y4365000D02*
D03*
Y4806850D02*
D03*
X1295630Y1636850D02*
D03*
Y2090000D02*
D03*
X2695000Y2335000D02*
D03*
Y3051850D02*
D03*
Y3768701D02*
D03*
X4037520Y3636850D02*
D03*
X4147520Y2165000D02*
D03*
X6867520Y2321850D02*
D03*
D44*
X4322520Y3441575D02*
D03*
X4427520Y2163425D02*
D03*
D45*
X4322520Y3638425D02*
D03*
X4427520Y1966575D02*
D03*
D46*
X6637520Y2220000D02*
D03*
D47*
X4513779Y4730000D02*
D03*
X3241929D02*
D03*
X3878780D02*
D03*
X6418779D02*
D03*
X5788779D02*
D03*
X5153779D02*
D03*
X7698779D02*
D03*
X7058779D02*
D03*
D48*
X4730000Y4414370D02*
D03*
X3450000Y4404370D02*
D03*
X4095000Y4414370D02*
D03*
X6630000Y4424370D02*
D03*
X6005000Y4419370D02*
D03*
X5375000Y4414370D02*
D03*
X7905000Y4419370D02*
D03*
X7265000D02*
D03*
D49*
X4830000Y4414370D02*
D03*
X4930000D02*
D03*
X3550000Y4404370D02*
D03*
X3650000D02*
D03*
X4195000Y4414370D02*
D03*
X4295000D02*
D03*
X6730000Y4424370D02*
D03*
X6830000D02*
D03*
X6105000Y4419370D02*
D03*
X6205000D02*
D03*
X5475000Y4414370D02*
D03*
X5575000D02*
D03*
X8005000Y4419370D02*
D03*
X8105000D02*
D03*
X7365000D02*
D03*
X7465000D02*
D03*
D50*
X7945000Y3645000D02*
D03*
X2880000Y4415000D02*
D03*
X2812815Y4397815D02*
D03*
X3330000Y4205000D02*
D03*
X2445000Y4500000D02*
D03*
X7965000Y2615000D02*
D03*
X6270000Y2285000D02*
D03*
X7705000Y4265000D02*
D03*
X7055000D02*
D03*
X6945000Y4205000D02*
D03*
X7600000D02*
D03*
X5715000Y3165000D02*
D03*
X6125000Y3250000D02*
D03*
X5975000Y3185000D02*
D03*
X5805000Y2950000D02*
D03*
X5625000Y3340000D02*
D03*
X6130000Y3170000D02*
D03*
X5085000Y1660000D02*
D03*
X4715000Y2840000D02*
D03*
X3240000Y4265000D02*
D03*
X3875000D02*
D03*
X3780000Y4205000D02*
D03*
X6285000Y3060000D02*
D03*
X5130000Y3660000D02*
D03*
X5085000Y3735000D02*
D03*
X5935000Y2740000D02*
D03*
Y2650000D02*
D03*
X6370000Y2935000D02*
D03*
X5955000Y2345000D02*
D03*
X5520000Y2555000D02*
D03*
X6980000Y3870000D02*
D03*
X6895000D02*
D03*
X7315000Y3290000D02*
D03*
X5185000Y2905000D02*
D03*
X7805000Y4320000D02*
D03*
X7160000Y4325000D02*
D03*
X6310000Y4205000D02*
D03*
X6420000Y4265000D02*
D03*
X6525000Y4325000D02*
D03*
X5685000Y4205000D02*
D03*
X5790000Y4265000D02*
D03*
X5900000Y4330000D02*
D03*
X5050000Y4205000D02*
D03*
X5155000Y4265000D02*
D03*
X5265000Y4330000D02*
D03*
X4410000Y4205000D02*
D03*
X4515000Y4265000D02*
D03*
X4615000Y4330000D02*
D03*
X3985000D02*
D03*
X3350000D02*
D03*
X2360000Y4085000D02*
D03*
X3215000Y2050000D02*
D03*
X3210000Y2780000D02*
D03*
X3195000Y3535000D02*
D03*
X3735000Y2950000D02*
D03*
Y2435000D02*
D03*
X5120000Y1985000D02*
D03*
X5125000Y2095000D02*
D03*
X7640000Y2180000D02*
D03*
X7285000Y3115000D02*
D03*
X7280000Y3220000D02*
D03*
X1735000Y4635000D02*
D03*
X1935000Y4370000D02*
D03*
X1895000Y3925000D02*
D03*
Y3485000D02*
D03*
X1890000Y3020000D02*
D03*
X1895000Y2545000D02*
D03*
X1955000Y1615000D02*
D03*
X1900000Y2095000D02*
D03*
X2140000Y4175000D02*
D03*
X2195000Y3915000D02*
D03*
Y3460000D02*
D03*
Y3015000D02*
D03*
Y2525000D02*
D03*
X2535000Y4505000D02*
D03*
X7525000Y2585000D02*
D03*
X7635000D02*
D03*
X7535000Y3605000D02*
D03*
X7640000D02*
D03*
D51*
X6629370Y3945000D02*
X6885000Y4200630D01*
%TF.MD5,34c6e343e4e135e415e8707c96347c64*%
M02*
